<?xml version="1.0" encoding="utf-8"?>
<!-- Generator: Adobe Illustrator 26.3.1, SVG Export Plug-In . SVG Version: 6.00 Build 0)  -->
<svg version="1.1" id="Layer_1" xmlns="http://www.w3.org/2000/svg" xmlns:xlink="http://www.w3.org/1999/xlink" x="0px" y="0px" width="40px" height="40px" viewBox="0 0 80 80" enable-background="new 0 0 80 80" xml:space="preserve">
<rect x="0" y="0" display="none" fill="#ffffff" width="40" height="40"/>
<g>
	<path fill-rule="evenodd" clip-rule="evenodd" fill="#FFFFFF" d="M73.635,3.34H6.364c-2.7,0-4.888,2.188-4.888,4.887v63.546
		c0,2.7,2.189,4.887,4.888,4.887h67.272c2.701,0,4.889-2.187,4.889-4.887V8.227C78.525,5.528,76.336,3.34,73.635,3.34z
		 M24.433,50.411h-8.948h-0.014c-0.703,0-1.267,0.571-1.267,1.274c0,0,0.002,0,0.002,0.008h-0.002v6.396h0.002l-0.002,0.005
		c0,0.701,0.564,1.277,1.267,1.277h0.014h0.927h8.021v4.267H13.249v-0.011c-1.83,0-3.31-1.48-3.31-3.305V49.447
		c0-1.816,1.48-3.295,3.31-3.295h11.184V50.411z M27.669,38.535c0,1.861-1.503,3.357-3.355,3.357H9.928v-4.324h12.116h0.013
		c0.714,0,1.286-0.583,1.286-1.294v-0.008V21.991v-0.011c0-0.713-0.572-1.29-1.286-1.29h-0.013h-6.491h-0.014
		c-0.713,0-1.286,0.577-1.286,1.29v0.011v6.486v0.008c0,0.714,0.574,1.294,1.286,1.294h0.014h5.193v4.324h-7.464
		c-1.855,0-3.354-1.5-3.354-3.354v-11.03c0-1.853,1.499-3.355,3.354-3.355h11.032c1.853,0,3.355,1.502,3.355,3.355V38.535z
		 M45.326,60.322c0,1.825-1.48,3.305-3.304,3.305h-10.87c-1.83,0-3.307-1.48-3.307-3.305V49.447c0-1.816,1.477-3.295,3.307-3.295
		h10.87c1.824,0,3.304,1.48,3.304,3.295V60.322z M45.517,34.103H34.482c-1.853,0-3.351-1.5-3.351-3.354v-11.03
		c0-1.853,1.499-3.355,3.351-3.355h11.036c1.849,0,3.352,1.502,3.352,3.355v11.03C48.87,32.604,47.366,34.103,45.517,34.103z
		 M70.059,63.627h-4.263V50.411h-2.981H62.8c-0.705,0-1.269,0.571-1.269,1.274v0.008v11.934h-4.263V50.411h-2.987h-0.009
		c-0.705,0-1.269,0.571-1.269,1.274v0.008v11.945h-4.262v-14.19c0-1.816,1.476-3.295,3.306-3.295h18.012V63.627z M70.07,38.535
		c0,1.861-1.505,3.357-3.354,3.357H52.33v-4.324h12.121h0.008c0.717,0,1.291-0.583,1.291-1.294v-0.008V21.991v-0.011
		c0-0.713-0.575-1.29-1.291-1.29h-0.008h-6.497h-0.013c-0.705,0-1.282,0.577-1.282,1.29v0.011v6.486v0.008
		c0,0.714,0.577,1.294,1.282,1.294h0.013h5.192v4.324h-7.46c-1.855,0-3.357-1.5-3.357-3.354v-11.03c0-1.853,1.501-3.355,3.357-3.355
		h11.03c1.849,0,3.354,1.502,3.354,3.355V38.535z"/>
	<path fill-rule="evenodd" clip-rule="evenodd" fill="#FFFFFF" d="M43.26,20.691c0.715,0,1.275,0.577,1.275,1.29v0.011v6.486v0.008
		c0,0.714-0.56,1.294-1.275,1.294h-0.015h-6.491h-0.01c-0.715,0-1.289-0.58-1.289-1.294v-0.008v-6.486v-0.011
		c0-0.713,0.573-1.29,1.289-1.29h0.01h6.491H43.26"/>
	<path fill-rule="evenodd" clip-rule="evenodd" fill="#FFFFFF" d="M39.8,50.411c0.701,0,1.265,0.571,1.265,1.274v0.008v6.396
		c0,0.702-0.564,1.277-1.265,1.277c-0.007,0-0.008-0.007-0.015-0.007v0.007h-6.395v-0.007c0,0-0.007,0.007-0.013,0.007
		c-0.703,0-1.267-0.575-1.267-1.277v-6.396v-0.008c0-0.703,0.564-1.274,1.267-1.274h0.013h6.395H39.8"/>
</g>
</svg>
