<?xml version="1.0" encoding="utf-8"?>
<!-- Generator: Adobe Illustrator 25.2.0, SVG Export Plug-In . SVG Version: 6.00 Build 0)  -->
<svg version="1.1" id="Ebene_1" xmlns="http://www.w3.org/2000/svg" xmlns:xlink="http://www.w3.org/1999/xlink" x="0px" y="0px"
	 width="135px" height="40px" viewBox="0 0 135 40" enable-background="new 0 0 135 40" xml:space="preserve">
<g id="BG" display="none">
	<rect x="-1" y="-1.5" display="inline" fill="#444444" width="137.8" height="44"/>
</g>
<g>
	<rect x="55.4" y="8.3" fill-rule="evenodd" clip-rule="evenodd" fill="#FFFFFF" width="0.9" height="6.8"/>
	<rect x="70.4" y="8.3" fill-rule="evenodd" clip-rule="evenodd" fill="#FFFFFF" width="0.9" height="6.8"/>
	<path fill-rule="evenodd" clip-rule="evenodd" fill="#FFFFFF" d="M40.4,15.1h1L39,8.3h-1l-2.4,6.8h1l0.6-1.6H40L40.4,15.1z
		 M37.4,12.7l1.1-3l1.1,3H37.4z"/>
	<polygon fill-rule="evenodd" clip-rule="evenodd" fill="#FFFFFF" points="45.1,9.7 43.6,13.8 42.2,9.7 41.2,9.7 43.2,15.1 
		44.1,15.1 46.1,9.7 	"/>
	<path fill-rule="evenodd" clip-rule="evenodd" fill="#FFFFFF" d="M51.3,9.7v0.7c-0.5-0.5-1.2-0.8-2-0.8c-1.6,0-2.8,1.3-2.8,2.8
		s1.3,2.8,2.8,2.8c0.8,0,1.5-0.3,2-0.8v0.7h0.9V9.7H51.3z M49.4,14.3c-1.1,0-1.9-0.9-1.9-1.9s0.9-1.9,1.9-1.9c0.9,0,1.6,0.6,1.9,1.4
		V13C51,13.8,50.3,14.3,49.4,14.3z"/>
	<path fill-rule="evenodd" clip-rule="evenodd" fill="#FFFFFF" d="M61.9,9.7v0.7c-0.5-0.5-1.2-0.8-2-0.8c-1.6,0-2.8,1.3-2.8,2.8
		s1.3,2.8,2.8,2.8c0.8,0,1.5-0.3,2-0.8v0.7h0.9V9.7H61.9z M60,14.3c-1.1,0-1.9-0.9-1.9-1.9s0.9-1.9,1.9-1.9c0.9,0,1.6,0.6,1.9,1.4
		V13C61.6,13.8,60.9,14.3,60,14.3z"/>
	<path fill-rule="evenodd" clip-rule="evenodd" fill="#FFFFFF" d="M66.8,9.6c-0.8,0-1.5,0.3-2,0.8V8.3H64v6.8h0.9v-0.7
		c0.5,0.5,1.2,0.8,2,0.8c1.6,0,2.8-1.3,2.8-2.8S68.3,9.6,66.8,9.6z M66.7,14.3c-0.9,0-1.6-0.6-1.9-1.4v-1.2c0.2-0.8,1-1.4,1.9-1.4
		c1.1,0,1.9,0.9,1.9,1.9S67.7,14.3,66.7,14.3z"/>
	<g>
		<rect x="53.2" y="9.7" fill-rule="evenodd" clip-rule="evenodd" fill="#FFFFFF" width="0.9" height="5.4"/>
		<circle fill-rule="evenodd" clip-rule="evenodd" fill="#FFFFFF" cx="53.7" cy="8.5" r="0.6"/>
	</g>
	<path fill-rule="evenodd" clip-rule="evenodd" fill="#FFFFFF" d="M77.6,12.7h0.3c0-0.1,0-0.2,0-0.3c0-1.6-1.3-2.8-2.8-2.8
		c-1.6,0-2.8,1.3-2.8,2.8s1.3,2.8,2.8,2.8c1.1,0,2-0.6,2.5-1.5l-0.8-0.3c-0.3,0.6-1,1-1.7,1c-1,0-1.8-0.7-2-1.7H77H77.6z M75.1,10.4
		c0.9,0,1.7,0.6,1.9,1.5h-3.8C73.4,11,74.2,10.4,75.1,10.4z"/>
	<path fill-rule="evenodd" clip-rule="evenodd" fill="#FFFFFF" d="M83.7,9.6c-1.6,0-2.8,1.3-2.8,2.8s1.3,2.8,2.8,2.8
		c1.6,0,2.8-1.3,2.8-2.8S85.2,9.6,83.7,9.6z M83.7,14.4c-1.1,0-2-0.9-2-2s0.9-2,2-2s2,0.9,2,2S84.8,14.4,83.7,14.4z"/>
	<path fill-rule="evenodd" clip-rule="evenodd" fill="#FFFFFF" d="M90,9.6c-0.7,0-1.4,0.4-1.8,0.9V9.7h-0.9v5.4h0.9V12
		c0-0.9,0.7-1.6,1.6-1.6s1.6,0.7,1.6,1.6v3.1h0.9v-3.4C92.2,10.6,91.2,9.6,90,9.6z"/>
	<g>
		<path fill-rule="evenodd" clip-rule="evenodd" fill="#FFFFFF" d="M14.4,13.8c-1.2,0-2.2,1-2.2,2.2l-0.1,0.2h4.5l0-0.2
			C16.6,14.8,15.6,13.8,14.4,13.8z"/>
		<path fill-rule="evenodd" clip-rule="evenodd" fill="#FFFFFF" d="M24.5,9.6c-2.5-2.5-6.4-3-10.2-3s-7.7,0.5-10.2,3s-3,6.4-3,10.2
			s0.5,7.7,3,10.2s6.4,3,10.2,3s7.7-0.5,10.2-3s3-6.4,3-10.2S27.1,12.1,24.5,9.6z M20.7,24.4c-0.2,1.6-1.6,2.9-3.2,2.9h-6.2
			c-1.7,0-3-1.2-3.2-2.9l-0.9-8.1h3.2l0.1-0.2c0-2.2,1.8-3.9,3.9-3.9c2.2,0,3.9,1.8,3.9,3.9l0.1,0.2h3.2L20.7,24.4z"/>
	</g>
	<g>
		<g>
			<path fill="#FFFFFF" d="M58.3,20.1h2.1v11.2h-2.1V20.1z"/>
		</g>
		<path fill="#FFFFFF" d="M35.6,25.8c0-3.1,2.4-5.7,5.6-5.7c2.3,0,4.1,1.2,5,2.8L44.5,24c-0.7-1.3-1.7-1.9-3.2-1.9
			c-2.1,0-3.6,1.7-3.6,3.7s1.5,3.7,3.7,3.7c1.6,0,2.8-0.9,3.2-2.4H41v-2h5.7v0.8c0,3-2.1,5.5-5.4,5.5C37.9,31.4,35.6,28.8,35.6,25.8
			"/>
		<path fill="#FFFFFF" d="M47.7,26.9c0-2.9,2.1-4.6,4.4-4.6c1.2,0,2.2,0.5,2.8,1.2v-1.1h2v8.8h-2v-1.1c-0.6,0.8-1.7,1.3-2.9,1.3
			C49.9,31.5,47.7,29.8,47.7,26.9 M55,26.8c0-1.5-1.1-2.7-2.6-2.7s-2.7,1.2-2.7,2.7s1.2,2.7,2.7,2.7C53.9,29.6,55,28.4,55,26.8"/>
		<path fill="#FFFFFF" d="M61.4,26.9c0-2.9,2.1-4.6,4.4-4.6c1.2,0,2.2,0.5,2.8,1.2v-1.1h2v8.8h-2v-1.1c-0.6,0.8-1.7,1.3-2.9,1.3
			C63.6,31.5,61.4,29.8,61.4,26.9 M68.7,26.8c0-1.5-1.1-2.7-2.6-2.7s-2.7,1.2-2.7,2.7s1.2,2.7,2.7,2.7
			C67.6,29.6,68.7,28.4,68.7,26.8"/>
		<polygon fill="#FFFFFF" points="74.6,26.8 71.4,22.5 73.9,22.5 75.9,25.3 77.9,22.5 80.3,22.5 77.1,26.8 80.5,31.3 78,31.3 
			75.9,28.3 73.8,31.3 71.3,31.3 		"/>
		<polygon fill="#FFFFFF" points="84.3,30.8 80.7,22.5 82.9,22.5 85.3,28.4 87.7,22.5 89.8,22.5 84.5,35.4 82.5,35.4 		"/>
		<path fill="#FFFFFF" d="M94,29.5l1.9-1.5c0.6,1,1.4,1.5,2.4,1.5c1.1,0,1.7-0.7,1.7-1.5c0-0.9-1.1-1.2-2.3-1.6
			c-1.5-0.5-3.1-1-3.1-3.1c0-1.8,1.5-3.2,3.7-3.2c1.8,0,2.8,0.7,3.7,1.6l-1.7,1.3c-0.5-0.7-1.1-1.1-2-1.1c-1,0-1.5,0.5-1.5,1.3
			c0,0.9,1.1,1.2,2.3,1.6c1.5,0.5,3.2,1.1,3.2,3.3c0,1.7-1.4,3.4-3.8,3.4C96.3,31.4,95,30.6,94,29.5"/>
		<path fill="#FFFFFF" d="M102.3,22.5h1.5v-1.3l2.1-1.4v2.7h1.8v1.8h-1.8v3.3c0,1.5,0.2,1.8,1.8,1.8v1.9h-0.3
			c-2.7,0-3.6-0.9-3.6-3.7v-3.3h-1.5V22.5L102.3,22.5z"/>
		<path fill="#FFFFFF" d="M108.2,26.9c0-2.6,2-4.6,4.6-4.6c2.5,0,4.6,2,4.6,4.6s-2,4.6-4.6,4.6S108.2,29.4,108.2,26.9 M115.3,26.9
			c0-1.5-1.1-2.7-2.6-2.7s-2.6,1.2-2.6,2.7s1.1,2.7,2.6,2.7C114.2,29.6,115.3,28.3,115.3,26.9"/>
		<path fill="#FFFFFF" d="M118.4,22.5h2v1.3c0.4-0.9,1.1-1.3,2.3-1.3c0.6,0,1.2,0.2,1.6,0.4l-0.8,1.9c-0.3-0.2-0.6-0.3-1.2-0.3
			c-1.2,0-1.8,0.6-1.8,2.2v4.7h-2L118.4,22.5L118.4,22.5z"/>
		<path fill="#FFFFFF" d="M124.5,26.9c0-2.6,2-4.6,4.6-4.6s4.5,1.9,4.5,4.5v0.8h-7.2c0.3,1.2,1.3,2.1,2.7,2.1c1.1,0,2-0.6,2.4-1.6
			l1.7,1c-0.8,1.4-2.2,2.4-4.1,2.4C126.3,31.5,124.5,29.4,124.5,26.9 M126.5,25.9h5c-0.3-1.2-1.2-1.8-2.5-1.8
			C127.8,24.1,126.9,24.8,126.5,25.9"/>
	</g>
</g>
</svg>
