<?xml version="1.0" encoding="utf-8"?>
<!-- Generator: Adobe Illustrator 25.2.0, SVG Export Plug-In . SVG Version: 6.00 Build 0)  -->
<svg version="1.1" id="Ebene_1" xmlns="http://www.w3.org/2000/svg" xmlns:xlink="http://www.w3.org/1999/xlink" x="0px" y="0px"
	 width="135px" height="40px" viewBox="0 0 135 40" enable-background="new 0 0 135 40" xml:space="preserve">
<style type="text/css">
	.st0{display:none;}
	.st1{display:inline;fill:#444444;}
	.st2{display:inline;}
	.st3{fill:#777777;}
	.st4{display:inline;enable-background:new    ;}
	.st5{fill:#FFFFFF;}
	.st6{display:inline;fill:#777777;}
	.st7{opacity:0.12;fill:#777777;enable-background:new    ;}
</style>
<g id="Ebene_1_00000068652571413228694070000013075376824090950567_">
	<g id="BG" class="st0">
		<rect x="-1" y="-1.5" class="st1" width="137.8" height="44"/>
	</g>
	<g id="XBox" class="st0">
		<g class="st2">
			<g>
				<g>
					<g>
						<g>
							<g>
								<g>
									<g>
										<path class="st3" d="M85.1,28l-4.9-6.6L75.3,28h-2l5.9-8l-5.4-7.3h2l4.4,6l4.4-6h2L81.2,20l5.9,8H85.1L85.1,28z M45,28
											l-4.9-6.6L35.2,28h-2l5.9-8l-5.4-7.3h2l4.4,6l4.4-6h2L41.1,20l5.9,8H45L45,28z M59.5,23.5c0,2.8-2.1,4.5-5.5,4.5h-6.2
											v-7.2c0,0-3,0-3.2,0c0.2-0.3,0.8-1.2,1.1-1.5c0.1,0,2.1,0,2.1,0v-6.6H54c4.6,0,5,3.2,5,4.2c0,1.3-0.7,2.5-1.8,3.1
											c0.3,0.2,0.7,0.4,1,0.6C59,21.2,59.5,22.3,59.5,23.5z M49.5,19.2c0.7,0,4.5,0,4.5,0c2.1,0,3.3-1,3.3-2.6
											c0-2.1-2-2.4-3.3-2.4c0,0-3.8,0-4.5,0V19.2z M57.8,23.4c0-2.2-2-2.7-3.8-2.7c0,0-3.8,0-4.5,0v5.6c0.7,0,4.5,0,4.5,0
											C55.4,26.4,57.8,26,57.8,23.4z M74.9,20.3c0,4.7-3,8-7.3,8s-7.3-3.3-7.3-8s3-8,7.3-8C71.9,12.3,74.9,15.6,74.9,20.3z
											 M73.2,20.3c0-3.8-2.3-6.4-5.6-6.4c-3.3,0-5.6,2.6-5.6,6.4s2.3,6.4,5.6,6.4C70.9,26.7,73.2,24,73.2,20.3z"/>
									</g>
								</g>
							</g>
						</g>
					</g>
					<g>
						<g>
							<polygon class="st3" points="116.9,12.6 116.9,25.2 107.6,12.6 106.1,12.6 106.1,27.9 107.8,27.9 107.8,15.6 116.9,28 
								118.6,28 118.6,12.6 							"/>
						</g>
						<g>
							<g>
								<g>
									<g>
										<g>
											<path class="st3" d="M104.5,20.3c0,4.7-3,8-7.3,8s-7.3-3.3-7.3-8s3-8,7.3-8C101.5,12.3,104.5,15.6,104.5,20.3z
												 M102.8,20.3c0-3.8-2.3-6.4-5.6-6.4c-3.3,0-5.6,2.6-5.6,6.4s2.3,6.4,5.6,6.4C100.5,26.7,102.8,24,102.8,20.3z"/>
										</g>
									</g>
								</g>
							</g>
						</g>
						<polygon class="st3" points="122.2,26.5 122.2,20.8 130.7,20.8 130.7,19.3 122.2,19.3 122.2,14.1 131.2,14.1 131.2,12.6 
							120.5,12.6 120.5,28 131.4,28 131.4,26.5 						"/>
					</g>
				</g>
			</g>
			<g>
				<g>
					<g>
						<g>
							<path class="st3" d="M6.9,11L6.9,11L6.9,11c-2.4,2.3-3.8,5.5-3.8,9.1c0,2.9,1,5.6,2.6,7.7c0,0,0,0,0.1,0c0,0,0,0,0-0.1
								c-1-3,4-10.3,6.6-13.4l0,0l0,0C8,10.1,6.8,11,6.9,11"/>
							<path class="st3" d="M24.8,11L24.8,11L24.8,11c2.4,2.3,3.8,5.5,3.8,9.1c0,2.9-1,5.6-2.6,7.7c0,0,0,0-0.1,0c0,0,0,0,0-0.1
								c1-3-4-10.3-6.6-13.4l0,0l0,0C23.7,10.1,24.8,11,24.8,11"/>
							<path class="st3" d="M15.8,7.3c2.6,0,4.7,0.7,6.6,1.9c0,0,0,0,0,0.1s0,0-0.1,0c-2.5-0.5-6.2,1.6-6.6,1.8l0,0l0,0
								c-0.9-0.5-4.4-2.4-6.6-1.8H9V9.2C11.1,8.1,13.3,7.3,15.8,7.3"/>
							<path class="st3" d="M15.8,17.6C15.8,17.6,15.9,17.6,15.8,17.6c3.9,2.9,10.4,10.1,8.4,12.1l0,0l0,0l0,0
								c-2.2,2-5.2,3.2-8.4,3.2s-6.2-1.2-8.4-3.2l0,0l0,0l0,0C5.4,27.7,12,20.5,15.8,17.6L15.8,17.6"/>
						</g>
					</g>
				</g>
			</g>
		</g>
	</g>
	<g id="Tizen" class="st0">
		<g class="st4">
			<path class="st3" d="M63.5,18.6l-1.5-3c-0.1-0.3-0.5-0.5-0.8-0.5H49.3c-0.3,0-0.6,0.3-0.6,0.6v2.8c0,0.3,0.3,0.6,0.6,0.6h14.2
				C63.5,18.9,63.5,18.7,63.5,18.6z"/>
			<path class="st3" d="M105.9,11.1c0.2,0,0.4,0,0.7-0.1l0.6-0.2l-0.4-1.3c0-0.1-0.1-0.1-0.1-0.1l-2.3-0.8h-0.1
				c-0.1,0-0.1,0.1-0.1,0.2l0.5,1.5C104.6,10.3,105,11.1,105.9,11.1z"/>
			<path class="st3" d="M109.2,11v-0.1l-0.2-0.2c0,0-0.1-0.1-0.1,0l-2.2,0.7c-0.5,0.2-1.1,0.2-1.4,0l2.4,1.5c0.1,0.1,0.2,0,0.3-0.1
				L109.2,11z"/>
			<path class="st3" d="M36.1,15.1H21.5c-0.3,0-0.5,0.2-0.5,0.5v2.9c0,0.3,0.2,0.5,0.5,0.5h5.1v13.9c0,0.3,0.2,0.5,0.5,0.5h3.5
				c0.3,0,0.5-0.2,0.5-0.5V19.1h5c0.3,0,0.5-0.2,0.5-0.5v-2.9C36.6,15.4,36.4,15.1,36.1,15.1z"/>
			<path class="st3" d="M44,15.1h-3.5c-0.3,0-0.5,0.2-0.5,0.5v17.3c0,0.3,0.2,0.5,0.5,0.5H44c0.3,0,0.5-0.2,0.5-0.5V15.6
				C44.6,15.4,44.3,15.1,44,15.1z"/>
			<path class="st3" d="M54.3,29.2l9-9.8c0,0,0-0.1,0.1-0.1h-5.6l-9,9.8c0,0,0,0.1-0.1,0.1L54.3,29.2L54.3,29.2z"/>
			<path class="st3" d="M63.4,30.1v2.8c0,0.3-0.3,0.6-0.6,0.6H50.9c-0.3,0-0.7-0.2-0.8-0.5l-1.5-3c-0.1-0.1-0.1-0.3-0.1-0.5h14.2
				C63.1,29.5,63.4,29.8,63.4,30.1z"/>
			<path class="st3" d="M81.8,15.1H68.1c-0.3,0-0.5,0.2-0.5,0.5v17.3c0,0.3,0.2,0.5,0.5,0.5h13.7c0.3,0,0.5-0.2,0.5-0.5V30
				c0-0.3-0.2-0.5-0.5-0.5h-9.9V26h7.9c0.3,0,0.5-0.2,0.5-0.5v-2.7c0-0.3-0.2-0.5-0.5-0.5h-7.9v-3.2h9.9c0.3,0,0.5-0.2,0.5-0.5v-2.9
				C82.3,15.4,82,15.1,81.8,15.1z"/>
			<path class="st3" d="M86.9,15.5c-0.3,0.1-0.5,0.4-0.5,0.6v16.8c0,0.3,0.3,0.6,0.6,0.6h3.4c0.3,0,0.6-0.3,0.6-0.6V15
				c-0.2-0.1-0.4-0.1-0.6-0.1L86.9,15.5L86.9,15.5"/>
			<path class="st3" d="M99.3,26.3l-8-11.1l0,0v7.1l8,11.1l0,0V26.3z"/>
			<path class="st3" d="M103.6,15.1h-3.4c-0.3,0-0.6,0.3-0.6,0.6v18c0.2,0.1,0.4,0.1,0.6,0.1l3.4-0.6c0,0,0,0,0.1,0
				c0.3-0.1,0.5-0.4,0.5-0.6V15.7C104.1,15.4,103.9,15.1,103.6,15.1z"/>
			<polygon class="st3" points="106.8,32.5 106.8,32.1 105.6,32.1 105.6,32.5 106,32.5 106,33.5 106.4,33.5 106.4,32.5 			"/>
			<polygon class="st3" points="108.4,33.5 108.8,33.5 108.8,32.1 108.4,32.1 107.9,32.6 107.5,32.1 107.1,32.1 107.1,33.5 
				107.5,33.5 107.5,32.7 107.9,33.2 108,33.2 108.4,32.7 			"/>
			<path class="st3" d="M109.3,14.1c0.1-0.2,0.1-0.4,0.1-0.7v-0.7H108c-0.1,0-0.1,0-0.2,0.1l-1.4,2v0.1c0,0.1,0.1,0.1,0.1,0.1h1.6
				C108,15.1,108.9,15,109.3,14.1z"/>
			<path class="st3" d="M110.1,11C110.1,11,110,10.9,110.1,11l-0.4,0.1l-0.1,0.1v2.3c0,0.5-0.2,1.1-0.5,1.3l2.1-1.8
				c0.1-0.1,0.1-0.2,0-0.3L110.1,11z"/>
			<path class="st3" d="M113.2,11.9c-0.2-0.1-0.4-0.2-0.6-0.3l-0.6-0.2l-0.4,1.3c0,0.1,0,0.1,0,0.2l1.4,2c0,0,0,0,0.1,0.1
				c0.1,0,0.2,0,0.2-0.1l0.5-1.5C113.7,13.4,113.9,12.5,113.2,11.9z"/>
			<path class="st3" d="M110.4,10.1c-0.1,0-0.1,0.1-0.1,0.1v0.3c0,0,0,0.1,0.1,0.1l2.2,0.7c0.5,0.2,1,0.5,1.1,0.8l-1-2.6
				c0-0.1-0.2-0.2-0.3-0.1L110.4,10.1z"/>
			<path class="st3" d="M112.2,7.5c-0.2,0.1-0.3,0.3-0.5,0.5l-0.4,0.5l1.1,0.8c0.1,0,0.1,0.1,0.2,0l2.3-0.8c0,0,0.1,0,0.1-0.1
				s0-0.2,0-0.2l-1.3-0.9C113.8,7.4,113,6.9,112.2,7.5z"/>
			<path class="st3" d="M109.7,9.5c0,0.1,0,0.1,0.1,0.1l0.3,0.1h0.1l1.4-1.9c0.3-0.4,0.8-0.8,1.1-0.8l-2.8,0.2
				c-0.1,0-0.2,0.1-0.2,0.2V9.5z"/>
			<path class="st3" d="M107.7,7c0.1,0.2,0.2,0.4,0.3,0.6l0.4,0.5l1.1-0.8c0.1,0,0.1-0.1,0.1-0.2V4.6V4.5c0-0.1-0.1-0.1-0.2,0
				l-1.3,0.9C108.2,5.5,107.5,6.1,107.7,7z"/>
			<path class="st3" d="M108.9,10.1C109,10.1,109,10.1,108.9,10.1l0.3-0.2V9.8l-1.4-1.9c-0.3-0.4-0.5-1-0.4-1.3l-0.7,2.7
				c0,0.1,0,0.2,0.2,0.3L108.9,10.1z"/>
		</g>
	</g>
	<g id="Steam" class="st0">
		<g class="st2">
			<path class="st3" d="M80.9,17.7c-0.6,0.5-1.4,0.7-2.4,0.7c-0.7,0-1.3-0.1-1.9-0.3c-0.5-0.2-1-0.5-1.4-0.9l1.1-1.1
				c0.3,0.3,0.6,0.5,1,0.6s0.8,0.2,1.2,0.2c1.1,0,1.6-0.4,1.6-1.1c0-0.3-0.1-0.6-0.2-0.7c-0.2-0.2-0.4-0.3-0.8-0.3l-0.5-0.1L78,14.5
				c-0.8-0.1-1.4-0.4-1.8-0.7c-0.4-0.4-0.6-1-0.6-1.8s0.3-1.5,0.9-2s1.3-0.8,2.3-0.8c0.6,0,1.2,0.1,1.6,0.2c0.5,0.2,0.9,0.4,1.3,0.8
				l-1.1,1.1C80.3,11.2,80,11,79.7,11c-0.3-0.1-0.6-0.1-1-0.1s-0.8,0.1-1,0.3s-0.4,0.5-0.4,0.8c0,0.2,0.1,0.4,0.3,0.6
				s0.5,0.3,0.8,0.4H79l0.5,0.1c0.4,0.1,0.7,0.1,1,0.3c0.3,0.1,0.5,0.3,0.7,0.4c0.5,0.4,0.7,1.1,0.7,1.9
				C81.9,16.6,81.6,17.2,80.9,17.7z"/>
			<path class="st3" d="M88.5,10.9v7.4h-1.8v-7.4h-2.4V9.4h6.5V11C90.9,10.9,88.5,10.9,88.5,10.9z"/>
			<path class="st3" d="M94.6,18.4v-9h5.9V11h-4.2v2.1h3.6v1.6h-3.6v2.2h4.2v1.6h-5.9V18.4z"/>
			<path class="st3" d="M109.6,18.4l-0.5-1.6h-3.2l-0.5,1.6h-1.8l3.3-9h1.4l3.3,9H109.6z M107.5,12l-1.1,3.3h2.2L107.5,12z"/>
			<path class="st3" d="M121,18.4v-5.2l-1.7,3.4h-1.2l-1.7-3.4v5.2h-1.8v-9h1.7l2.4,4.9l2.3-4.9h1.7v9C122.7,18.4,121,18.4,121,18.4
				z"/>
			<path class="st3" d="M62.8,5.5c-4.7,0-8.6,3.8-8.6,8.6v0.1l-5.5,8c-0.9,0-1.8,0.1-2.6,0.5c-0.4,0.2-0.7,0.3-1.1,0.6L20.1,13
				c-0.4-1.9-1.7-3.6-3.7-4.5c-3.2-1.3-6.9,0.2-8.2,3.4C6.9,15,8.4,18.7,11.6,20c1.5,0.6,3.2,0.6,4.8,0c0.4-0.1,0.7-0.3,1-0.5
				l24.9,10.3c0.4,1.9,1.8,3.6,3.7,4.4c3.2,1.3,6.8-0.2,8.2-3.4c0.3-0.8,0.5-1.7,0.5-2.6l7.9-5.6c0.1,0,0.1,0,0.2,0
				c4.7,0,8.6-3.8,8.6-8.6C71.3,9.4,67.5,5.5,62.8,5.5z M12.2,18.7c-1.9-0.8-3-2.6-3-4.5c0-0.6,0.1-1.2,0.4-1.8
				c1-2.5,3.9-3.6,6.3-2.6c1.2,0.5,2,1.4,2.5,2.4L15.5,11c-1.8-0.8-3.9,0.1-4.6,1.9c-0.8,1.8,0.1,3.9,1.9,4.6l2.9,1.2
				C14.5,19.2,13.3,19.2,12.2,18.7z M52.9,30.3c-1,2.5-3.9,3.6-6.3,2.6c-1.1-0.5-2-1.3-2.5-2.4l2.8,1.2c1.8,0.8,3.9-0.1,4.6-1.9
				c0.8-1.8-0.1-3.9-1.9-4.6L46.7,24c1.1-0.4,2.4-0.4,3.6,0.1c1.2,0.5,2.1,1.4,2.6,2.6C53.4,27.8,53.4,29.1,52.9,30.3z M62.8,19.8
				c-3.1,0-5.7-2.6-5.7-5.7s2.6-5.7,5.7-5.7s5.7,2.6,5.7,5.7S65.9,19.8,62.8,19.8z M62.8,18.4c-2.4,0-4.3-1.9-4.3-4.3
				s1.9-4.3,4.3-4.3s4.3,1.9,4.3,4.3S65.1,18.4,62.8,18.4z"/>
			<g>
				<path class="st3" d="M126.6,9.1c0.6,0,1.2,0.5,1.2,1.2s-0.5,1.2-1.2,1.2c-0.6,0-1.2-0.5-1.2-1.2S125.9,9.1,126.6,9.1L126.6,9.1z
					 M126.6,9.3c-0.5,0-0.9,0.4-0.9,1s0.4,1,0.9,1s0.9-0.4,0.9-1S127.1,9.3,126.6,9.3L126.6,9.3z M126.3,11h-0.2V9.6
					c0.1,0,0.2,0,0.4,0c0.2,0,0.3,0,0.4,0.1S127,9.9,127,10c0,0.2-0.1,0.3-0.3,0.3l0,0c0.1,0,0.2,0.1,0.2,0.3s0.1,0.3,0.1,0.3h-0.2
					c0,0-0.1-0.2-0.1-0.3c0-0.2-0.1-0.2-0.3-0.2h-0.1C126.3,10.4,126.3,11,126.3,11z M126.3,10.2h0.2c0.2,0,0.3-0.1,0.3-0.2
					c0-0.1-0.1-0.2-0.3-0.2c-0.1,0-0.1,0-0.2,0V10.2z"/>
			</g>
		</g>
	</g>
	<g id="Playstation">
		<g>
			<g>
				<path class="st5" d="M36.2,32.7L36.2,32.7c0-0.1-0.1-0.1-0.1-0.2v-0.2c0-0.1,0-0.2-0.1-0.2L35.9,32l0.1-0.1
					c0-0.1,0.1-0.1,0.1-0.2c0-0.2-0.1-0.3-0.2-0.4c-0.1,0-0.2-0.1-0.3-0.1H35l0,0l0,0v1.4l0,0l0,0h0.2l0,0l0,0V32h0.4
					c0.1,0,0.1,0,0.2,0c0,0,0.1,0.1,0.1,0.2v0.2c0,0.1,0,0.1,0,0.1s0,0,0,0.1l0,0l0,0L36.2,32.7L36.2,32.7L36.2,32.7L36.2,32.7
					L36.2,32.7L36.2,32.7z M35.9,32c0,0-0.1,0-0.2,0h-0.4v-0.4h0.4c0.1,0,0.1,0,0.1,0c0.1,0,0.1,0.1,0.1,0.2
					C35.9,31.9,35.9,31.9,35.9,32z"/>
				<path class="st5" d="M36.5,31.2c-0.2-0.3-0.6-0.4-0.9-0.4c-0.7,0-1.3,0.6-1.3,1.3c0,0.4,0.1,0.7,0.4,0.9
					c0.2,0.3,0.6,0.4,0.9,0.4c0.4,0,0.7-0.1,0.9-0.4c0.2-0.2,0.4-0.6,0.4-0.9C36.9,31.8,36.8,31.4,36.5,31.2z M35.6,33.2
					c-0.3,0-0.6-0.1-0.8-0.3s-0.3-0.5-0.3-0.8s0.1-0.6,0.3-0.8c0.2-0.2,0.5-0.3,0.8-0.3s0.6,0.1,0.8,0.3c0.2,0.2,0.3,0.5,0.3,0.8
					C36.7,32.7,36.2,33.2,35.6,33.2z"/>
				<g>
					<path class="st5" d="M8.7,28.4c0.8,0.3,2.3,0.2,3.4-0.2l2.8-1v2.9c-0.2,0-0.4,0.1-0.6,0.1c-2.8,0.5-5.8,0.3-8.7-0.7
						c-2.7-0.8-3.2-2.4-1.9-3.3c1.2-0.9,3.1-1.5,3.1-1.5l8.1-2.9v3.3l-5.8,2.1C8.1,27.6,7.9,28.1,8.7,28.4z"/>
					<path class="st5" d="M37.4,27.2c-0.7,0.9-2.3,1.5-2.3,1.5l-12.3,4.4v-3.3l9.1-3.2c1-0.4,1.2-0.9,0.4-1.2
						c-0.8-0.3-2.3-0.2-3.4,0.2l-6,2.1v-3.4l0.3-0.1c0,0,1.7-0.6,4.2-0.9s5.5,0,7.8,0.9C37.7,25.1,38,26.4,37.4,27.2z"/>
					<path class="st5" d="M23.9,21.7v-8.3c0-1-0.2-1.9-1.1-2.1c-0.7-0.2-1.1,0.4-1.1,1.4v20.9L16,31.7V6.8c2.4,0.4,5.9,1.5,7.8,2.1
						c4.8,1.6,6.4,3.7,6.4,8.3C30.2,21.7,27.4,23.4,23.9,21.7z"/>
				</g>
			</g>
		</g>
	</g>
	<g id="Nintendo" class="st0">
		<path class="st6" d="M7.3,14.8c0,1.4,1.1,2.5,2.5,2.5s2.5-1.1,2.5-2.5s-1.1-2.5-2.5-2.5S7.3,13.4,7.3,14.8 M23.2,6.7H19
			c-0.1,0-0.2,0.1-0.2,0.2v26.7c0,0.1,0.1,0.2,0.2,0.2h4.2c3.8,0,6.9-3.1,6.9-6.9V13.6C30.1,9.8,27,6.7,23.2,6.7 M24.2,24.3
			c-1.5,0-2.7-1.2-2.7-2.7s1.2-2.7,2.7-2.7s2.7,1.2,2.7,2.7C26.9,23.1,25.7,24.3,24.2,24.3 M15.9,6.7H10c-3.8,0-6.9,3.1-6.9,6.9
			v13.2c0,3.8,3.1,6.9,6.9,6.9h5.9c0.1,0,0.2-0.1,0.2-0.2V6.9C16.1,6.8,16,6.7,15.9,6.7 M13.9,31.6H10c-1.3,0-2.5-0.5-3.4-1.4
			s-1.4-2.1-1.4-3.4V13.6c0-1.3,0.5-2.5,1.4-3.4C7.5,9.4,8.7,8.9,10,8.9h3.9V31.6z M58.5,9.8l3.8,5.1h1.5V7.3h-1.5v5l-3.7-5h-1.5
			v7.6h1.5L58.5,9.8L58.5,9.8z M42.9,24.4c-2.1-0.3-3.4-0.7-3.4-1.7c0-1.1,1.5-1.5,3.5-1.5c1.9,0,3.7,0.7,4.4,1l1-2.5
			c-0.7-0.3-3-1.1-5.5-1.1c-3.1,0-6.4,1.5-6.4,4.3c0,2.3,1.6,3.4,5.7,4.1c2.9,0.5,4.5,0.8,4.4,2c0,0.7-0.6,1.8-3.8,1.8
			c-2.6,0-4.5-0.9-5.1-1.3l-1.4,2.4c0.7,0.4,3.1,1.5,6.3,1.5c4.6,0,7-1.6,7-4.6C49.6,27.2,49,25.4,42.9,24.4 M38.5,9.8l3.8,5.1h1.5
			V7.3h-1.5v5l-3.7-5H37v7.6h1.5V9.8L38.5,9.8z M65.7,29.1l-3-10.4h-2.5l-3,10.3l-2.8-10.3h-3.1l4,14.3h3.4l2.7-9.4L64,33h3.5
			l4.1-14.3h-3.1L65.7,29.1z M51.2,7.3h-1.7v7.6h1.7V7.3z M75.1,33.1h3.2V18.8h-3.2V33.1z M122.5,7c-2.2,0-4,1.8-4,4s1.8,4,4,4
			s4-1.8,4-4S124.7,7,122.5,7 M122.5,13.4c-1.3,0-2.4-1.1-2.4-2.4s1.1-2.4,2.4-2.4s2.4,1.1,2.4,2.4
			C124.9,12.4,123.8,13.4,122.5,13.4 M123,24.4h-6.7v-5.6h-3v14.3h3v-5.7h6.7v5.7h3V18.8h-3V24.4z M130.8,31.1l-0.5,1.4l-0.5-1.4
			h-0.5v2h0.4v-1.5l0.5,1.5l0,0h0.3l0,0l0.5-1.5v1.5h0.4v-2C131.4,31.1,130.8,31.1,130.8,31.1z M109.7,7.3h-3.1v7.6h3.1
			c2.1,0,3.9-1.7,3.9-3.8S111.8,7.3,109.7,7.3 M109.7,13.3H108V8.9h1.7c1.2,0,2.2,1,2.2,2.2C111.9,12.3,110.9,13.3,109.7,13.3
			 M127.2,31.5h0.6v1.6h0.4v-1.6h0.6v-0.4h-1.6L127.2,31.5L127.2,31.5z M103.8,21.5c1.6,0,3.1,0.9,3.9,2.2l2.3-2
			c-1.4-2.1-3.8-3.4-6.3-3.4c-4.2,0-7.6,3.4-7.6,7.6s3.4,7.6,7.6,7.6c2.6,0,4.9-1.3,6.3-3.4l-2.3-2c-0.8,1.4-2.3,2.2-3.9,2.2
			c-2.5,0-4.5-2-4.5-4.5S101.3,21.5,103.8,21.5 M87,13.5h-4.4v-1.8h4v-1.4h-4V8.7H87V7.3h-5.9v7.6H87V13.5z M81.8,21.8h4.6v11.3h3.1
			V21.8H94v-3H81.8V21.8z M75.6,7.3h-6.4v1.6h2.4v6h1.6v-6h2.4V7.3z M100.1,14.9V7.3h-1.5v5l-3.7-5h-1.5v7.6h1.5V9.8l3.8,5.1H100.1z
			"/>
	</g>
	<g id="Google_Play" class="st0">
		<g class="st2">
			<g>
				<g>
					<path class="st3" d="M45.2,9.2c0,0.9-0.3,1.6-0.8,2.1c-0.6,0.6-1.4,1-2.4,1c-0.9,0-1.7-0.3-2.4-1c-0.6-0.6-1-1.4-1-2.4
						s0.3-1.8,1-2.4s1.4-1,2.4-1c0.5,0,0.9,0.1,1.3,0.3s0.8,0.4,1,0.7l-0.6,0.6c-0.4-0.5-1-0.8-1.8-0.8c-0.7,0-1.3,0.2-1.8,0.7
						s-0.7,1.1-0.7,1.9s0.2,1.4,0.7,1.9s1.1,0.7,1.8,0.7s1.3-0.2,1.8-0.7c0.3-0.3,0.5-0.7,0.5-1.3H42V8.7h3.1
						C45.2,8.8,45.2,9,45.2,9.2z"/>
					<path class="st3" d="M50.2,6.5h-2.9v2h2.6v0.8h-2.6v2h2.9v0.8h-3.8V5.7h3.8V6.5z"/>
					<path class="st3" d="M53.6,12.1h-0.8V6.5H51V5.7h4.4v0.8h-1.8L53.6,12.1L53.6,12.1z"/>
					<path class="st3" d="M58.6,12.1V5.7h0.8v6.4H58.6L58.6,12.1z"/>
					<path class="st3" d="M63.1,12.1h-0.8V6.5h-1.8V5.7h4.4v0.8h-1.8L63.1,12.1L63.1,12.1z"/>
					<path class="st3" d="M73.3,11.3c-0.6,0.6-1.4,1-2.4,1c-0.9,0-1.7-0.3-2.4-1c-0.6-0.6-0.9-1.4-0.9-2.4s0.3-1.7,0.9-2.4
						s1.4-1,2.4-1c0.9,0,1.7,0.3,2.4,1c0.6,0.7,1,1.4,1,2.4C74.2,9.8,73.9,10.6,73.3,11.3z M69.2,10.7c0.5,0.5,1.1,0.7,1.7,0.7
						c0.7,0,1.3-0.2,1.7-0.7c0.5-0.5,0.7-1.1,0.7-1.8s-0.2-1.4-0.7-1.8c-0.5-0.5-1.1-0.7-1.7-0.7c-0.7,0-1.3,0.2-1.7,0.7
						c-0.5,0.5-0.7,1.1-0.7,1.8S68.7,10.3,69.2,10.7z"/>
					<path class="st3" d="M75.4,12.1V5.7h1l3.1,5l0,0V9.5V5.7h0.8v6.4h-0.9l-3.3-5.2l0,0v1.2v4H75.4L75.4,12.1z"/>
				</g>
				<path class="st3" d="M67.4,21.5c-2.5,0-4.6,1.9-4.6,4.6c0,2.6,2.1,4.6,4.6,4.6s4.6-1.9,4.6-4.6S69.9,21.5,67.4,21.5z M67.4,28.8
					c-1.4,0-2.6-1.1-2.6-2.8c0-1.6,1.2-2.8,2.6-2.8S70,24.3,70,26C70,27.7,68.8,28.8,67.4,28.8z M57.4,21.5c-2.5,0-4.6,1.9-4.6,4.6
					c0,2.6,2.1,4.6,4.6,4.6s4.6-1.9,4.6-4.6S60,21.5,57.4,21.5z M57.4,28.8c-1.4,0-2.6-1.1-2.6-2.8c0-1.6,1.2-2.8,2.6-2.8
					S60,24.3,60,26C60,27.7,58.8,28.8,57.4,28.8z M45.6,22.9v1.9h4.6c-0.1,1.1-0.5,1.9-1.1,2.4c-0.7,0.7-1.7,1.4-3.6,1.4
					c-2.9,0-5.1-2.3-5.1-5.1s2.2-5.1,5.1-5.1c1.5,0,2.7,0.6,3.5,1.4l1.4-1.4c-1.2-1.1-2.7-2-4.9-2c-3.9,0-7.2,3.2-7.2,7.1
					s3.3,7.1,7.2,7.1c2.1,0,3.7-0.7,4.9-2c1.3-1.3,1.7-3.1,1.7-4.5c0-0.4,0-0.9-0.1-1.2L45.6,22.9L45.6,22.9z M94.1,24.4
					c-0.4-1-1.5-2.9-3.9-2.9s-4.3,1.9-4.3,4.6c0,2.6,1.9,4.6,4.5,4.6c2.1,0,3.3-1.3,3.8-2l-1.6-1c-0.5,0.8-1.2,1.3-2.2,1.3
					s-1.7-0.5-2.2-1.4l6.1-2.5L94.1,24.4z M87.9,25.9c-0.1-1.8,1.4-2.7,2.4-2.7c0.8,0,1.5,0.4,1.7,1L87.9,25.9z M83,30.3h2V16.9h-2
					V30.3z M79.7,22.5L79.7,22.5c-0.5-0.5-1.4-1-2.5-1c-2.3,0-4.4,2-4.4,4.6s2.1,4.5,4.4,4.5c1.1,0,2-0.5,2.4-1h0.1v0.7
					c0,1.7-0.9,2.7-2.4,2.7c-1.2,0-2-0.9-2.3-1.6L73.2,32c0.5,1.2,1.8,2.7,4,2.7c2.3,0,4.3-1.4,4.3-4.8v-8.2h-1.9L79.7,22.5
					L79.7,22.5z M77.4,28.8c-1.4,0-2.5-1.2-2.5-2.7c0-1.6,1.2-2.8,2.5-2.8c1.4,0,2.4,1.2,2.4,2.8C79.8,27.7,78.7,28.8,77.4,28.8z
					 M103.5,16.9h-4.8v13.4h2v-5.1h2.8c2.2,0,4.4-1.6,4.4-4.2C107.9,18.5,105.7,16.9,103.5,16.9z M103.6,23.4h-2.8v-4.6h2.8
					c1.5,0,2.3,1.2,2.3,2.3C105.9,22.1,105.1,23.4,103.6,23.4z M115.9,21.5c-1.4,0-2.9,0.6-3.6,2.1l1.8,0.7c0.4-0.7,1.1-1,1.8-1
					c1,0,2.1,0.6,2.1,1.7v0.1c-0.4-0.2-1.1-0.5-2.1-0.5c-1.9,0-3.9,1.1-3.9,3c0,1.8,1.6,2.9,3.3,2.9c1.3,0,2.1-0.6,2.6-1.3h0.1v1
					h1.9v-5.1C120,22.8,118.2,21.5,115.9,21.5z M115.7,28.8c-0.7,0-1.6-0.3-1.6-1.1c0-1,1.1-1.4,2.1-1.4c0.9,0,1.3,0.2,1.8,0.4
					C117.9,27.9,116.9,28.8,115.7,28.8z M127.1,21.8l-2.3,5.8h-0.1l-2.4-5.8h-2.2l3.6,8.1l-2,4.5h2.1l5.5-12.6L127.1,21.8
					L127.1,21.8z M109,30.3h2V16.9h-2V30.3z"/>
				<g>
					<path class="st7" d="M5.6,32.8c-0.3-0.3-0.5-0.8-0.5-1.5v0.2c0,0.7,0.2,1.2,0.5,1.5V32.8L5.6,32.8z"/>
				</g>
			</g>
			<g>
				<path class="st3" d="M5.3,6.7C5.3,6.7,5.2,6.7,5.3,6.7C5.2,6.9,5.2,7,5.1,7.1c0,0.1,0,0.1,0,0.2C5.1,7.5,5,7.6,5,7.8l0,0V8v23.6
					c0,0.4,0.1,0.8,0.2,1.1l12.9-12.9L5.3,6.7z"/>
				<path class="st3" d="M29.8,19.6L29.8,19.6c0-0.6-0.4-1.1-1.1-1.5l-4.8-2.7l-4.3,4.3l4.2,4.3l4.8-2.7c0.3-0.2,0.5-0.4,0.7-0.6
					l0.1-0.1c0,0,0,0,0-0.1C29.7,20.1,29.8,19.9,29.8,19.6L29.8,19.6L29.8,19.6z"/>
				<path class="st3" d="M18.9,18.9l4.1-4.1L7.8,6.2l0,0C7.6,6.1,7.4,6,7.2,5.9H7.1c-0.2,0-0.3-0.1-0.4-0.1H6.6
					c-0.2,0-0.3,0-0.4,0.1l0,0l0,0L18.9,18.9z"/>
				<path class="st3" d="M18.9,20.4L6,33.3c0.5,0.2,1.1,0.1,1.8-0.3L23,24.4L18.9,20.4z"/>
			</g>
		</g>
	</g>
	<g id="Apple" class="st0">
		<g class="st2">
			<path class="st3" d="M30.1,19.8c0-3.2,2.6-4.8,2.8-4.9c-1.5-2.2-3.9-2.5-4.7-2.5c-2-0.2-3.9,1.2-4.9,1.2s-2.6-1.2-4.2-1.1
				c-2.1,0-4.1,1.3-5.2,3.2c-2.3,3.9-0.6,9.7,1.6,12.9c1.1,1.6,2.4,3.3,4,3.2c1.6-0.1,2.2-1,4.2-1c1.9,0,2.5,1,4.2,1
				s2.8-1.6,3.9-3.1c1.3-1.8,1.8-3.5,1.8-3.6C33.5,24.9,30.2,23.6,30.1,19.8z"/>
			<path class="st3" d="M26.9,10.3c0.9-1.1,1.5-2.6,1.3-4.1c-1.3,0.1-2.8,0.9-3.8,1.9c-0.8,0.9-1.5,2.5-1.3,3.9
				C24.6,12.2,26,11.4,26.9,10.3z"/>
			<g>
				<path class="st3" d="M53.7,31.5h-2.3l-1.2-3.9h-4.3l-1.2,3.9h-2.2l4.3-13.3h2.6L53.7,31.5z M49.8,26l-1.1-3.5
					c-0.1-0.4-0.3-1.2-0.7-2.5l0,0c-0.1,0.6-0.3,1.4-0.6,2.5L46.2,26H49.8z"/>
				<path class="st3" d="M64.7,26.6c0,1.6-0.4,2.9-1.3,3.9c-0.8,0.8-1.8,1.3-3,1.3c-1.3,0-2.2-0.5-2.7-1.4v5h-2.1V25.1
					c0-1,0-2.1-0.1-3.1h1.9l0.1,1.5l0,0c0.7-1.1,1.8-1.7,3.2-1.7c1.1,0,2.1,0.4,2.8,1.3C64.3,23.9,64.7,25.1,64.7,26.6z M62.5,26.7
					c0-0.9-0.2-1.7-0.6-2.3c-0.5-0.6-1.1-0.9-1.9-0.9c-0.5,0-1,0.2-1.4,0.5c-0.4,0.4-0.7,0.8-0.8,1.4c-0.1,0.3-0.1,0.5-0.1,0.6v1.6
					c0,0.7,0.2,1.3,0.6,1.8c0.4,0.5,1,0.7,1.7,0.7c0.8,0,1.4-0.3,1.9-0.9C62.3,28.5,62.5,27.7,62.5,26.7z"/>
				<path class="st3" d="M75.7,26.6c0,1.6-0.4,2.9-1.3,3.9c-0.8,0.8-1.8,1.3-3,1.3c-1.3,0-2.2-0.5-2.7-1.4v5h-2.1V25.1
					c0-1,0-2.1-0.1-3.1h1.9l0.1,1.5l0,0c0.7-1.1,1.8-1.7,3.2-1.7c1.1,0,2.1,0.4,2.8,1.3C75.3,23.9,75.7,25.1,75.7,26.6z M73.5,26.7
					c0-0.9-0.2-1.7-0.6-2.3c-0.5-0.6-1.1-0.9-1.9-0.9c-0.5,0-1,0.2-1.4,0.5c-0.4,0.4-0.7,0.8-0.8,1.4c-0.1,0.3-0.1,0.5-0.1,0.6v1.6
					c0,0.7,0.2,1.3,0.6,1.8s1,0.7,1.7,0.7c0.8,0,1.4-0.3,1.9-0.9C73.3,28.5,73.5,27.7,73.5,26.7z"/>
				<path class="st3" d="M88,27.8c0,1.1-0.4,2.1-1.2,2.8c-0.9,0.8-2.1,1.2-3.6,1.2c-1.4,0-2.6-0.3-3.4-0.8l0.5-1.8
					c0.9,0.6,2,0.8,3.1,0.8c0.8,0,1.4-0.2,1.9-0.5c0.4-0.4,0.7-0.8,0.7-1.5c0-0.5-0.2-1-0.6-1.4s-1-0.7-1.8-1
					c-2.3-0.9-3.5-2.1-3.5-3.8c0-1.1,0.4-2,1.2-2.7c0.8-0.7,1.9-1,3.3-1c1.2,0,2.2,0.2,3,0.6L87,20.4c-0.8-0.4-1.6-0.6-2.6-0.6
					c-0.8,0-1.3,0.2-1.8,0.6c-0.4,0.3-0.5,0.7-0.5,1.2s0.2,1,0.6,1.3s1,0.7,1.9,1c1.1,0.5,2,1,2.5,1.6C87.8,26.1,88,26.9,88,27.8z"
					/>
				<path class="st3" d="M95.1,23.5h-2.4v4.7c0,1.2,0.4,1.8,1.2,1.8c0.4,0,0.7,0,0.9-0.1l0.1,1.6c-0.4,0.2-1,0.2-1.7,0.2
					c-0.8,0-1.5-0.3-2-0.8s-0.7-1.4-0.7-2.6v-4.8h-1.4v-1.6h1.4v-1.8l2.1-0.6v2.4H95L95.1,23.5L95.1,23.5z"/>
				<path class="st3" d="M105.7,26.6c0,1.5-0.4,2.7-1.3,3.6c-0.9,1-2.1,1.5-3.5,1.5s-2.5-0.5-3.4-1.4c-0.8-0.9-1.3-2.1-1.3-3.5
					c0-1.5,0.4-2.7,1.3-3.6s2-1.4,3.5-1.4c1.4,0,2.5,0.5,3.4,1.4C105.3,24,105.7,25.2,105.7,26.6z M103.5,26.7
					c0-0.9-0.2-1.6-0.6-2.3c-0.4-0.8-1.1-1.1-1.9-1.1c-0.9,0-1.5,0.4-2,1.1c-0.4,0.6-0.6,1.4-0.6,2.3s0.2,1.6,0.6,2.3
					c0.5,0.8,1.1,1.1,1.9,1.1s1.5-0.4,1.9-1.2C103.3,28.3,103.5,27.6,103.5,26.7z"/>
				<path class="st3" d="M112.6,23.8c-0.2,0-0.4-0.1-0.7-0.1c-0.8,0-1.3,0.3-1.7,0.9c-0.4,0.5-0.5,1.1-0.5,1.9v5h-2.1v-6.6
					c0-1.1,0-2.1-0.1-3h1.9l0.1,1.8h0.1c0.2-0.6,0.6-1.1,1.1-1.5c0.5-0.3,1-0.5,1.5-0.5c0.2,0,0.4,0,0.5,0L112.6,23.8L112.6,23.8z"
					/>
				<path class="st3" d="M122.2,26.3c0,0.4,0,0.7-0.1,1h-6.4c0,0.9,0.3,1.7,0.9,2.2c0.5,0.4,1.2,0.7,2.1,0.7s1.8-0.1,2.6-0.5
					l0.3,1.5c-0.9,0.4-2,0.6-3.2,0.6c-1.5,0-2.7-0.4-3.5-1.3s-1.3-2.1-1.3-3.5s0.4-2.6,1.2-3.6c0.8-1,1.9-1.5,3.4-1.5
					c1.4,0,2.4,0.5,3.1,1.5C121.9,24,122.2,25.1,122.2,26.3z M120.1,25.7c0-0.6-0.1-1.2-0.4-1.6c-0.4-0.6-0.9-0.9-1.7-0.9
					c-0.7,0-1.3,0.3-1.7,0.9c-0.4,0.5-0.6,1-0.6,1.7L120.1,25.7L120.1,25.7z"/>
			</g>
			<g>
				<g>
					<path class="st3" d="M45.2,13.5c-0.6,0-1.1,0-1.5-0.1V7c0.6-0.1,1.2-0.1,1.8-0.1c2.4,0,3.6,1.2,3.6,3.2
						C49.1,12.3,47.7,13.5,45.2,13.5z M45.6,7.7c-0.3,0-0.6,0-0.8,0.1v4.9c0.1,0,0.4,0,0.7,0c1.6,0,2.5-0.9,2.5-2.6
						C47.9,8.5,47.1,7.7,45.6,7.7z"/>
					<path class="st3" d="M52.6,13.5c-1.4,0-2.3-1-2.3-2.4c0-1.5,0.9-2.5,2.3-2.5c1.4,0,2.3,1,2.3,2.4C54.9,12.5,54,13.5,52.6,13.5z
						 M52.6,9.4c-0.8,0-1.2,0.7-1.2,1.7s0.5,1.7,1.2,1.7s1.2-0.8,1.2-1.7C53.8,10.1,53.3,9.4,52.6,9.4z"/>
					<path class="st3" d="M62.8,8.7l-1.5,4.7h-1l-0.6-2c-0.2-0.5-0.3-1-0.4-1.5l0,0c-0.1,0.5-0.2,1-0.4,1.5l-0.7,2h-1l-1.4-4.7H57
						l0.5,2.2c0.1,0.5,0.2,1,0.3,1.5l0,0c0.1-0.4,0.2-0.9,0.4-1.5l0.7-2.3h0.9l0.6,2.2c0.2,0.5,0.3,1.1,0.4,1.6l0,0
						c0.1-0.5,0.2-1,0.3-1.6l0.6-2.2L62.8,8.7L62.8,8.7z"/>
					<path class="st3" d="M68.2,13.4h-1v-2.7c0-0.8-0.3-1.3-1-1.3c-0.6,0-1,0.5-1,1.2v2.8h-1V10c0-0.4,0-0.9,0-1.3H65v0.7l0,0
						c0.3-0.5,0.9-0.8,1.5-0.8c1,0,1.6,0.8,1.6,2L68.2,13.4L68.2,13.4z"/>
					<path class="st3" d="M71.1,13.4h-1V6.6h1V13.4z"/>
					<path class="st3" d="M74.9,13.5c-1.4,0-2.3-1-2.3-2.4c0-1.5,0.9-2.5,2.3-2.5s2.3,1,2.3,2.4C77.3,12.5,76.3,13.5,74.9,13.5z
						 M74.9,9.4c-0.8,0-1.2,0.7-1.2,1.7s0.5,1.7,1.2,1.7s1.2-0.8,1.2-1.7C76.2,10.1,75.7,9.4,74.9,9.4z"/>
					<path class="st3" d="M81.4,13.4l-0.1-0.5l0,0c-0.3,0.4-0.8,0.6-1.4,0.6c-0.8,0-1.4-0.6-1.4-1.4c0-1.2,1-1.8,2.8-1.8v-0.1
						c0-0.6-0.3-0.9-1-0.9c-0.5,0-0.9,0.1-1.2,0.4L78.8,9c0.4-0.3,1-0.4,1.6-0.4c1.2,0,1.9,0.6,1.9,2v1.7c0,0.5,0,0.8,0.1,1.1
						L81.4,13.4L81.4,13.4z M81.2,11.1c-1.2,0-1.7,0.3-1.7,1c0,0.5,0.3,0.7,0.7,0.7c0.5,0,1-0.4,1-1V11.1z"/>
					<path class="st3" d="M87.4,13.4v-0.8l0,0c-0.3,0.6-0.8,0.9-1.5,0.9c-1.1,0-2-1-2-2.4c0-1.5,0.9-2.5,2.1-2.5
						c0.6,0,1.1,0.2,1.3,0.6l0,0V6.6h1v5.6c0,0.5,0,0.9,0,1.3C88.3,13.4,87.4,13.4,87.4,13.4z M87.2,10.7c0-0.7-0.4-1.2-1.1-1.2
						c-0.8,0-1.3,0.7-1.3,1.7s0.5,1.6,1.2,1.6s1.1-0.6,1.1-1.3L87.2,10.7L87.2,10.7z"/>
					<path class="st3" d="M94.9,13.5c-1.4,0-2.3-1-2.3-2.4c0-1.5,0.9-2.5,2.3-2.5s2.3,1,2.3,2.4C97.3,12.5,96.3,13.5,94.9,13.5z
						 M94.9,9.4c-0.8,0-1.2,0.7-1.2,1.7s0.5,1.7,1.2,1.7s1.2-0.8,1.2-1.7C96.2,10.1,95.7,9.4,94.9,9.4z"/>
					<path class="st3" d="M102.9,13.4h-1v-2.7c0-0.8-0.3-1.3-1-1.3c-0.6,0-1,0.5-1,1.2v2.8h-1V10c0-0.4,0-0.9,0-1.3h0.9v0.7l0,0
						c0.3-0.5,0.9-0.8,1.5-0.8c1,0,1.6,0.8,1.6,2V13.4z"/>
					<path class="st3" d="M109.9,9.5h-1.1v2.3c0,0.6,0.2,0.9,0.6,0.9c0.2,0,0.3,0,0.5,0v0.8c-0.2,0.1-0.5,0.1-0.8,0.1
						c-0.8,0-1.3-0.5-1.3-1.6V9.5h-0.7V8.7h0.7V7.9l1-0.3v1.2h1.2L109.9,9.5L109.9,9.5z"/>
					<path class="st3" d="M115.5,13.4h-1v-2.7c0-0.8-0.3-1.3-1-1.3c-0.5,0-1,0.4-1,1.1v2.8h-1V6.6h1v2.8l0,0
						c0.3-0.5,0.8-0.8,1.4-0.8c1,0,1.6,0.8,1.6,2V13.4L115.5,13.4z"/>
					<path class="st3" d="M121.2,11.3H118c0,0.9,0.6,1.4,1.5,1.4c0.5,0,0.9-0.1,1.3-0.2l0.2,0.7c-0.4,0.2-1,0.3-1.6,0.3
						c-1.5,0-2.3-0.9-2.3-2.4c0-1.4,0.9-2.5,2.2-2.5c1.2,0,2,0.9,2,2.2C121.2,11,121.2,11.2,121.2,11.3z M120.2,10.6
						c0-0.7-0.4-1.2-1-1.2s-1.1,0.5-1.1,1.2H120.2z"/>
				</g>
			</g>
		</g>
	</g>
	<g id="Amazon" class="st0">
		<g class="st2">
			<path class="st3" d="M37.7,31c-3.2,2.4-7.9,3.7-12,3.7c-5.7,0-10.8-2.1-14.7-5.6c-0.3-0.3,0-0.6,0.3-0.4
				c4.2,2.4,9.3,3.9,14.7,3.9c3.6,0,7.5-0.7,11.2-2.3C37.8,30.1,38.2,30.6,37.7,31"/>
			<path class="st3" d="M39.1,29.5c-0.4-0.5-2.7-0.3-3.8-0.1c-0.3,0-0.4-0.2-0.1-0.4c1.9-1.3,4.9-0.9,5.3-0.5
				c0.4,0.4-0.1,3.5-1.8,4.9c-0.3,0.2-0.5,0.1-0.4-0.2C38.6,32.2,39.5,30,39.1,29.5"/>
			<path class="st3" d="M35.3,19.7v-1.3c0-0.2,0.1-0.3,0.3-0.3h5.7c0.2,0,0.3,0.1,0.3,0.3v1.1c0,0.2-0.2,0.4-0.4,0.8l-2.9,4.2
				c1.1,0,2.2,0.1,3.2,0.7c0.2,0.1,0.3,0.3,0.3,0.5v1.4c0,0.2-0.2,0.4-0.4,0.3c-1.7-0.9-4.1-1-6,0c-0.2,0.1-0.4-0.1-0.4-0.3v-1.3
				c0-0.2,0-0.6,0.2-0.9l3.4-4.9h-3C35.5,20,35.3,19.9,35.3,19.7"/>
			<path class="st3" d="M14.6,27.6h-1.7c-0.2,0-0.3-0.1-0.3-0.3v-8.9c0-0.2,0.1-0.3,0.3-0.3h1.6c0.2,0,0.3,0.1,0.3,0.3v1.2l0,0
				c0.4-1.1,1.2-1.6,2.3-1.6c1.1,0,1.8,0.5,2.2,1.6c0.4-1.1,1.4-1.6,2.4-1.6c0.7,0,1.5,0.3,2,1s0.4,1.8,0.4,2.8v5.6
				c0,0.2-0.1,0.3-0.3,0.3h-1.7c-0.2,0-0.3-0.1-0.3-0.3v-4.7c0-0.4,0-1.3,0-1.7c-0.1-0.6-0.5-0.8-1-0.8c-0.4,0-0.9,0.3-1,0.7
				c-0.2,0.4-0.2,1.2-0.2,1.7v4.7c0,0.2-0.1,0.3-0.3,0.3h-1.7c-0.2,0-0.3-0.1-0.3-0.3v-4.7c0-1,0.2-2.4-1.1-2.4
				c-1.2,0-1.2,1.4-1.2,2.4v4.7C15,27.5,14.8,27.6,14.6,27.6"/>
			<path class="st3" d="M46.6,18c2.6,0,4,2.2,4,5c0,2.7-1.5,4.9-4,4.9s-3.9-2.2-3.9-4.9C42.7,20.1,44.1,18,46.6,18 M46.6,19.8
				c-1.3,0-1.4,1.7-1.4,2.8c0,1.1,0,3.4,1.3,3.4s1.4-1.9,1.4-3c0-0.7,0-1.6-0.3-2.4C47.5,20,47.1,19.8,46.6,19.8z"/>
			<path class="st3" d="M53.8,27.6h-1.7c-0.2,0-0.3-0.1-0.3-0.3v-8.9c0-0.2,0.2-0.3,0.3-0.3h1.6c0.2,0,0.3,0.1,0.3,0.2v1.4l0,0
				c0.5-1.2,1.2-1.8,2.4-1.8c0.8,0,1.5,0.3,2,1s0.5,1.9,0.5,2.8v5.6c0,0.2-0.2,0.3-0.3,0.3h-1.7c-0.2,0-0.3-0.1-0.3-0.3v-4.8
				c0-1,0.1-2.4-1.1-2.4c-0.4,0-0.8,0.3-1,0.7c-0.2,0.5-0.3,1.1-0.3,1.7v4.8C54.2,27.5,54,27.6,53.8,27.6"/>
			<path class="st3" d="M30.8,23.4c0,0.7,0,1.2-0.3,1.8c-0.3,0.5-0.7,0.8-1.2,0.8c-0.7,0-1.1-0.5-1.1-1.3c0-1.5,1.3-1.7,2.6-1.7
				V23.4 M32.6,27.6c-0.1,0.1-0.3,0.1-0.4,0c-0.6-0.5-0.7-0.7-1-1.2c-0.9,1-1.6,1.3-2.9,1.3c-1.5,0-2.6-0.9-2.6-2.7
				c0-1.4,0.8-2.4,1.8-2.8c0.9-0.4,2.2-0.5,3.2-0.6v-0.2c0-0.4,0-0.9-0.2-1.3c-0.2-0.3-0.6-0.4-1-0.4c-0.7,0-1.2,0.3-1.4,1
				c0,0.2-0.1,0.3-0.3,0.3l-1.7-0.2c-0.1,0-0.3-0.1-0.3-0.4c0.4-2,2.2-2.6,3.9-2.6c0.8,0,1.9,0.2,2.6,0.9c0.8,0.8,0.8,1.8,0.8,3v2.7
				c0,0.8,0.3,1.2,0.7,1.6c0.1,0.2,0.1,0.3,0,0.5C33.5,26.8,32.9,27.3,32.6,27.6L32.6,27.6z"/>
			<path class="st3" d="M8.2,23.4c0,0.7,0,1.2-0.3,1.8C7.6,25.7,7.1,26,6.6,26c-0.7,0-1.1-0.5-1.1-1.3c0-1.5,1.3-1.7,2.6-1.7
				L8.2,23.4 M9.9,27.6c-0.1,0.1-0.3,0.1-0.4,0c-0.6-0.5-0.7-0.7-1-1.2c-0.9,1-1.6,1.3-2.8,1.3c-1.5,0-2.6-0.9-2.6-2.7
				c0-1.4,0.8-2.4,1.8-2.8c0.9-0.4,2.2-0.5,3.2-0.6v-0.2c0-0.4,0-0.9-0.2-1.3c-0.2-0.3-0.6-0.4-1-0.4c-0.7,0-1.2,0.3-1.4,1
				c0,0.2-0.1,0.3-0.3,0.3l-1.7-0.2c-0.1,0-0.3-0.1-0.3-0.4c0.4-2,2.2-2.6,3.9-2.6c0.8,0,1.9,0.2,2.6,0.9c0.8,0.8,0.8,1.8,0.8,3v2.7
				c0,0.8,0.3,1.2,0.7,1.6c0.1,0.2,0.1,0.3,0,0.5C10.9,26.8,10.3,27.3,9.9,27.6L9.9,27.6z"/>
			<path class="st3" d="M65.9,27.7c-0.8,0-1.5-0.3-2-0.8s-0.8-1.2-0.8-2c0-0.9,0.3-1.6,1-2.1c0.6-0.5,1.5-0.8,2.6-0.8
				c0.6,0,1.3,0.1,2.1,0.3v-1.1c0-0.6-0.1-1-0.4-1.3c-0.3-0.2-0.7-0.4-1.4-0.4c-0.4,0-0.8,0-1.3,0.1s-0.9,0.2-1.4,0.3
				c-0.1,0-0.2,0.1-0.3,0.1c-0.2,0-0.2-0.1-0.2-0.3V19c0-0.2,0-0.3,0.1-0.4c0-0.1,0.2-0.1,0.4-0.2c0.9-0.4,2-0.5,3.1-0.5
				c1.2,0,2,0.2,2.6,0.7s0.8,1.2,0.8,2.3V27c0,0.3-0.1,0.4-0.4,0.4h-1c-0.3,0-0.4-0.1-0.4-0.4l-0.1-0.5c-0.4,0.4-0.9,0.6-1.4,0.8
				C66.9,27.6,66.4,27.7,65.9,27.7 M66.5,26.2c0.3,0,0.7-0.1,1.1-0.2s0.8-0.4,1.1-0.6v-1.7c-0.6-0.1-1.2-0.2-1.7-0.2
				c-1.3,0-1.9,0.5-1.9,1.5c0,0.4,0.1,0.7,0.4,1C65.8,26.1,66.1,26.2,66.5,26.2z"/>
			<path class="st3" d="M73.1,31.2c-0.3,0-0.4-0.1-0.4-0.4V18.7c0-0.3,0.1-0.4,0.4-0.4h1c0.3,0,0.4,0.1,0.5,0.4l0.1,0.6
				c0.4-0.4,0.9-0.7,1.4-0.9c0.5-0.2,1-0.3,1.6-0.3c1.1,0,2.1,0.4,2.7,1.3c0.7,0.9,1,2,1,3.4c0,1-0.2,1.9-0.5,2.6s-0.8,1.3-1.4,1.7
				c-0.6,0.4-1.3,0.6-2,0.6c-0.5,0-1-0.1-1.5-0.3c-0.5-0.2-0.9-0.4-1.2-0.7v4.1c0,0.3-0.1,0.4-0.4,0.4L73.1,31.2 M76.9,26
				c0.8,0,1.3-0.3,1.7-0.8c0.4-0.5,0.6-1.3,0.6-2.4S79,21,78.6,20.4c-0.4-0.5-0.9-0.8-1.7-0.8c-0.8,0-1.5,0.2-2.2,0.7v4.9
				C75.5,25.8,76.2,26,76.9,26z"/>
			<path class="st3" d="M83.3,31.2c-0.3,0-0.4-0.1-0.4-0.4V18.7c0-0.3,0.1-0.4,0.4-0.4h1c0.3,0,0.4,0.1,0.5,0.4l0.1,0.6
				c0.4-0.4,0.9-0.7,1.4-0.9c0.5-0.2,1-0.3,1.6-0.3c1.1,0,2.1,0.4,2.7,1.3c0.7,0.9,1,2,1,3.4c0,1-0.2,1.9-0.5,2.6s-0.8,1.3-1.4,1.7
				c-0.6,0.4-1.3,0.6-2,0.6c-0.5,0-1-0.1-1.5-0.3c-0.5-0.2-0.9-0.4-1.2-0.7v4.1c0,0.3-0.1,0.4-0.4,0.4L83.3,31.2 M87.2,26
				c0.8,0,1.3-0.3,1.7-0.8c0.4-0.5,0.6-1.3,0.6-2.4s-0.2-1.8-0.6-2.4c-0.4-0.5-0.9-0.8-1.7-0.8c-0.8,0-1.5,0.2-2.2,0.7v4.9
				C85.7,25.8,86.4,26,87.2,26z"/>
			<path class="st3" d="M95.6,27.7c-0.9,0-1.8-0.2-2.6-0.5c-0.2-0.1-0.3-0.1-0.4-0.2s-0.1-0.2-0.1-0.4V26c0-0.2,0.1-0.4,0.3-0.4
				c0.1,0,0.3,0,0.5,0.1c0.9,0.2,1.6,0.4,2.3,0.4c0.6,0,1-0.1,1.3-0.3c0.3-0.2,0.4-0.5,0.4-0.9c0-0.3-0.1-0.5-0.3-0.6
				c-0.2-0.2-0.5-0.3-0.9-0.5l-1.5-0.6c-1.3-0.5-2-1.4-2-2.5c0-0.8,0.3-1.5,0.9-2S95,18,96,18c0.7,0,1.5,0.1,2.3,0.4
				c0.2,0.1,0.3,0.1,0.4,0.2s0.1,0.2,0.1,0.4v0.6c0,0.1,0,0.2-0.1,0.3c0,0-0.1,0.1-0.2,0.1s-0.2,0-0.5-0.1c-0.8-0.2-1.4-0.3-1.8-0.3
				c-0.6,0-1,0.1-1.2,0.2c-0.3,0.2-0.4,0.4-0.4,0.8c0,0.3,0.1,0.5,0.3,0.6c0.2,0.2,0.5,0.3,1,0.5l1.4,0.5c0.7,0.3,1.2,0.6,1.6,1
				c0.3,0.4,0.5,0.9,0.5,1.5c0,0.9-0.3,1.6-1,2.1C97.7,27.5,96.8,27.7,95.6,27.7"/>
			<path class="st3" d="M104.4,27.6c-0.9,0-1.7-0.2-2.1-0.7c-0.5-0.4-0.7-1.1-0.7-2v-5h-1.2c-0.3,0-0.4-0.1-0.4-0.4V19
				c0-0.2,0-0.3,0.1-0.3c0.1-0.1,0.2-0.1,0.3-0.1l1.2-0.2l0.3-2.2c0-0.1,0.1-0.2,0.1-0.3c0.1-0.1,0.2-0.1,0.3-0.1h0.9
				c0.3,0,0.4,0.1,0.4,0.4v2.1h2.2c0.3,0,0.4,0.1,0.4,0.4v0.8c0,0.3-0.1,0.4-0.4,0.4h-2.2v4.9c0,0.4,0.1,0.7,0.3,0.9
				c0.2,0.2,0.5,0.3,1,0.3c0.3,0,0.5,0,0.7-0.1c0.2,0,0.3-0.1,0.4-0.1c0.2,0,0.3,0.1,0.3,0.3v0.6c0,0.2,0,0.3-0.1,0.4
				s-0.2,0.1-0.4,0.2C105.4,27.5,104.9,27.6,104.4,27.6"/>
			<path class="st3" d="M111.4,27.7c-1.4,0-2.5-0.4-3.3-1.3s-1.2-2.1-1.2-3.6s0.4-2.7,1.2-3.6c0.8-0.9,1.9-1.3,3.3-1.3
				s2.5,0.4,3.3,1.3s1.2,2,1.2,3.6s-0.4,2.7-1.2,3.6C113.9,27.3,112.8,27.7,111.4,27.7 M111.4,26.1c1.5,0,2.3-1.1,2.3-3.2
				s-0.8-3.2-2.3-3.2s-2.3,1.1-2.3,3.2S109.9,26.1,111.4,26.1z"/>
			<path class="st3" d="M117.7,27.5c-0.3,0-0.4-0.1-0.4-0.4v-8.4c0-0.3,0.1-0.4,0.4-0.4h1c0.2,0,0.3,0,0.4,0.1
				c0.1,0,0.1,0.1,0.1,0.3l0.2,1c0.5-0.5,0.9-0.9,1.4-1.1c0.4-0.2,0.9-0.3,1.4-0.3h0.1c0.2,0,0.3,0,0.4,0s0.2,0.1,0.2,0.2
				s0.1,0.2,0.1,0.4v1c0,0.3-0.1,0.4-0.3,0.4c-0.1,0-0.2,0-0.3,0c-0.1,0-0.3,0-0.4,0c-0.9,0-1.7,0.2-2.4,0.7v6.3
				c0,0.3-0.1,0.4-0.4,0.4L117.7,27.5"/>
			<path class="st3" d="M128,27.7c-1.5,0-2.7-0.4-3.4-1.2c-0.8-0.8-1.2-2-1.2-3.6s0.4-2.8,1.1-3.6c0.8-0.9,1.8-1.3,3.2-1.3
				c1.2,0,2.1,0.3,2.7,1c0.6,0.6,0.9,1.6,0.9,2.7c0,0.4,0,0.8-0.1,1.3c0,0.2-0.1,0.3-0.1,0.3c-0.1,0.1-0.2,0.1-0.3,0.1h-5.6
				c0,0.9,0.3,1.6,0.8,2s1.2,0.6,2.2,0.6c0.7,0,1.5-0.1,2.3-0.3c0.1,0,0.2,0,0.2-0.1c0.1,0,0.1,0,0.1,0c0.2,0,0.3,0.1,0.3,0.4v0.6
				c0,0.2,0,0.3-0.1,0.4s-0.2,0.2-0.4,0.2C129.9,27.6,129,27.7,128,27.7 M129.5,22v-0.1c0-0.7-0.2-1.3-0.5-1.7
				c-0.3-0.4-0.8-0.6-1.4-0.6s-1.2,0.2-1.6,0.6s-0.6,1-0.7,1.8L129.5,22L129.5,22z"/>
			<path class="st3" d="M45.2,12.6c-0.4,0-0.8-0.1-1.1-0.4c-0.3-0.3-0.4-0.6-0.4-1c0-0.5,0.2-0.8,0.5-1.1s0.8-0.4,1.3-0.4
				c0.4,0,0.7,0.1,1.2,0.2V9.3c0-0.3-0.1-0.6-0.2-0.7c-0.2-0.1-0.4-0.2-0.8-0.2c-0.4,0-0.9,0.1-1.3,0.2c-0.1,0-0.2,0.1-0.3,0.1
				S44,8.6,44,8.5V8.2c0-0.1,0-0.1,0-0.2c0,0,0.1-0.1,0.2-0.1c0.2-0.1,0.4-0.2,0.7-0.2s0.6-0.1,0.9-0.1c0.6,0,1,0.1,1.3,0.4
				c0.3,0.2,0.4,0.6,0.4,1.1v3.2c0,0.1-0.1,0.2-0.2,0.2H47c-0.1,0-0.2-0.1-0.2-0.2V12c-0.2,0.2-0.5,0.3-0.8,0.5
				C45.7,12.6,45.5,12.6,45.2,12.6 M45.4,11.9c0.2,0,0.4,0,0.7-0.1c0.2-0.1,0.4-0.2,0.7-0.4v-1c-0.3-0.1-0.7-0.1-1-0.1
				c-0.7,0-1.1,0.3-1.1,0.8c0,0.2,0.1,0.4,0.2,0.6C45,11.9,45.2,11.9,45.4,11.9z"/>
			<path class="st3" d="M50.2,12.5c-0.1,0-0.2,0-0.2,0s-0.1-0.1-0.1-0.2l-1.7-4.2V8V7.9c0-0.1,0-0.1,0.1-0.1h0.6c0.1,0,0.2,0,0.2,0
				s0.1,0.1,0.1,0.2l1.3,3.7L51.7,8c0-0.1,0.1-0.2,0.1-0.2s0.1,0,0.2,0h0.5c0.1,0,0.1,0,0.1,0.1V8v0.1L51,12.3
				c0,0.1-0.1,0.2-0.1,0.2s-0.1,0-0.2,0H50.2"/>
			<path class="st3" d="M54.6,12.6c-0.4,0-0.8-0.1-1.1-0.4c-0.3-0.3-0.4-0.6-0.4-1c0-0.5,0.2-0.8,0.5-1.1s0.8-0.4,1.3-0.4
				c0.4,0,0.7,0.1,1.2,0.2V9.3c0-0.3-0.1-0.6-0.2-0.7c-0.2-0.1-0.4-0.2-0.8-0.2c-0.4,0-0.9,0.1-1.3,0.2c-0.1,0-0.2,0.1-0.3,0.1
				s-0.1-0.1-0.1-0.2V8.2c0-0.1,0-0.1,0-0.2c0,0,0.1-0.1,0.2-0.1c0.2-0.1,0.4-0.2,0.7-0.2c0.3-0.1,0.6-0.1,0.9-0.1
				c0.6,0,1,0.1,1.3,0.4C56.8,8.2,57,8.6,57,9.1v3.2c0,0.1-0.1,0.2-0.2,0.2h-0.4c-0.1,0-0.2-0.1-0.2-0.2V12
				c-0.2,0.2-0.5,0.3-0.7,0.5C55.1,12.6,54.8,12.6,54.6,12.6 M54.8,11.9c0.2,0,0.4,0,0.7-0.1s0.4-0.2,0.6-0.4v-1
				c-0.3-0.1-0.7-0.1-1-0.1c-0.7,0-1.1,0.3-1.1,0.8c0,0.2,0.1,0.4,0.2,0.6C54.4,11.9,54.6,11.9,54.8,11.9z"/>
			<path class="st3" d="M58.7,6.9c-0.2,0-0.3-0.1-0.4-0.2c-0.1-0.1-0.2-0.2-0.2-0.4s0.1-0.3,0.2-0.4c0.1-0.1,0.2-0.2,0.4-0.2
				s0.3,0.1,0.4,0.2c0.1,0.1,0.2,0.2,0.2,0.4s-0.1,0.3-0.2,0.4C59.1,6.8,58.9,6.9,58.7,6.9 M58.5,12.5c-0.1,0-0.2-0.1-0.2-0.2V7.9
				c0-0.1,0.1-0.2,0.2-0.2H59c0.1,0,0.2,0.1,0.2,0.2v4.4c0,0.1-0.1,0.2-0.2,0.2H58.5L58.5,12.5z"/>
			<path class="st3" d="M61.5,12.6c-0.3,0-0.6-0.1-0.8-0.3s-0.3-0.5-0.3-0.8V5.7c0-0.1,0.1-0.2,0.2-0.2h0.6c0.1,0,0.2,0.1,0.2,0.2
				v5.7c0,0.1,0,0.3,0.1,0.3c0.1,0.1,0.2,0.1,0.3,0.1h0.1H62c0.1,0,0.1,0,0.1,0v0.1v0.3c0,0.1,0,0.1,0,0.1L62,12.4
				C61.9,12.5,61.7,12.6,61.5,12.6"/>
			<path class="st3" d="M64.2,12.6c-0.4,0-0.8-0.1-1.1-0.4c-0.3-0.3-0.4-0.6-0.4-1c0-0.5,0.2-0.8,0.5-1.1s0.8-0.4,1.3-0.4
				c0.4,0,0.7,0.1,1.2,0.2V9.3c0-0.3-0.1-0.6-0.2-0.7c-0.2-0.1-0.4-0.2-0.8-0.2s-0.9,0.1-1.3,0.2c-0.1,0-0.2,0.1-0.3,0.1
				S63,8.6,63,8.5V8.2c0-0.1,0-0.1,0-0.2c0,0,0.1-0.1,0.2-0.1c0.2-0.1,0.4-0.2,0.7-0.2c0.3-0.1,0.6-0.1,0.9-0.1c0.6,0,1,0.1,1.3,0.4
				c0.3,0.2,0.4,0.6,0.4,1.1v3.2c0,0.1-0.1,0.2-0.2,0.2H66c-0.1,0-0.2-0.1-0.2-0.2V12c-0.2,0.2-0.5,0.3-0.7,0.5
				C64.7,12.6,64.5,12.6,64.2,12.6 M64.4,11.9c0.2,0,0.4,0,0.7-0.1c0.2-0.1,0.4-0.2,0.7-0.4v-1c-0.3-0.1-0.7-0.1-1-0.1
				c-0.7,0-1.1,0.3-1.1,0.8c0,0.2,0.1,0.4,0.2,0.6C64,11.9,64.2,11.9,64.4,11.9z"/>
			<path class="st3" d="M70.3,12.6c-0.6,0-1.1-0.2-1.5-0.6l-0.1,0.3c0,0.1-0.1,0.2-0.2,0.2h-0.4c-0.1,0-0.2-0.1-0.2-0.2V5.7
				c0-0.1,0.1-0.2,0.2-0.2h0.6c0.1,0,0.2,0.1,0.2,0.2v2.5c0.5-0.4,1-0.6,1.5-0.6c0.6,0,1.1,0.2,1.4,0.7c0.4,0.4,0.5,1,0.5,1.8
				s-0.2,1.4-0.6,1.9C71.4,12.4,70.9,12.6,70.3,12.6 M70,11.9c0.9,0,1.3-0.6,1.3-1.8c0-0.6-0.1-1-0.3-1.3c-0.2-0.3-0.5-0.4-1-0.4
				c-0.4,0-0.9,0.1-1.3,0.4v2.6C69.2,11.7,69.6,11.9,70,11.9z"/>
			<path class="st3" d="M74.3,12.6c-0.3,0-0.6-0.1-0.8-0.3c-0.2-0.2-0.3-0.5-0.3-0.8V5.7c0-0.1,0.1-0.2,0.2-0.2H74
				c0.1,0,0.2,0.1,0.2,0.2v5.7c0,0.1,0,0.3,0.1,0.3c0.1,0.1,0.2,0.1,0.3,0.1h0.1h0.1c0.1,0,0.1,0,0.1,0v0.1v0.3c0,0.1,0,0.1,0,0.1
				l-0.1,0.1C74.7,12.5,74.5,12.6,74.3,12.6"/>
			<path class="st3" d="M78,12.7c-0.8,0-1.4-0.2-1.8-0.6c-0.4-0.4-0.6-1.1-0.6-1.9c0-0.8,0.2-1.4,0.6-1.9c0.4-0.4,0.9-0.7,1.7-0.7
				c0.6,0,1.1,0.2,1.4,0.5s0.5,0.8,0.5,1.4c0,0.2,0,0.4,0,0.6c0,0.1,0,0.1-0.1,0.1h-0.1h-3c0,0.5,0.1,0.9,0.4,1.2s0.6,0.4,1.2,0.4
				c0.2,0,0.4,0,0.5,0c0.2,0,0.4-0.1,0.7-0.2h0.1h0.1c0.1,0,0.1,0.1,0.1,0.2v0.3c0,0.1,0,0.1,0,0.2c0,0-0.1,0.1-0.2,0.1
				c-0.2,0.1-0.4,0.1-0.7,0.2C78.5,12.6,78.2,12.7,78,12.7 M78.9,9.7c0-0.1,0-0.1,0-0.2c0-0.4-0.1-0.7-0.3-0.9
				c-0.2-0.2-0.4-0.3-0.8-0.3s-0.7,0.1-0.9,0.4c-0.2,0.2-0.3,0.6-0.4,1.1h2.4V9.7z"/>
			<path class="st3" d="M84.2,12.6c-0.4,0-0.8-0.1-1.1-0.4c-0.3-0.3-0.4-0.6-0.4-1c0-0.5,0.2-0.8,0.5-1.1s0.8-0.4,1.3-0.4
				c0.4,0,0.7,0.1,1.2,0.2V9.3c0-0.3-0.1-0.6-0.2-0.7c-0.2-0.1-0.4-0.2-0.8-0.2s-0.9,0.1-1.3,0.2c-0.1,0-0.2,0.1-0.3,0.1
				C83,8.7,83,8.6,83,8.5V8.2c0-0.1,0-0.1,0-0.2l0.1-0.1c0.2-0.1,0.4-0.2,0.7-0.2c0.3-0.1,0.6-0.1,0.9-0.1c0.6,0,1,0.1,1.3,0.4
				c0.3,0.2,0.4,0.6,0.4,1.1v3.2c0,0.1-0.1,0.2-0.2,0.2H86c-0.1,0-0.2-0.1-0.2-0.2V12c-0.2,0.2-0.5,0.3-0.7,0.5
				C84.7,12.6,84.5,12.6,84.2,12.6 M84.4,11.9c0.2,0,0.4,0,0.6-0.1s0.4-0.2,0.6-0.4v-1c-0.3-0.1-0.7-0.1-1-0.1
				c-0.7,0-1.1,0.3-1.1,0.8c0,0.2,0.1,0.4,0.2,0.6C84,11.9,84.2,11.9,84.4,11.9z"/>
			<path class="st3" d="M89.5,12.6c-0.9,0-1.3-0.4-1.3-1.3V8.5h-0.7c-0.1,0-0.2-0.1-0.2-0.2V8c0-0.1,0-0.1,0-0.1s0.1-0.1,0.2-0.1
				l0.7-0.1l0.1-1.2c0-0.1,0.1-0.2,0.2-0.2h0.4c0.1,0,0.2,0.1,0.2,0.2v1.2h1.2c0.1,0,0.2,0.1,0.2,0.2v0.4c0,0.1-0.1,0.2-0.2,0.2
				h-1.2v2.7c0,0.2,0.1,0.4,0.2,0.5s0.3,0.1,0.5,0.1c0.1,0,0.3,0,0.4,0s0.2,0,0.2,0c0.1,0,0.1,0,0.1,0v0.1v0.3c0,0.1,0,0.1,0,0.2
				c0,0-0.1,0.1-0.2,0.1C90.1,12.5,89.8,12.6,89.5,12.6"/>
		</g>
	</g>
</g>
<g id="Ebene_2_00000054256641368032092760000003286060364775624374_">
	<g id="ps5_logo">
		<path id="ps5" class="st5" d="M127.9,29.5h-0.2v-1.7h-0.6v-0.2h1.4v0.2h-0.6V29.5z M129.6,29.1L129.6,29.1l0.5-1.5h0.4v1.9h-0.3
			v-1.6l0,0l-0.6,1.6h-0.2l-0.6-1.6l0,0v1.6h-0.2v-1.9h0.4L129.6,29.1z M124.7,13.1h-23.3v6.3c0,0-0.1,2.4,2.9,2.4h14.3
			c0.6,0,1.1,0.1,1.6,0.3c0.8,0.4,1.7,1.1,1.7,2.5c0,1.3-0.6,2.1-1.3,2.5c-0.5,0.3-1.1,0.5-1.7,0.5h-17.5v1.8h19.5
			c0,0,4.4-0.2,4.4-4.7c0-2.3-1.4-3.5-2.6-4c-0.8-0.4-1.6-0.5-2.5-0.5h-14.1c-0.2,0-0.5-0.1-0.7-0.2c-0.3-0.2-0.6-0.5-0.6-1.1v-4
			h19.9C124.7,14.9,124.7,13.1,124.7,13.1z M72,27.7v1.8h9.9c1.2,0,2.3-0.4,3.2-1.2c0.9-0.8,1.5-2,1.4-3.2v-7.5c0-0.8,0.4-1.6,1-2.2
			c0.5-0.4,1-0.5,1.6-0.5h8.6v-1.7H87.5c0,0-4.4,0.1-4.4,4.8v7c0,0.6-0.1,1.1-0.4,1.6c-0.4,0.7-1.3,1.2-2.1,1.2L72,27.7z M49.2,13.1
			v1.7h17.6c0.5,0,1,0.1,1.4,0.3c0.7,0.3,1.5,1,1.5,2.4c0,1.3-0.8,2-1.5,2.3c-0.5,0.2-0.9,0.3-1.4,0.3H53.7c-0.8,0-1.5,0.2-2.2,0.5
			c-1.1,0.5-2.3,1.8-2.3,4v4.8h3.4v-4.8c0-0.3,0.1-0.6,0.2-0.9c0.3-0.7,1-1.9,2.6-1.9h13.2c0.4,0,0.9-0.1,1.3-0.2
			c1.2-0.3,3.2-1.3,3.2-4.2c0-4.4-4.4-4.4-4.4-4.4H49.2V13.1z"/>
	</g>
</g>
</svg>
