<?xml version="1.0" encoding="utf-8"?>
<!-- Generator: Adobe Illustrator 16.0.0, SVG Export Plug-In . SVG Version: 6.00 Build 0)  -->
<!DOCTYPE svg PUBLIC "-//W3C//DTD SVG 1.1//EN" "http://www.w3.org/Graphics/SVG/1.1/DTD/svg11.dtd">
<svg version="1.1" id="Ebene_1" xmlns="http://www.w3.org/2000/svg" xmlns:xlink="http://www.w3.org/1999/xlink" x="0px" y="0px"
	 width="135px" height="40px" viewBox="0 0 135 40" enable-background="new 0 0 135 40" xml:space="preserve">
<g id="BG" display="none">
	<rect x="-1" y="-1.5" display="inline" fill="#444444" width="137.75" height="44"/>
</g>
<g>
	<g>
		<path fill="#FFFFFF" d="M18.1,12.9V9.4c0-0.6-0.3-0.8-0.8-0.8h-0.9v5.2h0.9C17.8,13.8,18.1,13.5,18.1,12.9z"/>
		<path fill="#FFFFFF" d="M14.8,25.3c0.3,0,0.6,0,0.9,0c-0.2-0.4-0.3-0.8-0.5-1.2c-0.2,0.4-0.3,0.8-0.5,1.2
			C14.7,25.3,14.7,25.3,14.8,25.3z"/>
		<path fill="#FFFFFF" d="M32.9,1.7H6.3c-2.2,0-2.9,0.8-2.9,2.9v25.6c0,0.2,0,0.5,0,0.7c0,0.5,0.1,0.9,0.5,1.4l0.5,0.4
			c0.2,0.1,0.4,0.2,0.7,0.3l13.1,5.4c0.7,0.3,1,0.4,1.5,0.4l0,0l0,0l0,0l0,0c0.5,0,0.8-0.1,1.5-0.4L34.3,33c0.3-0.1,0.4-0.2,0.7-0.3
			c0,0,0.4-0.3,0.5-0.4c0.4-0.5,0.4-1,0.5-1.4c0-0.2,0-0.4,0-0.7V4.6C35.8,2.5,35,1.7,32.9,1.7z M21.2,6.6h2.2v14.2h-2.2V6.6z
			 M20.3,24.3L20.3,24.3c0.4-0.5,0.7-1.1,1.1-1.6c0.4,0,0.8,0,1.2,0c0,1.4,0,2.9,0,4.3c-0.4,0-0.8,0-1.1,0c0-0.8,0-1.7,0-2.5
			c-0.4,0.6-0.8,1.1-1.1,1.7l0,0c-0.4-0.6-0.7-1.1-1.1-1.7c0,0.8,0,1.7,0,2.5c-0.4,0-0.8,0-1.1,0c0-1.4,0-2.9,0-4.3
			c0.4,0,0.8,0,1.2,0C19.6,23.2,19.9,23.8,20.3,24.3z M14.1,6.6h3.5c1.8,0,2.7,0.9,2.7,2.6V13c0,1.8-0.9,2.6-2.7,2.6h-1.3v5.2h-2.2
			C14.1,20.8,14.1,6.6,14.1,6.6z M8.1,6.6H13v2h-2.7v4h2.6v2h-2.6v4.3H13v2H8.1V6.6z M12.3,24.5c0,0.6,0,1.2,0,1.9
			c-5.3,3.4-5.5-6.3-0.1-3.2c-0.2,0.3-0.5,0.5-0.7,0.8c-2.4-2-3,3.1-0.3,1.8c0-0.2,0-0.4,0-0.5c-0.3,0-0.6,0-0.9,0
			c0-0.3,0-0.6,0-0.9C11,24.5,11.7,24.5,12.3,24.5L12.3,24.5z M13.2,27c-0.1,0-0.3,0-0.4,0c0.6-1.4,1.2-2.9,1.8-4.3
			c0.4,0,0.7,0,1.1,0c0.6,1.4,1.2,2.9,1.8,4.3c-0.4,0-0.8,0-1.2,0c-0.1-0.3-0.2-0.5-0.3-0.8c-0.6,0-1.1,0-1.7,0
			c-0.1,0.3-0.2,0.5-0.3,0.8C13.7,27,13.4,27,13.2,27z M19.5,35.8l-6.2-2.1h12.6L19.5,35.8z M26.9,26.1c0,0.3,0,0.6,0,0.9
			c-1.2,0-2.3,0-3.5,0c0-1.4,0-2.9,0-4.3c1.1,0,2.3,0,3.4,0c0,0.3,0,0.6,0,1c-0.8,0-1.5,0-2.3,0c0,0.2,0,0.5,0,0.7
			c0.7,0,1.4,0,2.1,0c0,0.3,0,0.6,0,0.9c-0.7,0-1.4,0-2.1,0c0,0.2,0,0.5,0,0.7C25.4,26,26.2,26,26.9,26.1L26.9,26.1z M24.6,18.3V9.1
			c0-1.8,0.9-2.6,2.7-2.6h1.1c1.8,0,2.6,0.9,2.6,2.6V12h-2.2V9.2c0-0.6-0.3-0.8-0.8-0.8h-0.4c-0.6,0-0.8,0.3-0.8,0.8v9
			c0,0.6,0.3,0.8,0.8,0.8H28c0.6,0,0.8-0.3,0.8-0.8V15H31v3.3c0,1.8-0.9,2.6-2.7,2.6h-1.1C25.5,21,24.6,20.1,24.6,18.3z M31.1,25.7
			c0,1.8-2.7,1.6-3.7,0.7c0.2-0.3,0.4-0.5,0.6-0.8c0.4,0.3,0.9,0.5,1.5,0.5s0.6-0.6,0-0.7c-0.5-0.1-1-0.2-1.4-0.5
			c-1-0.6-0.5-2.1,0.6-2.3c0.8-0.2,1.6,0,2.3,0.5c-0.2,0.3-0.4,0.5-0.6,0.8c-0.3-0.2-0.7-0.4-1.1-0.4c-0.4-0.1-0.8,0.3-0.4,0.6
			C29.7,24.5,31.1,24.5,31.1,25.7z"/>
	</g>
	<g>
		<path fill="#FFFFFF" d="M42.2,22.9h4.9c0,2,2.1,2.3,3.6,2.3c1.7,0,2.5-0.6,2.5-1.5s-1.1-1.3-2.9-1.9l-3.2-1.1
			c-1.4-0.5-4.3-1.7-4.3-5.3c0-3.7,2.9-6.2,7.6-6.2c4.4,0,7.6,2.2,7.6,6.7h-5c0-1.6-1.3-2.3-2.9-2.3c-1.5,0-2.4,0.6-2.4,1.5
			s0.7,1.2,2,1.6l3.2,1.1c3.2,1.1,5.3,2.2,5.3,5.6c0,3.6-2.5,6.2-7.8,6.2C45.8,29.6,42.2,27.3,42.2,22.9z"/>
		<path fill="#FFFFFF" d="M65.5,13.8h-5.3V9.6h15.5v4.2h-5.3v15.4h-4.9C65.5,29.2,65.5,13.8,65.5,13.8z"/>
		<path fill="#FFFFFF" d="M78,22.6v-6.2c0-4.5,3.2-7.1,8.1-7.1s8.1,2.6,8.1,7.1v6.2c0,4.5-3.2,7.1-8.1,7.1C81.2,29.6,78,27,78,22.6z
			 M89.3,22.7v-6.6c0-1.1-0.9-2.5-3.2-2.5c-2.3,0-3.2,1.4-3.2,2.5v6.6c0,1.1,0.9,2.5,3.2,2.5S89.3,23.8,89.3,22.7z"/>
		<path fill="#FFFFFF" d="M98.5,9.6h8.7c4.3,0,6.4,2.3,6.4,6.2c0,2.5-1.1,4.6-3,5.7l3.7,6.1v1.6h-4.7l-4.1-7.2h-2v7.2h-4.9V9.6H98.5
			z M106.4,18.1c1.4,0,2.3-0.4,2.3-2.2c0-1.6-0.9-2.1-2.3-2.1h-3V18h3V18.1z"/>
		<path fill="#FFFFFF" d="M118,9.6h13.3v4.2h-8.4v3.6h7.1v4h-7.1V25h8.5v4.2H118V9.6z"/>
	</g>
</g>
</svg>
