<?xml version="1.0" encoding="utf-8"?>
<!-- Generator: Adobe Illustrator 24.0.2, SVG Export Plug-In . SVG Version: 6.00 Build 0)  -->
<svg version="1.1" id="Ebene_1" xmlns="http://www.w3.org/2000/svg" xmlns:xlink="http://www.w3.org/1999/xlink" x="0px" y="0px"
	 width="135px" height="40px" viewBox="0 0 135 40" enable-background="new 0 0 135 40" xml:space="preserve" preserveAspectRatio="xMidYMid meet">
<g id="BG" display="none">
	<rect x="-1" y="-1.5" display="inline" fill="#444444" width="137.75" height="44"/>
</g>
<g id="XBox" display="none">
	<g display="inline">
		<g>
			<g>
				<g>
					<g>
						<g>
							<g>
								<g>
									<path fill="#777777" d="M85.139,27.953l-4.895-6.648l-4.896,6.648h-2.016l5.889-8.032l-5.375-7.301h2.018l4.386,5.953
										l4.381-5.953h2.019l-5.375,7.299l5.891,8.035L85.139,27.953L85.139,27.953z M44.958,27.953l-4.896-6.648l-4.895,6.648
										H33.15l5.889-8.032l-5.376-7.301h2.016l4.383,5.953l4.381-5.953h2.015l-5.375,7.299l5.891,8.035L44.958,27.953
										L44.958,27.953z M59.502,23.475c0,2.764-2.093,4.479-5.469,4.479l-6.225-0.001v-7.186c0,0-2.968,0-3.186,0
										c0.23-0.349,0.842-1.188,1.109-1.542c0.074,0,2.076,0,2.076,0v-6.61h6.227c4.624,0,4.985,3.19,4.985,4.173
										c0,1.324-0.729,2.465-1.844,3.068c0.339,0.155,0.688,0.365,1.006,0.639C59.048,21.242,59.502,22.27,59.502,23.475z
										 M49.531,19.23c0.696,0,4.503,0,4.503,0c2.075,0,3.263-0.961,3.263-2.572c0-2.133-2.042-2.438-3.263-2.438
										c0,0-3.807,0-4.503,0V19.23z M57.786,23.443c0-2.201-2.04-2.674-3.752-2.674c0,0-3.807,0-4.503,0v5.584
										c0.696,0,4.503,0,4.503,0C55.437,26.354,57.786,25.973,57.786,23.443z M74.906,20.278c0,4.72-3.002,8.013-7.302,8.013
										c-4.308,0-7.318-3.293-7.318-8.013c0-4.717,3.011-8.012,7.318-8.012C71.904,12.266,74.906,15.561,74.906,20.278z
										 M73.166,20.278c0-3.765-2.289-6.391-5.562-6.391c-3.281,0-5.581,2.626-5.581,6.391c0,3.763,2.3,6.392,5.581,6.392
										C70.877,26.67,73.166,24.041,73.166,20.278z"/>
								</g>
							</g>
						</g>
					</g>
				</g>
				<g>
					<g>
						<polygon fill="#777777" points="116.896,12.62 116.896,25.219 107.625,12.625 106.105,12.622 106.105,27.943 107.811,27.943 
							107.811,15.638 116.893,27.953 118.602,27.953 118.602,12.62 						"/>
					</g>
					<g>
						<g>
							<g>
								<g>
									<g>
										<path fill="#777777" d="M104.549,20.278c0,4.72-3,8.013-7.301,8.013c-4.309,0-7.318-3.293-7.318-8.013
											c0-4.717,3.01-8.012,7.318-8.012C101.549,12.266,104.549,15.561,104.549,20.278z M102.809,20.278
											c0-3.765-2.287-6.391-5.561-6.391c-3.281,0-5.582,2.626-5.582,6.391c0,3.763,2.301,6.392,5.582,6.392
											C100.521,26.67,102.809,24.041,102.809,20.278z"/>
									</g>
								</g>
							</g>
						</g>
					</g>
					<polygon fill="#777777" points="122.238,26.453 122.238,20.783 130.676,20.783 130.676,19.283 122.238,19.283 122.238,14.118 
						131.248,14.118 131.248,12.619 120.521,12.619 120.521,27.953 131.354,27.953 131.354,26.453 					"/>
				</g>
			</g>
		</g>
		<g>
			<g>
				<g>
					<g>
						<path fill="#777777" d="M6.875,11.014c-0.009,0.007-0.013,0.011-0.012,0.01v0.001c-2.342,2.313-3.794,5.524-3.794,9.077
							c0,2.906,0.972,5.583,2.606,7.728c0.018,0.021,0.045,0.033,0.068,0.021c0.022-0.018,0.023-0.041,0.015-0.065
							c-0.972-3.007,4-10.295,6.567-13.351c0.009-0.011,0.018-0.022,0.018-0.037c0-0.018-0.01-0.032-0.021-0.042
							C8,10.056,6.848,11.04,6.863,11.025"/>
						<path fill="#777777" d="M24.776,11.014c0.009,0.007,0.012,0.011,0.012,0.01v0.001c2.342,2.313,3.794,5.524,3.794,9.077
							c0,2.906-0.972,5.583-2.608,7.728c-0.016,0.021-0.045,0.033-0.067,0.021c-0.022-0.018-0.023-0.041-0.015-0.065
							c0.972-3.007-3.994-10.301-6.562-13.358c-0.009-0.011-0.018-0.022-0.018-0.037c0-0.018,0.01-0.032,0.022-0.042
							c4.322-4.299,5.468-3.31,5.453-3.324"/>
						<path fill="#777777" d="M15.826,7.346c2.574,0,4.691,0.706,6.646,1.867c0.022,0.013,0.032,0.04,0.021,0.063
							s-0.036,0.028-0.063,0.022c-2.47-0.533-6.222,1.6-6.578,1.813c-0.008,0.005-0.016,0.01-0.026,0.01s-0.021-0.005-0.027-0.01
							c-0.938-0.541-4.412-2.36-6.596-1.8C9.177,9.316,9.151,9.312,9.14,9.288c-0.011-0.023-0.001-0.05,0.021-0.063
							C11.115,8.051,13.258,7.346,15.826,7.346"/>
						<path fill="#777777" d="M15.826,17.577c0.014,0,0.032,0.012,0.041,0.021c3.816,2.902,10.35,10.082,8.354,12.108l0.002-0.003
							c-0.001,0.001-0.001,0.001-0.002,0.003H24.22c-2.243,1.963-5.181,3.153-8.396,3.153c-3.216,0-6.153-1.19-8.397-3.153h0
							c0-0.002-0.001-0.002-0.002-0.003l0.002,0.003c-1.992-2.026,4.541-9.206,8.355-12.108
							C15.793,17.589,15.811,17.577,15.826,17.577"/>
					</g>
				</g>
			</g>
		</g>
	</g>
</g>
<g id="Tizen" display="none">
	<g display="inline" enable-background="new    ">
		<path fill="#777777" d="M63.455,18.557l-1.491-2.944c-0.141-0.275-0.506-0.5-0.814-0.5H49.301c-0.306,0-0.558,0.252-0.558,0.56
			v2.824c0,0.307,0.252,0.559,0.558,0.559h14.216C63.546,18.883,63.529,18.701,63.455,18.557z"/>
		<path fill="#777777" d="M105.911,11.132c0.205,0.004,0.435-0.04,0.666-0.114l0.629-0.205l-0.429-1.32
			c-0.021-0.068-0.074-0.118-0.141-0.138l-2.343-0.761c-0.022-0.009-0.058-0.009-0.087,0c-0.074,0.024-0.113,0.104-0.091,0.177
			l0.481,1.5C104.607,10.271,104.956,11.115,105.911,11.132z"/>
		<path fill="#777777" d="M109.188,10.979c0.03-0.042,0.028-0.096,0-0.135l-0.158-0.222c-0.026-0.039-0.078-0.057-0.131-0.042
			l-2.229,0.724c-0.52,0.168-1.063,0.184-1.395-0.023l2.354,1.469c0.104,0.065,0.242,0.039,0.314-0.062L109.188,10.979z"/>
		<path fill="#777777" d="M36.061,15.113H21.465c-0.295,0-0.534,0.239-0.534,0.534v2.876c0,0.295,0.238,0.533,0.534,0.533h5.11
			v13.889c0.001,0.293,0.24,0.531,0.532,0.531h3.471c0.295,0,0.533-0.238,0.533-0.533V19.056h4.95c0.294,0,0.533-0.238,0.533-0.533
			v-2.876C36.594,15.352,36.355,15.113,36.061,15.113z"/>
		<path fill="#777777" d="M44.028,15.113h-3.475c-0.292,0-0.532,0.239-0.532,0.534v17.296c0,0.295,0.239,0.533,0.532,0.533h3.475
			c0.293,0,0.531-0.238,0.531-0.533V15.647C44.559,15.352,44.321,15.113,44.028,15.113z"/>
		<path fill="#777777" d="M54.31,29.232l9.017-9.769c0.029-0.031,0.048-0.073,0.071-0.11H57.79l-9.021,9.765
			c-0.029,0.027-0.047,0.068-0.07,0.105h5.611V29.232z"/>
		<path fill="#777777" d="M63.357,30.094v2.823c0,0.308-0.254,0.56-0.561,0.56H50.948c-0.311,0-0.673-0.225-0.813-0.498l-1.493-2.94
			c-0.073-0.146-0.091-0.326-0.062-0.499h14.214C63.103,29.534,63.357,29.785,63.357,30.094z"/>
		<path fill="#777777" d="M81.753,15.113h-13.68c-0.294,0-0.533,0.239-0.533,0.534v17.296c0,0.295,0.239,0.533,0.533,0.533h13.68
			c0.293,0,0.531-0.238,0.531-0.533v-2.877c0-0.293-0.238-0.532-0.531-0.532h-9.892v-3.511h7.92c0.293,0,0.531-0.24,0.531-0.533
			v-2.74c0-0.295-0.238-0.535-0.531-0.535h-7.92v-3.159h9.892c0.293,0,0.531-0.239,0.531-0.532v-2.877
			C82.284,15.352,82.046,15.113,81.753,15.113z"/>
		<path fill="#777777" d="M86.911,15.486c-0.277,0.078-0.495,0.356-0.495,0.645v16.787c0,0.309,0.254,0.561,0.561,0.561h3.418
			c0.31,0,0.563-0.252,0.563-0.561V14.953c-0.179-0.085-0.378-0.124-0.554-0.093l-3.437,0.614
			C86.948,15.477,86.93,15.481,86.911,15.486"/>
		<path fill="#777777" d="M99.294,26.313l-8.013-11.099c-0.008-0.01-0.021-0.017-0.026-0.027v7.086l8.013,11.102
			c0.008,0.01,0.021,0.018,0.026,0.025V26.313z"/>
		<path fill="#777777" d="M103.572,15.113h-3.416c-0.313,0-0.563,0.252-0.563,0.56v17.964c0.178,0.086,0.381,0.125,0.551,0.094
			l3.437-0.61c0.021-0.007,0.038-0.011,0.056-0.017c0.277-0.078,0.494-0.354,0.494-0.646V15.673
			C104.131,15.365,103.881,15.113,103.572,15.113z"/>
		<polygon fill="#777777" points="106.788,32.466 106.788,32.051 105.57,32.051 105.57,32.466 105.973,32.466 105.973,33.477 
			106.389,33.477 106.389,32.466 		"/>
		<polygon fill="#777777" points="108.367,33.477 108.777,33.477 108.777,32.051 108.434,32.051 107.949,32.615 107.468,32.051 
			107.123,32.051 107.123,33.477 107.533,33.477 107.533,32.703 107.916,33.16 107.984,33.16 108.367,32.703 		"/>
		<path fill="#777777" d="M109.254,14.144c0.066-0.193,0.098-0.426,0.098-0.669v-0.662h-1.388c-0.073,0-0.136,0.035-0.175,0.088
			l-1.446,1.991c-0.017,0.023-0.026,0.053-0.026,0.083c0,0.078,0.063,0.142,0.145,0.142h1.576
			C108.032,15.118,108.941,15.047,109.254,14.144z"/>
		<path fill="#777777" d="M110.121,10.982c-0.03-0.042-0.082-0.058-0.128-0.042l-0.261,0.084c-0.047,0.016-0.08,0.059-0.08,0.11
			v2.342c0,0.546-0.153,1.067-0.452,1.319l2.124-1.783c0.094-0.079,0.111-0.218,0.037-0.319L110.121,10.982z"/>
		<path fill="#777777" d="M113.15,11.895c-0.162-0.124-0.375-0.224-0.605-0.298l-0.629-0.205l-0.43,1.32
			c-0.021,0.068-0.008,0.139,0.031,0.192l1.44,1.991c0.021,0.023,0.043,0.042,0.072,0.051c0.069,0.024,0.149-0.016,0.179-0.09
			l0.484-1.499C113.699,13.358,113.914,12.471,113.15,11.895z"/>
		<path fill="#777777" d="M110.412,10.093c-0.051,0.016-0.081,0.06-0.08,0.108v0.273c0,0.048,0.031,0.094,0.079,0.11l2.228,0.724
			c0.521,0.169,0.967,0.476,1.114,0.838l-1.04-2.572c-0.046-0.114-0.173-0.174-0.292-0.135L110.412,10.093z"/>
		<path fill="#777777" d="M112.218,7.492c-0.169,0.117-0.329,0.289-0.472,0.484l-0.389,0.535l1.121,0.816
			c0.06,0.042,0.131,0.051,0.188,0.03l2.343-0.76c0.025-0.009,0.055-0.027,0.068-0.052c0.046-0.063,0.031-0.151-0.029-0.197
			l-1.271-0.926C113.779,7.422,113.001,6.945,112.218,7.492z"/>
		<path fill="#777777" d="M109.657,9.541c0,0.053,0.032,0.096,0.077,0.109l0.262,0.085c0.046,0.015,0.1,0,0.13-0.041l1.376-1.895
			c0.321-0.442,0.751-0.773,1.143-0.801l-2.769,0.194c-0.122,0.009-0.219,0.11-0.219,0.236V9.541z"/>
		<path fill="#777777" d="M107.741,7.021c0.06,0.196,0.173,0.402,0.313,0.598l0.393,0.536l1.12-0.816
			c0.061-0.042,0.091-0.107,0.091-0.173l0.001-2.461c0-0.029-0.012-0.058-0.028-0.083c-0.045-0.063-0.134-0.078-0.196-0.032
			l-1.271,0.926C108.157,5.515,107.462,6.108,107.741,7.021z"/>
		<path fill="#777777" d="M108.898,10.089c0.05,0.017,0.101-0.001,0.127-0.041l0.162-0.221c0.023-0.039,0.025-0.095,0-0.136
			l-1.375-1.895c-0.321-0.442-0.504-0.953-0.41-1.333l-0.67,2.692c-0.029,0.119,0.037,0.242,0.154,0.281L108.898,10.089z"/>
	</g>
</g>
<g id="Steam" display="none">
	<g display="inline">
		<path fill="#777777" d="M80.95,17.728c-0.622,0.486-1.423,0.729-2.401,0.729c-0.707,0-1.324-0.09-1.854-0.271
			c-0.526-0.181-1.006-0.486-1.438-0.915l1.142-1.138c0.271,0.27,0.59,0.464,0.955,0.582c0.367,0.118,0.771,0.177,1.223,0.177
			c1.063,0,1.595-0.373,1.595-1.118c0-0.313-0.08-0.557-0.241-0.73c-0.158-0.173-0.438-0.29-0.836-0.349l-0.508-0.076l-0.582-0.076
			c-0.771-0.109-1.354-0.358-1.75-0.746c-0.432-0.429-0.646-1.019-0.646-1.77c0-0.817,0.282-1.476,0.853-1.978
			c0.569-0.502,1.329-0.752,2.29-0.752c0.633,0,1.184,0.083,1.646,0.247c0.466,0.165,0.888,0.433,1.268,0.804l-1.113,1.101
			c-0.253-0.245-0.531-0.409-0.842-0.493c-0.309-0.085-0.645-0.127-1.006-0.127c-0.446,0-0.791,0.107-1.03,0.322
			c-0.241,0.214-0.358,0.486-0.358,0.813c0,0.236,0.093,0.448,0.276,0.637c0.185,0.189,0.46,0.309,0.821,0.359l0.545,0.076
			l0.521,0.076c0.401,0.059,0.74,0.144,1.019,0.253c0.272,0.109,0.509,0.257,0.702,0.443c0.463,0.439,0.695,1.077,0.695,1.912
			C81.883,16.574,81.57,17.243,80.95,17.728z"/>
		<path fill="#777777" d="M88.503,10.928v7.446H86.74v-7.446h-2.354V9.363h6.47v1.565C90.856,10.928,88.503,10.928,88.503,10.928z"
			/>
		<path fill="#777777" d="M94.564,18.374V9.363h5.938v1.565h-4.175v2.125h3.555v1.565h-3.555v2.191h4.175v1.565H94.564z"/>
		<path fill="#777777" d="M109.617,18.374l-0.53-1.598h-3.201l-0.544,1.598h-1.835l3.276-9.011h1.38l3.289,9.011H109.617z
			 M107.518,12.02l-1.139,3.273h2.239L107.518,12.02z"/>
		<path fill="#777777" d="M120.982,18.374v-5.25l-1.715,3.416h-1.188l-1.729-3.416v5.25h-1.764V9.363h1.73l2.354,4.871l2.34-4.871
			h1.73v9.011C122.74,18.374,120.982,18.374,120.982,18.374z"/>
		<path fill="#777777" d="M62.763,5.537c-4.722,0-8.563,3.842-8.563,8.564c0,0.037,0.001,0.074,0.001,0.11l-5.521,8
			c-0.892-0.037-1.79,0.118-2.64,0.469c-0.373,0.153-0.725,0.342-1.055,0.557l-24.866-10.28c-0.418-1.936-1.743-3.644-3.706-4.461
			c-3.182-1.327-6.851,0.184-8.176,3.367c-1.326,3.183,0.184,6.851,3.367,8.177c1.542,0.642,3.241,0.646,4.786,0.01
			c0.356-0.147,0.692-0.327,1.01-0.531l24.922,10.303c0.43,1.914,1.75,3.601,3.696,4.41c3.182,1.326,6.85-0.188,8.176-3.365
			c0.345-0.827,0.504-1.7,0.479-2.57l7.896-5.634c0.063,0.002,0.129,0.003,0.192,0.003c4.725,0,8.565-3.842,8.565-8.564
			C71.328,9.379,67.486,5.537,62.763,5.537z M12.153,18.721c-1.853-0.771-2.968-2.569-2.968-4.459c0-0.617,0.119-1.244,0.371-1.849
			c1.023-2.456,3.854-3.621,6.31-2.598c1.156,0.481,2.021,1.366,2.511,2.421l-2.852-1.179c-1.811-0.754-3.89,0.102-4.645,1.913
			c-0.755,1.811,0.102,3.89,1.913,4.645l2.861,1.183C14.514,19.211,13.279,19.19,12.153,18.721z M52.875,30.316
			c-1.023,2.455-3.853,3.621-6.308,2.599c-1.135-0.474-1.99-1.335-2.485-2.364l2.79,1.153c1.811,0.754,3.89-0.103,4.645-1.912
			c0.754-1.812-0.102-3.892-1.912-4.646l-2.882-1.191c1.11-0.419,2.375-0.438,3.557,0.055c1.188,0.495,2.115,1.426,2.604,2.615
			C53.373,27.816,53.37,29.128,52.875,30.316z M62.763,19.808c-3.146,0-5.707-2.56-5.707-5.707s2.563-5.707,5.707-5.707
			c3.147,0,5.708,2.56,5.708,5.707S65.91,19.808,62.763,19.808z M62.773,18.378c-2.367,0-4.287-1.919-4.287-4.287
			c0-2.367,1.919-4.287,4.287-4.287s4.287,1.919,4.287,4.287S65.141,18.378,62.773,18.378z"/>
		<g>
			<path fill="#777777" d="M126.568,9.087c0.646,0,1.16,0.525,1.16,1.181c0,0.667-0.52,1.187-1.166,1.187s-1.17-0.52-1.17-1.187
				c0-0.656,0.521-1.181,1.17-1.181H126.568z M126.563,9.271c-0.521,0-0.94,0.446-0.94,0.997c0,0.562,0.425,1.002,0.948,1.002
				c0.522,0.005,0.943-0.44,0.943-0.997s-0.421-1.002-0.943-1.002H126.563z M126.343,10.956h-0.21V9.638
				c0.11-0.016,0.215-0.031,0.372-0.031c0.2,0,0.331,0.042,0.41,0.1s0.121,0.147,0.121,0.273c0,0.173-0.116,0.278-0.259,0.32v0.01
				c0.115,0.021,0.193,0.126,0.222,0.32c0.03,0.205,0.063,0.283,0.084,0.326h-0.222c-0.03-0.042-0.063-0.163-0.088-0.336
				c-0.031-0.168-0.116-0.231-0.284-0.231h-0.146C126.343,10.389,126.343,10.956,126.343,10.956z M126.343,10.226h0.152
				c0.173,0,0.319-0.063,0.319-0.226c0-0.116-0.084-0.231-0.319-0.231c-0.068,0-0.115,0.005-0.152,0.01V10.226z"/>
		</g>
	</g>
</g>
<g id="Playstation" display="none">
	<g display="inline">
		<g>
			<path fill="#777777" d="M36.223,32.734c-0.017-0.006-0.033-0.027-0.045-0.063c-0.001-0.024-0.007-0.062-0.01-0.112l-0.009-0.188
				c-0.003-0.09-0.017-0.152-0.052-0.195c-0.022-0.025-0.052-0.055-0.086-0.072c0.045-0.031,0.083-0.063,0.11-0.104
				c0.04-0.063,0.059-0.137,0.059-0.227c0-0.176-0.075-0.297-0.217-0.358c-0.074-0.036-0.168-0.052-0.277-0.052h-0.65h-0.031v0.027
				v1.405v0.033h0.031h0.19h0.033v-0.033v-0.567h0.4c0.071,0,0.128,0.01,0.159,0.021c0.05,0.026,0.08,0.078,0.082,0.16l0.012,0.231
				c0.005,0.055,0.006,0.092,0.01,0.112c0.003,0.021,0.01,0.04,0.019,0.058l0.01,0.021h0.02h0.233h0.032v-0.033v-0.03v-0.021
				L36.223,32.734z M35.868,31.959c-0.047,0.029-0.111,0.045-0.194,0.045h-0.407v-0.416H35.7c0.059,0,0.104,0.008,0.142,0.025
				c0.063,0.031,0.09,0.088,0.09,0.176C35.931,31.871,35.911,31.926,35.868,31.959z"/>
			<path fill="#777777" d="M36.508,31.189c-0.249-0.254-0.582-0.394-0.934-0.394c-0.729,0-1.318,0.599-1.318,1.317
				c0,0.355,0.137,0.689,0.386,0.939c0.249,0.252,0.578,0.389,0.933,0.389c0.352,0,0.686-0.137,0.934-0.389
				c0.247-0.248,0.384-0.578,0.384-0.939C36.892,31.771,36.755,31.441,36.508,31.189z M35.574,33.219
				c-0.293,0-0.572-0.113-0.775-0.322c-0.209-0.205-0.321-0.479-0.321-0.771s0.112-0.563,0.321-0.771
				c0.204-0.211,0.482-0.322,0.775-0.322c0.294,0,0.568,0.111,0.771,0.322c0.211,0.207,0.322,0.479,0.322,0.771
				C36.669,32.729,36.177,33.219,35.574,33.219z"/>
			<g>
				<path fill="#777777" d="M8.749,28.365c0.835,0.273,2.347,0.197,3.376-0.174l2.79-1.012v2.932
					c-0.178,0.029-0.373,0.063-0.555,0.092c-2.791,0.455-5.768,0.266-8.693-0.7c-2.73-0.769-3.186-2.368-1.941-3.292
					c1.152-0.854,3.107-1.492,3.107-1.492l8.082-2.873v3.273l-5.816,2.083C8.07,27.57,7.915,28.094,8.749,28.365z"/>
				<path fill="#777777" d="M37.369,27.221c-0.677,0.854-2.332,1.463-2.332,1.463L22.715,33.11v-3.262l9.067-3.234
					c1.03-0.362,1.188-0.889,0.353-1.157c-0.836-0.271-2.347-0.194-3.377,0.172l-6.043,2.132v-3.39l0.347-0.117
					c0,0,1.748-0.618,4.201-0.896c2.456-0.268,5.463,0.037,7.822,0.937C37.745,25.131,38.044,26.37,37.369,27.221z"/>
				<path fill="#777777" d="M23.888,21.665v-8.346c0-0.977-0.18-1.878-1.1-2.133c-0.705-0.23-1.14,0.427-1.14,1.404v20.898
					l-5.639-1.791V6.783c2.398,0.444,5.889,1.496,7.77,2.126c4.771,1.641,6.391,3.68,6.391,8.275
					C30.167,21.663,27.402,23.363,23.888,21.665z"/>
			</g>
		</g>
		<g>
			<g>
				<path fill="#777777" d="M126.082,26.051l-3.418-0.002h0.118c-0.064,0-0.118-0.054-0.118-0.115V14.858
					c0-1.702-1.178-2.26-2.831-1.239L99.995,25.803c-0.781,0.479-1.043,1.02-0.853,1.42c0.156,0.344,0.59,0.584,1.443,0.584
					l18.428,0.002c0.055,0.004,0.096,0.039,0.104,0.086v1.56c0,0.063,0.052,0.114,0.11,0.114h3.313c0.063,0,0.115-0.053,0.115-0.114
					V27.93c0-0.066,0.054-0.119,0.112-0.119h3.306c0.063,0,0.12-0.055,0.12-0.117V26.17
					C126.202,26.104,126.146,26.051,126.082,26.051z M119.125,25.926c0,0.068-0.055,0.119-0.116,0.119h-15.444
					c-0.125,0-0.188-0.031-0.209-0.076c-0.019-0.074,0.022-0.127,0.112-0.189l15.371-9.458c0.108-0.066,0.286-0.056,0.286,0.155
					C119.125,16.477,119.125,25.926,119.125,25.926z"/>
				<path fill="#777777" d="M68.752,21.958H54.877c-1.281,0-2.177,1.083-2.177,2.634v4.861c0,0.064-0.051,0.115-0.116,0.115h-3.298
					c-0.064,0-0.116-0.051-0.116-0.115l-0.001-4.861c0-2.506,1.693-4.393,3.94-4.393h14.475c1.551,0,2.286-1.116,2.286-2.666
					s-0.738-2.666-2.286-2.666H49.286c-0.065,0-0.118-0.052-0.118-0.116v-1.529c0-0.063,0.052-0.114,0.116-0.114h19.468
					c3.121,0,4.646,1.924,4.646,4.428C73.398,20.04,71.873,21.958,68.752,21.958z"/>
				<path fill="#777777" d="M100.538,14.863h-9.59c-1.55,0-2.286,1.116-2.286,2.667v7.615c0,2.506-1.53,4.424-4.65,4.424H72.729
					c-0.063,0-0.111-0.051-0.111-0.11V27.93c0-0.064,0.052-0.113,0.109-0.113h10.115c1.553,0,2.287-1.114,2.287-2.666v-7.608
					c0-2.502,1.528-4.426,4.648-4.426l10.76-0.001c0.063,0,0.113,0.051,0.113,0.115v1.529
					C100.652,14.812,100.604,14.863,100.538,14.863z"/>
			</g>
			<g>
				<polygon fill="#777777" points="131.111,29.563 131.111,28.063 130.605,29.563 130.365,29.563 129.861,28.063 129.861,29.563 
					129.62,29.563 129.62,27.715 129.956,27.715 130.486,29.285 131.02,27.715 131.354,27.715 131.354,29.563 				"/>
				<polygon fill="#777777" points="128.779,27.923 128.779,29.563 128.545,29.563 128.545,27.923 127.936,27.923 127.936,27.715 
					129.384,27.715 129.384,27.923 				"/>
			</g>
		</g>
	</g>
</g>
<g id="Google_Play" display="none">
	<g display="inline">
		<g>
			<g>
				<path fill="#777777" d="M45.208,9.158c0,0.898-0.266,1.614-0.799,2.148c-0.605,0.634-1.396,0.952-2.363,0.952
					c-0.929,0-1.718-0.321-2.368-0.965c-0.648-0.644-0.975-1.442-0.975-2.395s0.325-1.751,0.975-2.395
					c0.65-0.644,1.439-0.966,2.368-0.966c0.46,0,0.901,0.09,1.32,0.27s0.755,0.419,1.006,0.719l-0.565,0.566
					c-0.426-0.509-1.013-0.764-1.761-0.764c-0.678,0-1.263,0.238-1.757,0.714s-0.741,1.095-0.741,1.855s0.247,1.379,0.741,1.855
					c0.494,0.477,1.08,0.714,1.757,0.714c0.718,0,1.317-0.239,1.797-0.718c0.313-0.312,0.491-0.746,0.539-1.303h-2.336V8.673h3.118
					C45.193,8.841,45.208,9.002,45.208,9.158z"/>
				<path fill="#777777" d="M50.15,6.471h-2.93v2.04h2.645v0.773H47.22v2.04h2.93v0.791h-3.755V5.681h3.755V6.471z"/>
				<path fill="#777777" d="M53.638,12.114H52.81V6.471h-1.797v-0.79h4.421v0.791h-1.797L53.638,12.114L53.638,12.114z"/>
				<path fill="#777777" d="M58.633,12.114V5.681h0.827v6.434L58.633,12.114L58.633,12.114z"/>
				<path fill="#777777" d="M63.127,12.114H62.3V6.471h-1.797v-0.79h4.421v0.791h-1.797L63.127,12.114L63.127,12.114z"/>
				<path fill="#777777" d="M73.293,11.283c-0.633,0.65-1.419,0.977-2.359,0.977c-0.938,0-1.727-0.325-2.354-0.977
					c-0.633-0.648-0.948-1.445-0.948-2.386s0.315-1.736,0.948-2.385c0.631-0.65,1.417-0.976,2.354-0.976
					c0.938,0,1.723,0.327,2.355,0.979c0.635,0.653,0.951,1.447,0.951,2.381C74.24,9.838,73.924,10.633,73.293,11.283z
					 M69.186,10.744c0.479,0.482,1.063,0.723,1.748,0.723c0.689,0,1.272-0.241,1.748-0.723c0.479-0.482,0.715-1.098,0.715-1.847
					S73.16,7.533,72.682,7.05c-0.476-0.482-1.059-0.723-1.748-0.723c-0.688,0-1.271,0.241-1.748,0.723
					c-0.475,0.48-0.713,1.098-0.713,1.847S68.711,10.262,69.186,10.744z"/>
				<path fill="#777777" d="M75.4,12.114V5.681h1.007l3.127,5.005h0.034l-0.034-1.24V5.681h0.827v6.434h-0.862l-3.271-5.247h-0.037
					l0.037,1.24v4.007L75.4,12.114L75.4,12.114z"/>
			</g>
			<path fill="#777777" d="M67.424,21.498c-2.523,0-4.578,1.918-4.578,4.563c0,2.625,2.055,4.563,4.578,4.563
				c2.521,0,4.578-1.938,4.578-4.563C72.002,23.416,69.945,21.498,67.424,21.498z M67.424,28.824c-1.381,0-2.574-1.141-2.574-2.766
				c0-1.646,1.193-2.768,2.574-2.768c1.383,0,2.574,1.122,2.574,2.768C69.998,27.684,68.807,28.824,67.424,28.824z M57.437,21.498
				c-2.521,0-4.578,1.918-4.578,4.563c0,2.625,2.057,4.563,4.578,4.563c2.523,0,4.579-1.938,4.579-4.563
				C62.015,23.416,59.959,21.498,57.437,21.498z M57.437,28.824c-1.382,0-2.574-1.141-2.574-2.766c0-1.646,1.189-2.768,2.574-2.768
				s2.574,1.122,2.574,2.768C60.011,27.684,58.819,28.824,57.437,28.824z M45.558,22.898v1.935h4.629
				c-0.138,1.089-0.501,1.883-1.054,2.437c-0.673,0.674-1.728,1.416-3.575,1.416c-2.851,0-5.08-2.297-5.08-5.146
				s2.229-5.148,5.08-5.148c1.537,0,2.66,0.604,3.489,1.382l1.365-1.365c-1.158-1.105-2.695-1.952-4.854-1.952
				c-3.905,0-7.188,3.179-7.188,7.083c0,3.901,3.283,7.083,7.188,7.083c2.107,0,3.696-0.688,4.94-1.984
				c1.278-1.277,1.676-3.074,1.676-4.525c0-0.447-0.035-0.861-0.104-1.209h-6.512C45.558,22.905,45.558,22.898,45.558,22.898z
				 M94.143,24.4c-0.382-1.021-1.537-2.902-3.9-2.902c-2.354,0-4.307,1.85-4.307,4.563c0,2.561,1.938,4.563,4.526,4.563
				c2.09,0,3.299-1.276,3.802-2.021l-1.556-1.037c-0.519,0.761-1.228,1.264-2.246,1.264c-1.018,0-1.745-0.469-2.211-1.385
				l6.099-2.521L94.143,24.4z M87.922,25.922c-0.051-1.763,1.366-2.66,2.385-2.66c0.795,0,1.469,0.396,1.693,0.967L87.922,25.922z
				 M82.965,30.344h2.003V16.938h-2.003V30.344z M79.682,22.518h-0.064c-0.449-0.535-1.313-1.02-2.4-1.02
				c-2.277,0-4.371,2.005-4.371,4.579c0,2.558,2.094,4.543,4.371,4.543c1.088,0,1.951-0.483,2.4-1.036h0.064v0.656
				c0,1.746-0.933,2.678-2.436,2.678c-1.227,0-1.986-0.881-2.297-1.623l-1.745,0.725c0.501,1.209,1.831,2.695,4.042,2.695
				c2.35,0,4.336-1.383,4.336-4.752v-8.188h-1.9V22.518z M77.385,28.824c-1.383,0-2.539-1.158-2.539-2.747
				c0-1.606,1.156-2.781,2.539-2.781c1.364,0,2.438,1.175,2.438,2.781C79.82,27.666,78.749,28.824,77.385,28.824z M103.527,16.938
				h-4.793v13.406h2v-5.078h2.793c2.219,0,4.396-1.604,4.396-4.164C107.927,18.544,105.746,16.938,103.527,16.938z M103.58,23.398
				h-2.846v-4.594h2.846c1.496,0,2.345,1.238,2.345,2.297C105.925,22.141,105.076,23.398,103.58,23.398z M115.945,21.475
				c-1.448,0-2.948,0.639-3.569,2.053l1.774,0.74c0.381-0.74,1.088-0.979,1.83-0.979c1.031,0,2.086,0.621,2.104,1.729v0.137
				c-0.361-0.205-1.139-0.52-2.087-0.52c-1.914,0-3.863,1.055-3.863,3.021c0,1.793,1.569,2.949,3.329,2.949
				c1.346,0,2.087-0.604,2.553-1.313h0.068v1.032h1.932v-5.141C120.016,22.803,118.239,21.475,115.945,21.475z M115.704,28.82
				c-0.655,0-1.569-0.327-1.569-1.139c0-1.033,1.139-1.435,2.122-1.435c0.878,0,1.293,0.188,1.827,0.442
				C117.93,27.941,116.859,28.82,115.704,28.82z M127.052,21.768l-2.293,5.813h-0.069l-2.379-5.813h-2.154l3.568,8.123l-2.035,4.521
				h2.086l5.504-12.645h-2.228V21.768z M109.029,30.344h2V16.938h-2V30.344z"/>
			<g>
				<path opacity="0.12" fill="#777777" enable-background="new    " d="M5.551,32.83c-0.312-0.33-0.497-0.842-0.497-1.506v0.156
					c0,0.664,0.187,1.176,0.497,1.506l0.08-0.08L5.551,32.83z"/>
			</g>
		</g>
		<g>
			<path fill="#777777" d="M5.26,6.722C5.254,6.734,5.248,6.747,5.242,6.761c-0.04,0.097-0.074,0.202-0.101,0.313
				c-0.012,0.05-0.026,0.098-0.036,0.151c-0.03,0.167-0.05,0.345-0.05,0.54l0,0v0.156v23.56c0,0.42,0.082,0.773,0.215,1.064
				l12.875-12.907L5.26,6.722z"/>
			<path fill="#777777" d="M29.814,19.619c0,0.001,0,0.001,0,0.002c0-0.561-0.375-1.123-1.125-1.548l-4.768-2.709l-4.264,4.274
				l4.243,4.254l4.788-2.727c0.308-0.174,0.536-0.375,0.717-0.586c0.041-0.047,0.093-0.09,0.127-0.138
				c0.014-0.02,0.019-0.042,0.032-0.063C29.723,20.135,29.813,19.879,29.814,19.619c-0.001,0.004-0.003,0.007-0.004,0.01
				C29.812,19.627,29.814,19.623,29.814,19.619z"/>
			<path fill="#777777" d="M18.902,18.879l4.054-4.064L7.78,6.191c-0.009-0.004-0.018-0.005-0.024-0.01
				c-0.198-0.11-0.389-0.19-0.575-0.247C7.135,5.92,7.093,5.917,7.048,5.906c-0.153-0.038-0.3-0.061-0.44-0.063
				c-0.03,0-0.058,0.004-0.087,0.005C6.363,5.854,6.216,5.882,6.079,5.931C6.07,5.934,6.062,5.937,6.054,5.94
				C6.041,5.945,6.031,5.957,6.017,5.963L18.902,18.879z"/>
			<path fill="#777777" d="M18.902,20.397L6.027,33.305c0.475,0.191,1.085,0.127,1.753-0.252l15.156-8.611L18.902,20.397z"/>
		</g>
	</g>
</g>
<g id="Apple" display="none">
	<g display="inline">
		<path fill="#777777" d="M30.128,19.784c-0.029-3.223,2.639-4.791,2.761-4.864c-1.511-2.203-3.853-2.504-4.676-2.528
			c-1.967-0.207-3.875,1.177-4.877,1.177c-1.022,0-2.565-1.157-4.228-1.123c-2.14,0.033-4.142,1.272-5.24,3.196
			c-2.266,3.923-0.576,9.688,1.595,12.859c1.086,1.554,2.355,3.287,4.016,3.226c1.625-0.063,2.232-1.035,4.193-1.035
			c1.943,0,2.513,1.035,4.207,0.996c1.744-0.021,2.842-1.56,3.89-3.127c1.255-1.773,1.759-3.533,1.779-3.623
			C33.508,24.924,30.162,23.646,30.128,19.784z"/>
		<path fill="#777777" d="M26.928,10.306c0.874-1.093,1.472-2.58,1.306-4.089c-1.265,0.056-2.847,0.875-3.758,1.944
			c-0.806,0.942-1.526,2.486-1.34,3.938C24.557,12.205,26.016,11.382,26.928,10.306z"/>
		<g>
			<path fill="#777777" d="M53.665,31.504h-2.271l-1.244-3.908h-4.324l-1.185,3.908H42.43l4.285-13.308h2.646L53.665,31.504z
				 M49.775,25.955L48.65,22.48c-0.119-0.355-0.343-1.191-0.671-2.507h-0.04c-0.132,0.566-0.343,1.402-0.632,2.507l-1.104,3.475
				H49.775z"/>
			<path fill="#777777" d="M64.663,26.588c0,1.633-0.443,2.922-1.33,3.869c-0.794,0.844-1.781,1.264-2.958,1.264
				c-1.271,0-2.185-0.453-2.74-1.361v5.035h-2.132V25.063c0-1.021-0.027-2.076-0.079-3.149h1.875l0.119,1.521h0.04
				c0.711-1.146,1.79-1.722,3.238-1.722c1.132,0,2.077,0.447,2.833,1.345C64.284,23.949,64.663,25.127,64.663,26.588z
				 M62.491,26.666c0-0.934-0.21-1.704-0.632-2.311c-0.461-0.631-1.08-0.947-1.856-0.947c-0.526,0-1.004,0.176-1.431,0.523
				c-0.428,0.35-0.708,0.807-0.839,1.373c-0.066,0.264-0.099,0.479-0.099,0.645v1.605c0,0.691,0.214,1.28,0.642,1.768
				c0.428,0.48,0.984,0.721,1.668,0.721c0.803,0,1.428-0.311,1.875-0.928C62.267,28.496,62.491,27.68,62.491,26.666z"/>
			<path fill="#777777" d="M75.7,26.588c0,1.633-0.443,2.922-1.33,3.869c-0.795,0.844-1.781,1.264-2.959,1.264
				c-1.271,0-2.185-0.453-2.74-1.361v5.035h-2.132V25.063c0-1.021-0.027-2.076-0.079-3.149h1.875l0.119,1.521h0.04
				c0.71-1.146,1.789-1.722,3.238-1.722c1.131,0,2.076,0.447,2.834,1.345C75.32,23.949,75.7,25.127,75.7,26.588z M73.527,26.666
				c0-0.934-0.211-1.704-0.633-2.311c-0.461-0.631-1.078-0.947-1.854-0.947c-0.526,0-1.004,0.176-1.433,0.523
				c-0.43,0.35-0.707,0.807-0.838,1.373c-0.065,0.264-0.104,0.479-0.104,0.645v1.605c0,0.691,0.215,1.28,0.646,1.768
				c0.429,0.479,0.979,0.721,1.67,0.721c0.805,0,1.43-0.311,1.875-0.928C73.303,28.496,73.527,27.68,73.527,26.666z"/>
			<path fill="#777777" d="M88.04,27.771c0,1.133-0.396,2.053-1.183,2.765c-0.866,0.776-2.075,1.165-3.625,1.165
				c-1.438,0-2.58-0.275-3.446-0.829l0.493-1.776c0.935,0.553,1.962,0.83,3.08,0.83c0.804,0,1.429-0.183,1.875-0.544
				c0.445-0.362,0.673-0.846,0.673-1.45c0-0.541-0.188-0.994-0.554-1.363c-0.369-0.362-0.979-0.711-1.836-1.021
				c-2.33-0.866-3.496-2.146-3.496-3.813c0-1.092,0.412-1.982,1.229-2.687C82.075,18.349,83.165,18,84.523,18
				c1.211,0,2.22,0.211,3.021,0.632l-0.535,1.738c-0.754-0.408-1.604-0.612-2.557-0.612c-0.752,0-1.343,0.185-1.765,0.553
				c-0.354,0.33-0.535,0.73-0.535,1.207c0,0.524,0.205,0.961,0.611,1.303c0.354,0.314,1,0.658,1.937,1.027
				c1.146,0.461,1.987,1,2.526,1.616C87.77,26.081,88.04,26.852,88.04,27.771z"/>
			<path fill="#777777" d="M95.107,23.508h-2.354v4.659c0,1.185,0.414,1.776,1.244,1.776c0.381,0,0.694-0.032,0.944-0.104
				l0.062,1.619c-0.42,0.155-0.973,0.231-1.653,0.231c-0.847,0-1.5-0.258-1.979-0.77c-0.479-0.516-0.711-1.375-0.711-2.588v-4.837
				h-1.396V21.9h1.396v-1.756l2.094-0.632V21.9h2.354v1.608H95.107z"/>
			<path fill="#777777" d="M105.689,26.627c0,1.475-0.422,2.686-1.27,3.633c-0.881,0.975-2.053,1.461-3.514,1.461
				c-1.41,0-2.531-0.467-3.367-1.4c-0.836-0.932-1.254-2.107-1.254-3.528c0-1.483,0.436-2.705,1.293-3.647
				c0.857-0.947,2.021-1.426,3.48-1.426c1.408,0,2.539,0.473,3.396,1.401C105.282,24.021,105.689,25.191,105.689,26.627z
				 M103.479,26.676c0-0.879-0.188-1.633-0.565-2.264c-0.447-0.762-1.091-1.143-1.916-1.143c-0.854,0-1.515,0.381-1.955,1.143
				c-0.386,0.631-0.572,1.398-0.572,2.304c0,0.88,0.188,1.636,0.572,2.265c0.461,0.768,1.104,1.146,1.938,1.146
				c0.813,0,1.453-0.393,1.916-1.162C103.282,28.316,103.479,27.557,103.479,26.676z"/>
			<path fill="#777777" d="M112.622,23.783c-0.211-0.039-0.437-0.059-0.672-0.059c-0.75,0-1.33,0.276-1.738,0.85
				c-0.354,0.5-0.532,1.132-0.532,1.895v5.035h-2.132V24.93c0-1.104-0.021-2.113-0.062-3.021h1.854l0.078,1.836h0.063
				c0.228-0.632,0.58-1.14,1.063-1.521c0.479-0.349,0.988-0.52,1.541-0.52c0.197,0,0.375,0.02,0.533,0.039L112.622,23.783
				L112.622,23.783z"/>
			<path fill="#777777" d="M122.157,26.252c0,0.383-0.025,0.704-0.078,0.967h-6.396c0.021,0.948,0.334,1.674,0.928,2.174
				c0.539,0.446,1.234,0.67,2.092,0.67c0.947,0,1.811-0.146,2.588-0.453l0.334,1.479c-0.908,0.396-1.98,0.593-3.217,0.593
				c-1.488,0-2.656-0.438-3.506-1.312c-0.85-0.875-1.273-2.052-1.273-3.524c0-1.445,0.395-2.65,1.186-3.611
				c0.828-1.021,1.947-1.539,3.355-1.539c1.383,0,2.43,0.518,3.141,1.539C121.874,24.047,122.157,25.055,122.157,26.252z
				 M120.124,25.699c0.015-0.633-0.125-1.178-0.414-1.639c-0.369-0.6-0.937-0.896-1.698-0.896c-0.697,0-1.265,0.289-1.697,0.869
				c-0.354,0.461-0.563,1.021-0.631,1.653L120.124,25.699L120.124,25.699z"/>
		</g>
		<g>
			<g>
				<path fill="#777777" d="M45.211,13.491c-0.593,0-1.106-0.029-1.533-0.078V6.979c0.553-0.087,1.154-0.136,1.805-0.136
					c2.445,0,3.571,1.203,3.571,3.164C49.054,12.269,47.724,13.491,45.211,13.491z M45.569,7.668c-0.33,0-0.611,0.02-0.844,0.068
					v4.891c0.126,0.02,0.368,0.029,0.708,0.029c1.602,0,2.514-0.912,2.514-2.62C47.947,8.513,47.122,7.668,45.569,7.668z"/>
				<path fill="#777777" d="M52.563,13.54c-1.378,0-2.271-1.029-2.271-2.426c0-1.456,0.912-2.494,2.349-2.494
					c1.358,0,2.271,0.98,2.271,2.417C54.912,12.511,53.971,13.54,52.563,13.54z M52.603,9.386c-0.757,0-1.242,0.708-1.242,1.698
					c0,0.971,0.495,1.679,1.23,1.679c0.737,0,1.232-0.757,1.232-1.699C53.825,10.104,53.34,9.386,52.603,9.386z"/>
				<path fill="#777777" d="M62.77,8.717l-1.475,4.716h-0.961l-0.611-2.048c-0.153-0.514-0.281-1.021-0.379-1.523h-0.02
					c-0.077,0.514-0.223,1.029-0.378,1.523l-0.65,2.048h-0.971l-1.388-4.716h1.077l0.534,2.242c0.126,0.534,0.232,1.038,0.32,1.514
					h0.02c0.077-0.397,0.203-0.893,0.388-1.504l0.67-2.251H59.8l0.641,2.203c0.155,0.534,0.281,1.058,0.379,1.553h0.026
					c0.068-0.485,0.175-1,0.32-1.553l0.573-2.203L62.77,8.717L62.77,8.717z"/>
				<path fill="#777777" d="M68.2,13.433h-1.048v-2.708c0-0.834-0.32-1.252-0.951-1.252c-0.621,0-1.048,0.534-1.048,1.155v2.805
					h-1.048v-3.368c0-0.417-0.01-0.864-0.039-1.349h0.922l0.049,0.728h0.029C65.348,8.94,65.92,8.62,66.561,8.62
					c0.99,0,1.64,0.757,1.64,1.989L68.2,13.433L68.2,13.433z"/>
				<path fill="#777777" d="M71.09,13.433h-1.049v-6.88h1.049V13.433z"/>
				<path fill="#777777" d="M74.911,13.54c-1.377,0-2.271-1.029-2.271-2.426c0-1.456,0.908-2.494,2.35-2.494
					c1.357,0,2.271,0.98,2.271,2.417C77.26,12.511,76.318,13.54,74.911,13.54z M74.95,9.386c-0.757,0-1.242,0.708-1.242,1.698
					c0,0.971,0.496,1.679,1.231,1.679c0.732,0,1.229-0.757,1.229-1.699C76.172,10.104,75.688,9.386,74.95,9.386z"/>
				<path fill="#777777" d="M81.391,13.433l-0.076-0.543H81.29c-0.319,0.437-0.787,0.65-1.379,0.65
					c-0.849,0-1.445-0.592-1.445-1.388c0-1.164,1.013-1.766,2.759-1.766v-0.087c0-0.621-0.328-0.932-0.979-0.932
					c-0.466,0-0.873,0.117-1.231,0.352L78.8,9.028c0.438-0.272,0.979-0.408,1.619-0.408c1.231,0,1.854,0.65,1.854,1.951v1.737
					c0,0.476,0.021,0.845,0.063,1.126L81.391,13.433L81.391,13.433z M81.247,11.084c-1.164,0-1.748,0.282-1.748,0.951
					c0,0.495,0.301,0.737,0.719,0.737c0.533,0,1.029-0.407,1.029-0.96V11.084z"/>
				<path fill="#777777" d="M87.357,13.433l-0.049-0.757h-0.029c-0.301,0.572-0.809,0.864-1.516,0.864c-1.141,0-1.979-1-1.979-2.407
					c0-1.477,0.873-2.514,2.064-2.514c0.631,0,1.077,0.213,1.329,0.641H87.2V6.553h1.049v5.609c0,0.456,0.011,0.883,0.039,1.271
					C88.288,13.433,87.357,13.433,87.357,13.433z M87.202,10.658c0-0.66-0.438-1.223-1.104-1.223c-0.775,0-1.252,0.689-1.252,1.659
					c0,0.951,0.493,1.602,1.231,1.602c0.659,0,1.125-0.573,1.125-1.252L87.202,10.658L87.202,10.658z"/>
				<path fill="#777777" d="M94.902,13.54c-1.377,0-2.271-1.029-2.271-2.426c0-1.456,0.912-2.494,2.35-2.494
					c1.357,0,2.271,0.98,2.271,2.417C97.252,12.511,96.311,13.54,94.902,13.54z M94.941,9.386c-0.756,0-1.241,0.708-1.241,1.698
					c0,0.971,0.495,1.679,1.229,1.679s1.229-0.757,1.229-1.699C96.165,10.104,95.68,9.386,94.941,9.386z"/>
				<path fill="#777777" d="M102.887,13.433h-1.049v-2.708c0-0.834-0.32-1.252-0.951-1.252c-0.621,0-1.047,0.534-1.047,1.155v2.805
					h-1.049v-3.368c0-0.417-0.01-0.864-0.039-1.349h0.922l0.049,0.728h0.029c0.281-0.504,0.854-0.825,1.494-0.825
					c0.99,0,1.641,0.757,1.641,1.989V13.433z"/>
				<path fill="#777777" d="M109.938,9.503h-1.147v2.29c0,0.583,0.198,0.874,0.604,0.874c0.188,0,0.342-0.02,0.467-0.049
					l0.027,0.796c-0.203,0.078-0.475,0.117-0.813,0.117c-0.826,0-1.32-0.456-1.32-1.65V9.503h-0.688V8.717h0.688V7.853l1.029-0.311
					v1.174h1.152v0.787H109.938z"/>
				<path fill="#777777" d="M115.486,13.433h-1.047v-2.688c0-0.844-0.319-1.271-0.951-1.271c-0.543,0-1.049,0.369-1.049,1.116v2.843
					h-1.047v-6.88h1.047v2.833h0.021c0.33-0.514,0.808-0.767,1.418-0.767c0.998,0,1.608,0.776,1.608,2.009L115.486,13.433
					L115.486,13.433z"/>
				<path fill="#777777" d="M121.17,11.327h-3.145c0.02,0.893,0.605,1.397,1.48,1.397c0.471,0,0.896-0.078,1.271-0.223l0.16,0.728
					c-0.442,0.194-0.971,0.291-1.582,0.291c-1.476,0-2.348-0.932-2.348-2.377c0-1.446,0.896-2.533,2.229-2.533
					c1.202,0,1.961,0.893,1.961,2.242C121.209,11.036,121.2,11.201,121.17,11.327z M120.209,10.58c0-0.728-0.367-1.242-1.037-1.242
					c-0.602,0-1.078,0.524-1.146,1.242H120.209z"/>
			</g>
		</g>
	</g>
</g>
<g id="Amazon" display="none">
	<g display="inline">
		<path fill="#777777" d="M37.713,31.047c-3.245,2.395-7.948,3.668-12,3.668c-5.676,0-10.788-2.1-14.656-5.592
			c-0.304-0.273-0.034-0.648,0.332-0.438c4.173,2.43,9.335,3.893,14.666,3.893c3.596,0,7.549-0.747,11.188-2.29
			C37.79,30.057,38.25,30.648,37.713,31.047"/>
		<path fill="#777777" d="M39.063,29.506c-0.415-0.531-2.743-0.252-3.79-0.127c-0.316,0.039-0.365-0.238-0.079-0.439
			c1.855-1.303,4.898-0.928,5.254-0.485c0.354,0.438-0.094,3.487-1.834,4.942c-0.27,0.229-0.523,0.104-0.403-0.188
			C38.603,32.229,39.478,30.038,39.063,29.506"/>
		<path fill="#777777" d="M35.348,19.725v-1.269c0.001-0.192,0.146-0.321,0.322-0.32l5.681-0.001c0.181,0,0.328,0.132,0.328,0.319
			v1.088c-0.002,0.183-0.156,0.42-0.429,0.798l-2.942,4.201c1.092-0.025,2.248,0.139,3.241,0.695
			c0.223,0.127,0.283,0.313,0.301,0.494v1.354c0,0.188-0.205,0.402-0.419,0.29c-1.748-0.915-4.066-1.017-6.002,0.011
			c-0.197,0.105-0.404-0.105-0.404-0.294v-1.284c0-0.207,0.004-0.559,0.211-0.871l3.411-4.892h-2.969
			C35.495,20.044,35.349,19.913,35.348,19.725"/>
		<path fill="#777777" d="M14.624,27.643h-1.728c-0.166-0.012-0.296-0.135-0.309-0.293l0.001-8.871c0-0.178,0.149-0.32,0.333-0.32
			h1.609c0.169,0.008,0.304,0.136,0.313,0.299v1.158h0.032c0.42-1.121,1.209-1.643,2.274-1.643c1.082,0,1.759,0.522,2.243,1.643
			c0.419-1.121,1.372-1.643,2.388-1.643c0.726,0,1.516,0.298,2,0.97c0.549,0.748,0.436,1.831,0.436,2.782l-0.001,5.598
			c0,0.182-0.15,0.32-0.334,0.32h-1.726c-0.174-0.012-0.313-0.146-0.313-0.314V22.62c0-0.373,0.032-1.308-0.049-1.661
			c-0.129-0.598-0.516-0.766-1.016-0.766c-0.419,0-0.855,0.28-1.033,0.728c-0.177,0.448-0.161,1.194-0.161,1.699v4.702
			c0,0.177-0.149,0.318-0.333,0.318h-1.726c-0.173-0.015-0.313-0.148-0.313-0.318L17.21,22.62c0-0.989,0.161-2.444-1.063-2.444
			c-1.243,0-1.194,1.417-1.194,2.444l-0.001,4.702C14.958,27.499,14.809,27.643,14.624,27.643"/>
		<path fill="#777777" d="M46.57,17.973c2.563,0,3.951,2.203,3.951,5.001c0,2.707-1.532,4.854-3.951,4.854
			c-2.519,0-3.891-2.203-3.891-4.946C42.681,20.119,44.068,17.973,46.57,17.973 M46.585,19.782c-1.274,0-1.354,1.736-1.354,2.818
			c0,1.084-0.017,3.396,1.339,3.396c1.338,0,1.404-1.866,1.404-3.006c0-0.746-0.033-1.645-0.26-2.354
			C47.52,20.025,47.132,19.782,46.585,19.782z"/>
		<path fill="#777777" d="M53.847,27.643h-1.722c-0.173-0.012-0.309-0.146-0.309-0.314l-0.004-8.874
			c0.015-0.164,0.157-0.291,0.332-0.291h1.604c0.151,0.008,0.275,0.111,0.307,0.248v1.356h0.033c0.484-1.213,1.16-1.79,2.355-1.79
			c0.771,0,1.533,0.279,2.017,1.045c0.451,0.708,0.451,1.904,0.451,2.763v5.578c-0.019,0.154-0.16,0.277-0.332,0.277h-1.732
			c-0.161-0.011-0.29-0.127-0.307-0.277v-4.813c0-0.972,0.113-2.391-1.082-2.391c-0.419,0-0.806,0.28-1.001,0.71
			c-0.241,0.541-0.274,1.077-0.274,1.681v4.771C54.181,27.499,54.033,27.643,53.847,27.643"/>
		<path fill="#777777" d="M30.818,23.404c0,0.675,0.017,1.234-0.324,1.834c-0.274,0.486-0.711,0.787-1.196,0.787
			c-0.664,0-1.051-0.506-1.051-1.256c0-1.477,1.321-1.738,2.57-1.738L30.818,23.404 M32.561,27.619
			c-0.114,0.104-0.28,0.109-0.409,0.041c-0.573-0.479-0.677-0.698-0.99-1.152c-0.949,0.967-1.621,1.258-2.85,1.258
			c-1.456,0-2.587-0.896-2.587-2.695c0-1.397,0.76-2.354,1.843-2.82c0.938-0.411,2.248-0.48,3.25-0.604v-0.225
			c0-0.41,0.033-0.896-0.21-1.254c-0.21-0.316-0.614-0.448-0.971-0.448c-0.659,0-1.245,0.338-1.389,1.038
			c-0.03,0.156-0.144,0.311-0.3,0.316l-1.675-0.18c-0.142-0.033-0.299-0.146-0.258-0.363c0.388-2.031,2.222-2.645,3.865-2.645
			c0.842,0,1.939,0.223,2.603,0.86c0.841,0.786,0.759,1.834,0.759,2.975v2.692c0,0.812,0.337,1.166,0.653,1.603
			c0.111,0.156,0.135,0.344-0.005,0.459c-0.353,0.295-0.979,0.84-1.326,1.147L32.561,27.619z"/>
		<path fill="#777777" d="M8.162,23.404c0,0.675,0.017,1.234-0.324,1.834c-0.274,0.486-0.711,0.787-1.196,0.787
			c-0.662,0-1.051-0.506-1.051-1.256c0-1.477,1.321-1.738,2.571-1.738V23.404 M9.904,27.619c-0.114,0.104-0.28,0.109-0.409,0.041
			c-0.574-0.479-0.677-0.698-0.99-1.152c-0.949,0.967-1.621,1.258-2.85,1.258c-1.455,0-2.587-0.896-2.587-2.695
			c0-1.397,0.76-2.354,1.843-2.82c0.938-0.411,2.247-0.48,3.25-0.604v-0.225c0-0.41,0.033-0.896-0.209-1.254
			c-0.211-0.316-0.615-0.448-0.971-0.448c-0.659,0-1.246,0.338-1.389,1.038c-0.03,0.156-0.144,0.311-0.3,0.316l-1.676-0.18
			c-0.141-0.033-0.299-0.146-0.258-0.363c0.385-2.031,2.22-2.645,3.865-2.645c0.841,0,1.94,0.223,2.604,0.86
			c0.84,0.786,0.759,1.834,0.759,2.975v2.692c0,0.812,0.337,1.166,0.652,1.603c0.108,0.156,0.135,0.344-0.005,0.459
			c-0.353,0.295-0.981,0.84-1.326,1.147L9.904,27.619z"/>
		<path fill="#777777" d="M65.923,27.743c-0.844,0-1.525-0.253-2.048-0.759c-0.524-0.506-0.786-1.162-0.786-1.967
			c0-0.896,0.321-1.604,0.966-2.129c0.646-0.529,1.507-0.799,2.589-0.799c0.637,0,1.336,0.094,2.092,0.271v-1.061
			c0-0.613-0.133-1.042-0.396-1.283c-0.265-0.24-0.728-0.36-1.389-0.36c-0.397,0-0.837,0.039-1.318,0.117
			c-0.482,0.078-0.938,0.189-1.371,0.334c-0.121,0.034-0.223,0.053-0.307,0.053c-0.156,0-0.235-0.112-0.235-0.342v-0.669
			c0-0.168,0.025-0.288,0.073-0.36c0.048-0.071,0.174-0.149,0.38-0.234c0.938-0.361,1.978-0.541,3.122-0.541
			c1.18,0,2.047,0.24,2.605,0.722c0.563,0.481,0.842,1.232,0.842,2.255v6.083c0,0.264-0.135,0.396-0.396,0.396h-0.959
			c-0.264,0-0.412-0.121-0.449-0.361l-0.09-0.521c-0.423,0.359-0.889,0.646-1.396,0.85C66.936,27.643,66.427,27.743,65.923,27.743
			 M66.517,26.229c0.349,0,0.716-0.076,1.102-0.229c0.384-0.148,0.757-0.363,1.117-0.639v-1.732
			c-0.639-0.133-1.202-0.199-1.696-0.199c-1.251,0-1.875,0.487-1.875,1.463c0,0.42,0.12,0.748,0.36,0.981
			C65.765,26.109,66.097,26.229,66.517,26.229z"/>
		<path fill="#777777" d="M73.057,31.189c-0.267,0-0.396-0.133-0.396-0.396v-12.11c0-0.264,0.132-0.397,0.396-0.397h0.991
			c0.265,0,0.423,0.121,0.47,0.36l0.108,0.559c0.42-0.384,0.888-0.678,1.397-0.882c0.512-0.207,1.045-0.307,1.598-0.307
			c1.145,0,2.055,0.427,2.734,1.279c0.68,0.858,1.021,2.006,1.021,3.449c0,1-0.166,1.871-0.497,2.615
			c-0.331,0.746-0.792,1.318-1.381,1.715c-0.589,0.398-1.264,0.598-2.021,0.598c-0.506,0-0.99-0.087-1.461-0.263
			c-0.471-0.173-0.879-0.417-1.229-0.729v4.114c0,0.265-0.133,0.396-0.396,0.396L73.057,31.189 M76.938,25.992
			c0.771,0,1.342-0.262,1.713-0.786c0.373-0.522,0.563-1.319,0.563-2.392c0-1.063-0.186-1.844-0.55-2.354
			c-0.368-0.514-0.938-0.768-1.707-0.768c-0.78,0-1.504,0.229-2.166,0.686v4.909C75.462,25.757,76.178,25.992,76.938,25.992z"/>
		<path fill="#777777" d="M83.307,31.189c-0.266,0-0.396-0.133-0.396-0.396v-12.11c0-0.264,0.132-0.397,0.396-0.397h0.992
			c0.266,0,0.422,0.121,0.469,0.36l0.109,0.559c0.42-0.384,0.887-0.678,1.398-0.882c0.511-0.207,1.043-0.307,1.598-0.307
			c1.143,0,2.054,0.427,2.732,1.279c0.681,0.858,1.021,2.006,1.021,3.449c0,1-0.166,1.871-0.496,2.615
			c-0.332,0.746-0.792,1.318-1.382,1.715c-0.589,0.398-1.264,0.598-2.021,0.598c-0.506,0-0.99-0.087-1.463-0.263
			c-0.47-0.173-0.879-0.417-1.229-0.729v4.114c0,0.265-0.133,0.396-0.396,0.396L83.307,31.189 M87.188,25.992
			c0.771,0,1.344-0.262,1.717-0.786c0.372-0.522,0.562-1.319,0.562-2.392c0-1.063-0.187-1.844-0.551-2.354
			c-0.367-0.514-0.938-0.768-1.706-0.768c-0.781,0-1.504,0.229-2.166,0.686v4.909C85.713,25.757,86.43,25.992,87.188,25.992z"/>
		<path fill="#777777" d="M95.62,27.743c-0.95,0-1.828-0.156-2.636-0.47c-0.191-0.074-0.315-0.147-0.369-0.229
			c-0.055-0.073-0.081-0.205-0.081-0.388V26.01c0-0.24,0.084-0.361,0.253-0.361c0.084,0,0.253,0.037,0.505,0.108
			c0.854,0.24,1.624,0.36,2.312,0.36c0.604,0,1.041-0.094,1.315-0.278c0.276-0.188,0.416-0.474,0.416-0.858
			c0-0.266-0.084-0.479-0.252-0.641c-0.17-0.162-0.479-0.328-0.938-0.496l-1.498-0.576c-1.348-0.519-2.021-1.356-2.021-2.523
			c0-0.842,0.313-1.507,0.938-1.995c0.627-0.487,1.463-0.729,2.51-0.729c0.746,0,1.498,0.127,2.256,0.377
			c0.182,0.061,0.301,0.13,0.361,0.208c0.061,0.08,0.09,0.215,0.09,0.406v0.634c0,0.131-0.021,0.224-0.063,0.278
			C98.673,19.973,98.6,20,98.49,20c-0.063,0-0.211-0.03-0.451-0.091c-0.76-0.179-1.372-0.269-1.841-0.269
			c-0.554,0-0.96,0.079-1.22,0.242c-0.26,0.162-0.391,0.416-0.391,0.769c0,0.268,0.098,0.479,0.278,0.646
			c0.188,0.16,0.521,0.341,1.002,0.532l1.389,0.535c0.728,0.277,1.243,0.607,1.563,0.992c0.316,0.392,0.479,0.873,0.479,1.463
			c0,0.902-0.322,1.615-0.976,2.143C97.678,27.48,96.775,27.743,95.62,27.743"/>
		<path fill="#777777" d="M104.354,27.6c-0.947,0-1.649-0.223-2.105-0.668c-0.458-0.445-0.688-1.125-0.688-2.039V19.91h-1.153
			c-0.265,0-0.396-0.132-0.396-0.396V18.99c0-0.156,0.031-0.268,0.095-0.333c0.061-0.063,0.152-0.111,0.287-0.135l1.243-0.18
			l0.271-2.186c0.013-0.145,0.055-0.247,0.127-0.307c0.069-0.061,0.181-0.091,0.323-0.091h0.938c0.268,0,0.396,0.134,0.396,0.396
			v2.129h2.222c0.265,0,0.396,0.133,0.396,0.397v0.831c0,0.265-0.134,0.396-0.396,0.396h-2.222v4.872
			c0,0.41,0.102,0.701,0.298,0.875c0.198,0.176,0.532,0.263,1.002,0.263c0.276,0,0.5-0.019,0.668-0.054
			c0.17-0.037,0.308-0.055,0.414-0.055c0.204,0,0.308,0.115,0.308,0.344V26.8c0,0.189-0.031,0.324-0.099,0.402
			c-0.065,0.078-0.188,0.146-0.369,0.188C105.4,27.531,104.885,27.6,104.354,27.6"/>
		<path fill="#777777" d="M111.38,27.744c-1.396,0-2.485-0.432-3.267-1.292c-0.783-0.858-1.174-2.054-1.174-3.582
			c0-1.526,0.391-2.718,1.174-3.574c0.781-0.853,1.869-1.281,3.267-1.281c1.396,0,2.484,0.428,3.267,1.281
			c0.783,0.856,1.176,2.046,1.176,3.574s-0.393,2.724-1.176,3.582C113.864,27.313,112.775,27.744,111.38,27.744 M111.38,26.064
			c1.517,0,2.272-1.065,2.272-3.194c0-2.117-0.758-3.176-2.272-3.176c-1.517,0-2.274,1.059-2.274,3.176
			C109.105,24.999,109.863,26.064,111.38,26.064z"/>
		<path fill="#777777" d="M117.73,27.473c-0.27,0-0.396-0.133-0.396-0.396v-8.392c0-0.266,0.132-0.397,0.396-0.397h0.957
			c0.17,0,0.283,0.023,0.353,0.072c0.065,0.049,0.11,0.139,0.135,0.272l0.218,1.028c0.48-0.529,0.937-0.903,1.354-1.118
			c0.42-0.217,0.878-0.327,1.371-0.327h0.071c0.154,0,0.285,0.016,0.389,0.045s0.175,0.082,0.217,0.152
			c0.041,0.074,0.063,0.206,0.063,0.397v0.976c0,0.252-0.104,0.379-0.32,0.379c-0.071,0-0.174-0.006-0.301-0.019
			c-0.125-0.011-0.264-0.018-0.404-0.018c-0.893,0-1.68,0.229-2.363,0.688v6.266c0,0.268-0.132,0.396-0.396,0.396h-1.338"/>
		<path fill="#777777" d="M127.961,27.744c-1.518,0-2.665-0.409-3.447-1.229c-0.781-0.818-1.173-2.014-1.173-3.572
			c0-1.553,0.384-2.762,1.146-3.628c0.768-0.866,1.834-1.299,3.204-1.299c1.183,0,2.085,0.322,2.719,0.966
			c0.632,0.645,0.943,1.556,0.943,2.734c0,0.409-0.025,0.837-0.091,1.279c-0.021,0.157-0.065,0.262-0.136,0.317
			c-0.064,0.055-0.15,0.082-0.262,0.082h-5.562c0.034,0.912,0.294,1.584,0.771,2.012c0.475,0.427,1.206,0.641,2.191,0.641
			c0.722,0,1.479-0.113,2.271-0.343c0.096-0.024,0.168-0.042,0.217-0.056c0.051-0.012,0.092-0.021,0.127-0.021
			c0.184,0,0.271,0.12,0.271,0.359v0.646c0,0.182-0.026,0.313-0.08,0.389c-0.057,0.078-0.18,0.154-0.37,0.229
			C129.898,27.581,128.982,27.744,127.961,27.744 M129.479,21.969v-0.145c0-0.734-0.158-1.295-0.479-1.68
			c-0.318-0.386-0.785-0.577-1.398-0.577c-0.646,0-1.18,0.217-1.588,0.65s-0.646,1.017-0.703,1.75L129.479,21.969L129.479,21.969z"
			/>
		<path fill="#777777" d="M45.198,12.637c-0.446,0-0.803-0.125-1.07-0.381C43.86,12,43.727,11.66,43.727,11.232
			c0-0.458,0.164-0.826,0.49-1.098c0.327-0.275,0.767-0.41,1.32-0.41c0.352,0,0.748,0.053,1.188,0.159V9.261
			c0-0.339-0.078-0.579-0.231-0.716c-0.154-0.139-0.417-0.209-0.788-0.209c-0.433,0-0.857,0.063-1.272,0.189
			c-0.145,0.044-0.236,0.066-0.273,0.066c-0.076,0-0.114-0.057-0.114-0.17V8.167c0-0.082,0.013-0.142,0.038-0.179
			c0.025-0.037,0.076-0.072,0.151-0.104c0.193-0.088,0.44-0.159,0.74-0.212c0.299-0.053,0.596-0.081,0.892-0.081
			c0.597,0,1.037,0.125,1.32,0.373c0.283,0.249,0.424,0.627,0.424,1.135v3.225c0,0.126-0.063,0.189-0.188,0.189h-0.405
			c-0.12,0-0.188-0.061-0.208-0.18l-0.047-0.311c-0.226,0.194-0.477,0.346-0.75,0.452C45.739,12.583,45.468,12.637,45.198,12.637
			 M45.424,11.93c0.208,0,0.424-0.041,0.65-0.123c0.228-0.082,0.444-0.201,0.651-0.358v-0.961c-0.34-0.082-0.673-0.123-1-0.123
			c-0.71,0-1.065,0.274-1.065,0.821c0,0.239,0.066,0.423,0.198,0.55C44.99,11.866,45.179,11.93,45.424,11.93z"/>
		<path fill="#777777" d="M50.196,12.515c-0.088,0-0.153-0.013-0.194-0.039c-0.041-0.024-0.083-0.096-0.127-0.217l-1.669-4.188
			c-0.013-0.038-0.027-0.075-0.042-0.113C48.148,7.92,48.14,7.886,48.14,7.854c0-0.081,0.047-0.122,0.143-0.122h0.557
			c0.094,0,0.161,0.012,0.199,0.037c0.038,0.026,0.079,0.098,0.123,0.217l1.292,3.678l1.292-3.678
			c0.043-0.119,0.085-0.191,0.123-0.217c0.038-0.025,0.103-0.037,0.197-0.037h0.519c0.095,0,0.143,0.041,0.143,0.122
			c0,0.032-0.009,0.066-0.025,0.104c-0.014,0.038-0.029,0.076-0.042,0.113L51,12.259c-0.044,0.121-0.087,0.192-0.127,0.217
			c-0.042,0.026-0.105,0.039-0.193,0.039L50.196,12.515"/>
		<path fill="#777777" d="M54.571,12.637c-0.446,0-0.802-0.125-1.07-0.381C53.233,12,53.1,11.66,53.1,11.232
			c0-0.458,0.164-0.826,0.491-1.098c0.326-0.275,0.766-0.41,1.32-0.41c0.352,0,0.747,0.053,1.187,0.159V9.261
			c0-0.339-0.077-0.579-0.229-0.716c-0.154-0.139-0.416-0.209-0.786-0.209c-0.434,0-0.858,0.063-1.273,0.189
			c-0.145,0.044-0.235,0.066-0.273,0.066c-0.076,0-0.112-0.057-0.112-0.17V8.167c0-0.082,0.012-0.142,0.037-0.179
			c0.026-0.038,0.076-0.072,0.151-0.104c0.192-0.088,0.44-0.159,0.739-0.212s0.598-0.081,0.892-0.081
			c0.598,0,1.038,0.125,1.32,0.373c0.284,0.249,0.425,0.627,0.425,1.135v3.225c0,0.126-0.063,0.189-0.189,0.189h-0.41
			c-0.119,0-0.188-0.061-0.207-0.18l-0.047-0.311c-0.227,0.194-0.477,0.346-0.749,0.452C55.112,12.583,54.841,12.637,54.571,12.637
			 M54.797,11.93c0.208,0,0.425-0.041,0.651-0.123s0.443-0.201,0.647-0.358v-0.961c-0.338-0.082-0.671-0.123-0.999-0.123
			c-0.71,0-1.064,0.274-1.064,0.821c0,0.239,0.064,0.423,0.198,0.55C54.363,11.866,54.552,11.93,54.797,11.93z"/>
		<path fill="#777777" d="M58.738,6.885c-0.184,0-0.326-0.051-0.429-0.155c-0.104-0.104-0.156-0.241-0.156-0.411
			s0.052-0.307,0.156-0.411c0.103-0.103,0.247-0.155,0.429-0.155s0.326,0.052,0.43,0.155c0.103,0.104,0.154,0.241,0.154,0.411
			s-0.051,0.306-0.154,0.411C59.064,6.834,58.921,6.885,58.738,6.885 M58.455,12.515c-0.125,0-0.188-0.063-0.188-0.189V7.922
			c0-0.125,0.063-0.188,0.188-0.188h0.557c0.127,0,0.189,0.063,0.189,0.188v4.403c0,0.126-0.063,0.189-0.189,0.189L58.455,12.515
			L58.455,12.515z"/>
		<path fill="#777777" d="M61.52,12.562c-0.333,0-0.587-0.096-0.763-0.288c-0.176-0.191-0.264-0.467-0.264-0.826V5.726
			c0-0.126,0.063-0.189,0.188-0.189h0.559c0.125,0,0.188,0.063,0.188,0.189v5.666c0,0.146,0.029,0.252,0.09,0.317
			c0.058,0.065,0.157,0.098,0.296,0.098c0.037,0,0.078-0.003,0.119-0.009s0.076-0.009,0.107-0.009c0.062,0,0.104,0.016,0.127,0.047
			c0.021,0.03,0.033,0.078,0.033,0.141v0.302c0,0.063-0.015,0.111-0.043,0.146s-0.077,0.061-0.146,0.08
			C61.854,12.542,61.69,12.562,61.52,12.562"/>
		<path fill="#777777" d="M64.207,12.637c-0.446,0-0.802-0.125-1.069-0.381c-0.268-0.256-0.4-0.596-0.4-1.024
			c0-0.458,0.163-0.826,0.49-1.098c0.328-0.275,0.768-0.41,1.32-0.41c0.352,0,0.749,0.053,1.189,0.159V9.261
			c0-0.339-0.078-0.579-0.232-0.716c-0.155-0.139-0.417-0.209-0.787-0.209c-0.434,0-0.855,0.063-1.271,0.189
			c-0.146,0.044-0.235,0.066-0.274,0.066c-0.075,0-0.113-0.057-0.113-0.17V8.167c0-0.082,0.013-0.142,0.038-0.179
			c0.025-0.037,0.075-0.072,0.15-0.104c0.195-0.088,0.442-0.159,0.741-0.212c0.298-0.053,0.596-0.081,0.891-0.081
			c0.597,0,1.037,0.125,1.32,0.373c0.285,0.249,0.425,0.627,0.425,1.135v3.225c0,0.126-0.063,0.189-0.188,0.189h-0.406
			c-0.12,0-0.188-0.061-0.208-0.18l-0.047-0.311c-0.227,0.194-0.478,0.346-0.749,0.452C64.749,12.583,64.477,12.637,64.207,12.637
			 M64.434,11.93c0.207,0,0.423-0.041,0.651-0.123c0.226-0.082,0.442-0.201,0.65-0.358v-0.961c-0.339-0.082-0.673-0.123-1-0.123
			c-0.71,0-1.065,0.274-1.065,0.821c0,0.239,0.066,0.423,0.197,0.55C64,11.866,64.188,11.93,64.434,11.93z"/>
		<path fill="#777777" d="M70.261,12.619c-0.577,0-1.084-0.202-1.519-0.604l-0.065,0.311c-0.02,0.126-0.092,0.189-0.217,0.189
			h-0.405c-0.125,0-0.188-0.063-0.188-0.189v-6.6c0-0.126,0.063-0.189,0.188-0.189h0.559c0.125,0,0.188,0.063,0.188,0.189v2.46
			c0.473-0.396,0.979-0.594,1.527-0.594c0.609,0,1.091,0.22,1.441,0.66c0.352,0.44,0.524,1.044,0.524,1.81
			c0,0.773-0.188,1.393-0.557,1.858C71.371,12.386,70.877,12.619,70.261,12.619 M70.044,11.864c0.868,0,1.302-0.585,1.302-1.753
			c0-0.598-0.104-1.042-0.314-1.33c-0.211-0.29-0.529-0.434-0.967-0.434c-0.443,0-0.867,0.145-1.265,0.434v2.63
			C69.195,11.713,69.609,11.864,70.044,11.864z"/>
		<path fill="#777777" d="M74.334,12.562c-0.332,0-0.588-0.096-0.764-0.288c-0.176-0.191-0.266-0.467-0.266-0.826V5.726
			c0-0.126,0.063-0.189,0.188-0.189h0.557c0.127,0,0.188,0.063,0.188,0.189v5.666c0,0.146,0.029,0.252,0.09,0.317
			c0.062,0.065,0.157,0.098,0.297,0.098c0.038,0,0.077-0.003,0.118-0.009c0.041-0.006,0.078-0.009,0.106-0.009
			c0.063,0,0.104,0.016,0.127,0.047c0.021,0.03,0.03,0.078,0.03,0.141v0.302c0,0.063-0.014,0.111-0.039,0.146
			c-0.028,0.035-0.077,0.061-0.146,0.08C74.667,12.542,74.503,12.562,74.334,12.562"/>
		<path fill="#777777" d="M77.955,12.656c-0.773,0-1.357-0.215-1.754-0.642c-0.396-0.428-0.594-1.059-0.594-1.896
			c0-0.798,0.195-1.418,0.594-1.861c0.396-0.444,0.949-0.666,1.66-0.666c0.598,0,1.056,0.168,1.377,0.505
			c0.32,0.336,0.479,0.813,0.479,1.428c0,0.201-0.016,0.405-0.048,0.613c-0.013,0.075-0.03,0.126-0.062,0.15
			c-0.027,0.026-0.072,0.039-0.139,0.039h-2.96c0.013,0.54,0.146,0.939,0.401,1.197c0.253,0.258,0.646,0.387,1.183,0.387
			c0.188,0,0.368-0.013,0.541-0.039c0.175-0.024,0.395-0.078,0.656-0.16c0.044-0.012,0.081-0.022,0.111-0.033
			s0.062-0.014,0.087-0.014c0.081,0,0.119,0.056,0.119,0.17V12.1c0,0.082-0.013,0.14-0.034,0.175
			c-0.025,0.034-0.08,0.071-0.161,0.108c-0.188,0.082-0.413,0.146-0.675,0.198C78.48,12.631,78.219,12.656,77.955,12.656
			 M78.859,9.705c0.008-0.05,0.011-0.132,0.011-0.245c0-0.385-0.089-0.673-0.271-0.868C78.422,8.397,78.16,8.3,77.813,8.3
			c-0.396,0-0.701,0.117-0.924,0.354c-0.22,0.235-0.346,0.585-0.377,1.051H78.859z"/>
		<path fill="#777777" d="M84.195,12.637c-0.446,0-0.801-0.125-1.068-0.381c-0.268-0.256-0.4-0.596-0.4-1.023
			c0-0.458,0.162-0.826,0.489-1.098c0.327-0.275,0.767-0.41,1.32-0.41c0.353,0,0.748,0.053,1.188,0.159V9.261
			c0-0.339-0.076-0.579-0.23-0.716c-0.154-0.139-0.416-0.209-0.787-0.209c-0.436,0-0.857,0.063-1.271,0.189
			C83.29,8.569,83.2,8.591,83.163,8.591c-0.076,0-0.114-0.057-0.114-0.17V8.167c0-0.082,0.014-0.142,0.038-0.179
			c0.022-0.038,0.076-0.072,0.149-0.104c0.193-0.088,0.438-0.159,0.74-0.212c0.299-0.053,0.598-0.081,0.893-0.081
			c0.597,0,1.035,0.125,1.318,0.373c0.279,0.249,0.426,0.627,0.426,1.135v3.225c0,0.126-0.063,0.189-0.188,0.189H86.02
			c-0.121,0-0.188-0.061-0.209-0.18l-0.047-0.311c-0.226,0.194-0.477,0.346-0.748,0.452C84.739,12.583,84.468,12.637,84.195,12.637
			 M84.424,11.93c0.206,0,0.424-0.041,0.649-0.123c0.228-0.082,0.444-0.201,0.647-0.358v-0.961c-0.34-0.082-0.674-0.123-0.996-0.123
			c-0.713,0-1.065,0.274-1.065,0.821c0,0.239,0.065,0.423,0.198,0.55C83.989,11.866,84.178,11.93,84.424,11.93z"/>
		<path fill="#777777" d="M89.497,12.581c-0.894,0-1.339-0.446-1.339-1.339V8.47h-0.68c-0.127,0-0.189-0.063-0.189-0.188V8.045
			c0-0.063,0.016-0.11,0.043-0.141c0.029-0.032,0.084-0.054,0.166-0.066l0.688-0.085l0.123-1.169
			c0.018-0.126,0.078-0.189,0.197-0.189h0.396c0.125,0,0.187,0.063,0.187,0.189v1.15h1.228c0.125,0,0.188,0.063,0.188,0.188v0.359
			c0,0.125-0.063,0.188-0.188,0.188H89.09v2.725c0,0.232,0.055,0.396,0.157,0.49c0.103,0.094,0.28,0.142,0.53,0.142
			c0.121,0,0.269-0.015,0.441-0.047c0.098-0.019,0.157-0.027,0.188-0.027c0.05,0,0.084,0.014,0.104,0.043
			c0.021,0.027,0.026,0.072,0.026,0.136v0.255c0,0.081-0.018,0.143-0.038,0.183c-0.025,0.041-0.075,0.074-0.15,0.101
			C90.109,12.542,89.824,12.581,89.497,12.581"/>
	</g>
</g>
<g>
	<g>
		<path fill="#FFFFFF" d="M22.145,0.762c-10.155,0-18.451,7.867-19.309,17.736l10.298,4.291c0.858-0.572,2.002-1.001,3.147-1.001
			c0.143,0,0.143,0,0.286,0l4.577-6.722c0,0,0,0,0-0.143c0-4.005,3.29-7.295,7.295-7.295s7.295,3.29,7.295,7.295
			s-3.29,7.295-7.295,7.295h-0.143l-6.579,4.72c0,0.143,0,0.143,0,0.286c0,3.004-2.432,5.435-5.435,5.435
			c-2.718,0-4.863-1.859-5.435-4.434l-7.438-3.004c2.288,8.153,9.726,14.017,18.594,14.017c10.727,0,19.309-8.725,19.309-19.309
			C41.454,9.344,32.872,0.762,22.145,0.762z"/>
		<path fill="#FFFFFF" d="M14.993,30.084l-2.432-1.001c0.429,0.858,1.144,1.573,2.145,2.002c2.145,0.858,4.434-0.143,5.435-2.145
			c0.429-1.001,0.429-2.145,0-3.147c-0.429-1.001-1.144-1.859-2.288-2.288c-1.001-0.429-2.145-0.429-3.004,0l2.432,1.001
			c1.573,0.572,2.288,2.432,1.573,4.005C18.283,29.941,16.567,30.656,14.993,30.084z"/>
		<path fill="#FFFFFF" d="M33.444,15.065c0-2.718-2.145-4.863-4.863-4.863s-4.863,2.145-4.863,4.863s2.145,4.863,4.863,4.863
			S33.444,17.783,33.444,15.065z M24.862,15.065c0-2.002,1.573-3.719,3.719-3.719c2.002,0,3.719,1.573,3.719,3.719
			c0,2.002-1.573,3.719-3.719,3.719C26.579,18.784,24.862,17.068,24.862,15.065z"/>
	</g>
	<g>
		<path fill="#FFFFFF" d="M62.193,13.921l-1.287,2.288c-1.001-0.715-2.288-1.144-3.576-1.144s-2.145,0.572-2.145,1.573
			c0,1.144,1.43,1.43,3.719,2.288c2.432,0.858,3.719,1.859,3.719,4.005c0,3.004-2.288,4.577-5.721,4.577
			c-1.573,0-3.576-0.429-5.149-1.287l1.001-2.575c1.287,0.715,2.718,1.001,4.005,1.001c1.716,0,2.575-0.715,2.575-1.573
			c0-1.144-1.287-1.43-3.29-2.145c-2.432-0.858-4.005-1.859-4.005-4.291c0-2.718,2.145-4.291,5.292-4.291
			C59.476,12.491,61.192,13.206,62.193,13.921z"/>
		<path fill="#FFFFFF" d="M72.205,15.352v12.015h-3.004V15.352h-4.434v-2.575h11.872v2.575H72.205z"/>
		<path fill="#FFFFFF" d="M83.076,15.352v3.29h5.864v2.575h-5.864v3.433h6.722v2.575h-9.869V12.777h9.869v2.575
			C89.798,15.352,83.076,15.352,83.076,15.352z"/>
		<path fill="#FFFFFF" d="M96.664,24.505l-1.001,2.861h-3.147l5.435-14.589h3.004l5.578,14.589h-3.29l-1.001-2.861H96.664z
			 M99.524,16.21l-2.002,5.864h4.005L99.524,16.21z"/>
		<path fill="#FFFFFF" d="M122.266,18.355l-4.005,8.439h-1.716l-3.862-8.439v8.868h-2.861V12.777h2.861l4.863,10.584l4.72-10.584
			h3.004v14.589h-2.861L122.266,18.355z"/>
		<path fill="#FFFFFF" d="M131.134,14.636c0,1.287-1.001,2.002-2.002,2.002c-1.144,0-2.002-0.715-2.002-2.002
			s1.001-2.002,2.002-2.002C130.133,12.634,131.134,13.349,131.134,14.636z M127.415,14.636c0,1.001,0.715,1.716,1.716,1.716
			c0.858,0,1.716-0.715,1.716-1.716s-0.715-1.716-1.716-1.716C128.13,12.92,127.415,13.635,127.415,14.636z M129.131,13.635
			c0.572,0,0.715,0.286,0.715,0.572c0,0.286-0.143,0.429-0.429,0.572l0.429,0.858h-0.429l-0.429-0.715h-0.429v0.715h-0.286v-2.002
			H129.131z M128.702,14.493h0.286c0.286,0,0.429-0.143,0.429-0.286s-0.143-0.286-0.429-0.286h-0.286V14.493z"/>
	</g>
</g>
</svg>
