<?xml version="1.0" encoding="utf-8"?>
<!-- Generator: Adobe Illustrator 16.0.0, SVG Export Plug-In . SVG Version: 6.00 Build 0)  -->
<!DOCTYPE svg PUBLIC "-//W3C//DTD SVG 1.1//EN" "http://www.w3.org/Graphics/SVG/1.1/DTD/svg11.dtd">
<svg version="1.1" id="Ebene_1" xmlns="http://www.w3.org/2000/svg" xmlns:xlink="http://www.w3.org/1999/xlink" x="0px" y="0px"
	 width="135px" height="40px" viewBox="0 0 135 40" enable-background="new 0 0 135 40" xml:space="preserve">
<g id="BG" display="none">
	<rect x="-1" y="-1.5" display="inline" fill="#444444" width="137.75" height="44"/>
</g>
<g id="XBox" display="none">
	<g display="inline">
		<g>
			<g>
				<g>
					<g>
						<g>
							<g>
								<g>
									<path fill="#777777" d="M85.139,27.953l-4.895-6.648l-4.896,6.648h-2.016l5.889-8.032l-5.375-7.301h2.018l4.386,5.953
										l4.381-5.953h2.019l-5.375,7.299l5.891,8.035L85.139,27.953L85.139,27.953z M44.958,27.953l-4.896-6.648l-4.895,6.648
										H33.15l5.889-8.032l-5.376-7.301h2.016l4.383,5.953l4.381-5.953h2.015l-5.375,7.299l5.891,8.035L44.958,27.953
										L44.958,27.953z M59.502,23.475c0,2.764-2.093,4.479-5.469,4.479l-6.225-0.001v-7.186c0,0-2.968,0-3.186,0
										c0.23-0.349,0.842-1.188,1.109-1.542c0.074,0,2.076,0,2.076,0v-6.61h6.227c4.624,0,4.985,3.19,4.985,4.173
										c0,1.324-0.729,2.465-1.844,3.068c0.339,0.155,0.688,0.365,1.006,0.639C59.048,21.242,59.502,22.27,59.502,23.475z
										 M49.531,19.23c0.696,0,4.503,0,4.503,0c2.075,0,3.263-0.961,3.263-2.572c0-2.133-2.042-2.438-3.263-2.438
										c0,0-3.807,0-4.503,0V19.23z M57.786,23.443c0-2.201-2.04-2.674-3.752-2.674c0,0-3.807,0-4.503,0v5.584
										c0.696,0,4.503,0,4.503,0C55.437,26.354,57.786,25.973,57.786,23.443z M74.906,20.278c0,4.72-3.002,8.013-7.302,8.013
										c-4.308,0-7.318-3.293-7.318-8.013c0-4.717,3.011-8.012,7.318-8.012C71.904,12.266,74.906,15.561,74.906,20.278z
										 M73.166,20.278c0-3.765-2.289-6.391-5.562-6.391c-3.281,0-5.581,2.626-5.581,6.391c0,3.763,2.3,6.392,5.581,6.392
										C70.877,26.67,73.166,24.041,73.166,20.278z"/>
								</g>
							</g>
						</g>
					</g>
				</g>
				<g>
					<g>
						<polygon fill="#777777" points="116.896,12.62 116.896,25.219 107.625,12.625 106.105,12.622 106.105,27.943 107.811,27.943 
							107.811,15.638 116.893,27.953 118.602,27.953 118.602,12.62 						"/>
					</g>
					<g>
						<g>
							<g>
								<g>
									<g>
										<path fill="#777777" d="M104.549,20.278c0,4.72-3,8.013-7.301,8.013c-4.309,0-7.318-3.293-7.318-8.013
											c0-4.717,3.01-8.012,7.318-8.012C101.549,12.266,104.549,15.561,104.549,20.278z M102.809,20.278
											c0-3.765-2.287-6.391-5.561-6.391c-3.281,0-5.582,2.626-5.582,6.391c0,3.763,2.301,6.392,5.582,6.392
											C100.521,26.67,102.809,24.041,102.809,20.278z"/>
									</g>
								</g>
							</g>
						</g>
					</g>
					<polygon fill="#777777" points="122.238,26.453 122.238,20.783 130.676,20.783 130.676,19.283 122.238,19.283 122.238,14.118 
						131.248,14.118 131.248,12.619 120.521,12.619 120.521,27.953 131.354,27.953 131.354,26.453 					"/>
				</g>
			</g>
		</g>
		<g>
			<g>
				<g>
					<g>
						<path fill="#777777" d="M6.875,11.014c-0.009,0.007-0.013,0.011-0.012,0.01v0.001c-2.342,2.313-3.794,5.524-3.794,9.077
							c0,2.906,0.972,5.583,2.606,7.728c0.018,0.021,0.045,0.033,0.068,0.021c0.022-0.018,0.023-0.041,0.015-0.065
							c-0.972-3.007,4-10.295,6.567-13.351c0.009-0.011,0.018-0.022,0.018-0.037c0-0.018-0.01-0.032-0.021-0.042
							c-4.322-4.3-5.474-3.316-5.459-3.331"/>
						<path fill="#777777" d="M24.776,11.014c0.009,0.007,0.012,0.011,0.012,0.01v0.001c2.342,2.313,3.794,5.524,3.794,9.077
							c0,2.906-0.972,5.583-2.608,7.728c-0.016,0.021-0.045,0.033-0.067,0.021c-0.022-0.018-0.023-0.041-0.015-0.065
							c0.972-3.007-3.994-10.301-6.562-13.358c-0.009-0.011-0.018-0.022-0.018-0.037c0-0.018,0.01-0.032,0.022-0.042
							c4.322-4.299,5.468-3.31,5.453-3.324"/>
						<path fill="#777777" d="M15.826,7.346c2.574,0,4.691,0.706,6.646,1.867c0.022,0.013,0.032,0.04,0.021,0.063
							c-0.011,0.023-0.036,0.028-0.063,0.022c-2.47-0.533-6.222,1.6-6.578,1.813c-0.008,0.005-0.016,0.01-0.026,0.01
							c-0.01,0-0.021-0.005-0.027-0.01c-0.938-0.541-4.412-2.36-6.596-1.8C9.177,9.316,9.151,9.312,9.14,9.288
							c-0.011-0.023-0.001-0.05,0.021-0.063C11.115,8.051,13.258,7.346,15.826,7.346"/>
						<path fill="#777777" d="M15.826,17.577c0.014,0,0.032,0.012,0.041,0.021c3.816,2.902,10.35,10.082,8.354,12.108l0.002-0.003
							c-0.001,0.001-0.001,0.001-0.002,0.003h-0.001c-2.243,1.963-5.181,3.153-8.396,3.153c-3.216,0-6.153-1.19-8.397-3.153H7.427
							c0-0.002-0.001-0.002-0.002-0.003l0.002,0.003c-1.992-2.026,4.541-9.206,8.355-12.108
							C15.793,17.589,15.811,17.577,15.826,17.577"/>
					</g>
				</g>
			</g>
		</g>
	</g>
</g>
<g id="Tizen" display="none">
	<g display="inline" enable-background="new    ">
		<path fill="#777777" d="M63.455,18.557l-1.491-2.944c-0.141-0.275-0.506-0.5-0.814-0.5H49.301c-0.306,0-0.558,0.252-0.558,0.56
			v2.824c0,0.307,0.252,0.559,0.558,0.559h14.216C63.546,18.883,63.529,18.701,63.455,18.557z"/>
		<path fill="#777777" d="M105.911,11.132c0.205,0.004,0.435-0.04,0.666-0.114l0.629-0.205l-0.429-1.32
			c-0.021-0.068-0.074-0.118-0.141-0.138l-2.343-0.761c-0.022-0.009-0.058-0.009-0.087,0c-0.074,0.024-0.113,0.104-0.091,0.177
			l0.481,1.5C104.607,10.271,104.956,11.115,105.911,11.132z"/>
		<path fill="#777777" d="M109.188,10.979c0.03-0.042,0.028-0.096,0-0.135l-0.158-0.222c-0.026-0.039-0.078-0.057-0.131-0.042
			l-2.229,0.724c-0.52,0.168-1.063,0.184-1.395-0.023l2.354,1.469c0.104,0.065,0.242,0.039,0.314-0.062L109.188,10.979z"/>
		<path fill="#777777" d="M36.061,15.113H21.465c-0.295,0-0.534,0.239-0.534,0.534v2.876c0,0.295,0.238,0.533,0.534,0.533h5.11
			v13.889c0.001,0.293,0.24,0.531,0.532,0.531h3.471c0.295,0,0.533-0.238,0.533-0.533V19.056h4.95c0.294,0,0.533-0.238,0.533-0.533
			v-2.876C36.594,15.352,36.355,15.113,36.061,15.113z"/>
		<path fill="#777777" d="M44.028,15.113h-3.475c-0.292,0-0.532,0.239-0.532,0.534v17.296c0,0.295,0.239,0.533,0.532,0.533h3.475
			c0.293,0,0.531-0.238,0.531-0.533V15.647C44.559,15.352,44.321,15.113,44.028,15.113z"/>
		<path fill="#777777" d="M54.31,29.232l9.017-9.769c0.029-0.031,0.048-0.073,0.071-0.11H57.79l-9.021,9.765
			c-0.029,0.027-0.047,0.068-0.07,0.105h5.611V29.232z"/>
		<path fill="#777777" d="M63.357,30.094v2.823c0,0.308-0.254,0.56-0.561,0.56H50.948c-0.311,0-0.673-0.225-0.813-0.498l-1.493-2.94
			c-0.073-0.146-0.091-0.326-0.062-0.499h14.214C63.103,29.534,63.357,29.785,63.357,30.094z"/>
		<path fill="#777777" d="M81.753,15.113h-13.68c-0.294,0-0.533,0.239-0.533,0.534v17.296c0,0.295,0.239,0.533,0.533,0.533h13.68
			c0.293,0,0.531-0.238,0.531-0.533v-2.877c0-0.293-0.238-0.532-0.531-0.532h-9.892v-3.511h7.92c0.293,0,0.531-0.24,0.531-0.533
			v-2.74c0-0.295-0.238-0.535-0.531-0.535h-7.92v-3.159h9.892c0.293,0,0.531-0.239,0.531-0.532v-2.877
			C82.284,15.352,82.046,15.113,81.753,15.113z"/>
		<path fill="#777777" d="M86.911,15.486c-0.277,0.078-0.495,0.356-0.495,0.645v16.787c0,0.309,0.254,0.561,0.561,0.561h3.418
			c0.31,0,0.563-0.252,0.563-0.561V14.953c-0.179-0.085-0.378-0.124-0.554-0.093l-3.437,0.614
			C86.948,15.477,86.93,15.481,86.911,15.486"/>
		<path fill="#777777" d="M99.294,26.313l-8.013-11.099c-0.008-0.01-0.021-0.017-0.026-0.027v7.086l8.013,11.102
			c0.008,0.01,0.021,0.018,0.026,0.025V26.313z"/>
		<path fill="#777777" d="M103.572,15.113h-3.416c-0.313,0-0.563,0.252-0.563,0.56v17.964c0.178,0.086,0.381,0.125,0.551,0.094
			l3.437-0.61c0.021-0.007,0.038-0.011,0.056-0.017c0.277-0.078,0.494-0.354,0.494-0.646V15.673
			C104.131,15.365,103.881,15.113,103.572,15.113z"/>
		<polygon fill="#777777" points="106.788,32.466 106.788,32.051 105.57,32.051 105.57,32.466 105.973,32.466 105.973,33.477 
			106.389,33.477 106.389,32.466 		"/>
		<polygon fill="#777777" points="108.367,33.477 108.777,33.477 108.777,32.051 108.434,32.051 107.949,32.615 107.468,32.051 
			107.123,32.051 107.123,33.477 107.533,33.477 107.533,32.703 107.916,33.16 107.984,33.16 108.367,32.703 		"/>
		<path fill="#777777" d="M109.254,14.144c0.066-0.193,0.098-0.426,0.098-0.669v-0.662h-1.388c-0.073,0-0.136,0.035-0.175,0.088
			l-1.446,1.991c-0.017,0.023-0.026,0.053-0.026,0.083c0,0.078,0.063,0.142,0.145,0.142h1.576
			C108.032,15.118,108.941,15.047,109.254,14.144z"/>
		<path fill="#777777" d="M110.121,10.982c-0.03-0.042-0.082-0.058-0.128-0.042l-0.261,0.084c-0.047,0.016-0.08,0.059-0.08,0.11
			v2.342c0,0.546-0.153,1.067-0.452,1.319l2.124-1.783c0.094-0.079,0.111-0.218,0.037-0.319L110.121,10.982z"/>
		<path fill="#777777" d="M113.15,11.895c-0.162-0.124-0.375-0.224-0.605-0.298l-0.629-0.205l-0.43,1.32
			c-0.021,0.068-0.008,0.139,0.031,0.192l1.44,1.991c0.021,0.023,0.043,0.042,0.072,0.051c0.069,0.024,0.149-0.016,0.179-0.09
			l0.484-1.499C113.699,13.358,113.914,12.471,113.15,11.895z"/>
		<path fill="#777777" d="M110.412,10.093c-0.051,0.016-0.081,0.06-0.08,0.108v0.273c0,0.048,0.031,0.094,0.079,0.11l2.228,0.724
			c0.521,0.169,0.967,0.476,1.114,0.838l-1.04-2.572c-0.046-0.114-0.173-0.174-0.292-0.135L110.412,10.093z"/>
		<path fill="#777777" d="M112.218,7.492c-0.169,0.117-0.329,0.289-0.472,0.484l-0.389,0.535l1.121,0.816
			c0.06,0.042,0.131,0.051,0.188,0.03l2.343-0.76c0.025-0.009,0.055-0.027,0.068-0.052c0.046-0.063,0.031-0.151-0.029-0.197
			l-1.271-0.926C113.779,7.422,113.001,6.945,112.218,7.492z"/>
		<path fill="#777777" d="M109.657,9.541c0,0.053,0.032,0.096,0.077,0.109l0.262,0.085c0.046,0.015,0.1,0,0.13-0.041l1.376-1.895
			c0.321-0.442,0.751-0.773,1.143-0.801l-2.769,0.194c-0.122,0.009-0.219,0.11-0.219,0.236V9.541z"/>
		<path fill="#777777" d="M107.741,7.021c0.06,0.196,0.173,0.402,0.313,0.598l0.393,0.536l1.12-0.816
			c0.061-0.042,0.091-0.107,0.091-0.173l0.001-2.461c0-0.029-0.012-0.058-0.028-0.083c-0.045-0.063-0.134-0.078-0.196-0.032
			l-1.271,0.926C108.157,5.515,107.462,6.108,107.741,7.021z"/>
		<path fill="#777777" d="M108.898,10.089c0.05,0.017,0.101-0.001,0.127-0.041l0.162-0.221c0.023-0.039,0.025-0.095,0-0.136
			l-1.375-1.895c-0.321-0.442-0.504-0.953-0.41-1.333l-0.67,2.692c-0.029,0.119,0.037,0.242,0.154,0.281L108.898,10.089z"/>
	</g>
</g>
<g id="Steam" display="none">
	<g display="inline">
		<path fill="#777777" d="M80.95,17.728c-0.622,0.486-1.423,0.729-2.401,0.729c-0.707,0-1.324-0.09-1.854-0.271
			c-0.526-0.181-1.006-0.486-1.438-0.915l1.142-1.138c0.271,0.27,0.59,0.464,0.955,0.582c0.367,0.118,0.771,0.177,1.223,0.177
			c1.063,0,1.595-0.373,1.595-1.118c0-0.313-0.08-0.557-0.241-0.73c-0.158-0.173-0.438-0.29-0.836-0.349l-0.508-0.076l-0.582-0.076
			c-0.771-0.109-1.354-0.358-1.75-0.746c-0.432-0.429-0.646-1.019-0.646-1.77c0-0.817,0.282-1.476,0.853-1.978
			c0.569-0.502,1.329-0.752,2.29-0.752c0.633,0,1.184,0.083,1.646,0.247c0.466,0.165,0.888,0.433,1.268,0.804l-1.113,1.101
			c-0.253-0.245-0.531-0.409-0.842-0.493c-0.309-0.085-0.645-0.127-1.006-0.127c-0.446,0-0.791,0.107-1.03,0.322
			c-0.241,0.214-0.358,0.486-0.358,0.813c0,0.236,0.093,0.448,0.276,0.637c0.185,0.189,0.46,0.309,0.821,0.359l0.545,0.076
			l0.521,0.076c0.401,0.059,0.74,0.144,1.019,0.253c0.272,0.109,0.509,0.257,0.702,0.443c0.463,0.439,0.695,1.077,0.695,1.912
			C81.883,16.574,81.57,17.243,80.95,17.728z"/>
		<path fill="#777777" d="M88.503,10.928v7.446H86.74v-7.446h-2.354V9.363h6.47v1.565H88.503z"/>
		<path fill="#777777" d="M94.564,18.374V9.363h5.938v1.565h-4.175v2.125h3.555v1.565h-3.555v2.191h4.175v1.565H94.564z"/>
		<path fill="#777777" d="M109.617,18.374l-0.53-1.598h-3.201l-0.544,1.598h-1.835l3.276-9.011h1.38l3.289,9.011H109.617z
			 M107.518,12.02l-1.139,3.273h2.239L107.518,12.02z"/>
		<path fill="#777777" d="M120.982,18.374v-5.25l-1.715,3.416h-1.188l-1.729-3.416v5.25h-1.764V9.363h1.73l2.354,4.871l2.34-4.871
			h1.73v9.011H120.982z"/>
		<path fill="#777777" d="M62.763,5.537c-4.722,0-8.563,3.842-8.563,8.564c0,0.037,0.001,0.074,0.001,0.11l-5.521,8
			c-0.892-0.037-1.79,0.118-2.64,0.469c-0.373,0.153-0.725,0.342-1.055,0.557L20.119,12.957c-0.418-1.936-1.743-3.644-3.706-4.461
			c-3.182-1.327-6.851,0.184-8.176,3.367c-1.326,3.183,0.184,6.851,3.367,8.177c1.542,0.642,3.241,0.646,4.786,0.01
			c0.356-0.147,0.692-0.327,1.01-0.531l24.922,10.303c0.43,1.914,1.75,3.601,3.696,4.41c3.182,1.326,6.85-0.188,8.176-3.365
			c0.345-0.827,0.504-1.7,0.479-2.57l7.896-5.634c0.063,0.002,0.129,0.003,0.192,0.003c4.725,0,8.565-3.842,8.565-8.564
			C71.328,9.379,67.486,5.537,62.763,5.537z M12.153,18.721c-1.853-0.771-2.968-2.569-2.968-4.459c0-0.617,0.119-1.244,0.371-1.849
			c1.023-2.456,3.854-3.621,6.31-2.598c1.156,0.481,2.021,1.366,2.511,2.421l-2.852-1.179c-1.811-0.754-3.89,0.102-4.645,1.913
			c-0.755,1.811,0.102,3.89,1.913,4.645l2.861,1.183C14.514,19.211,13.279,19.19,12.153,18.721z M52.875,30.316
			c-1.023,2.455-3.853,3.621-6.308,2.599c-1.135-0.474-1.99-1.335-2.485-2.364l2.79,1.153c1.811,0.754,3.89-0.103,4.645-1.912
			c0.754-1.812-0.102-3.892-1.912-4.646l-2.882-1.191c1.11-0.419,2.375-0.438,3.557,0.055c1.188,0.495,2.115,1.426,2.604,2.615
			C53.373,27.816,53.37,29.128,52.875,30.316z M62.763,19.808c-3.146,0-5.707-2.56-5.707-5.707s2.563-5.707,5.707-5.707
			c3.147,0,5.708,2.56,5.708,5.707S65.91,19.808,62.763,19.808z M62.773,18.378c-2.367,0-4.287-1.919-4.287-4.287
			c0-2.367,1.919-4.287,4.287-4.287c2.368,0,4.287,1.919,4.287,4.287C67.06,16.459,65.141,18.378,62.773,18.378z"/>
		<g>
			<path fill="#777777" d="M126.568,9.087c0.646,0,1.16,0.525,1.16,1.181c0,0.667-0.52,1.187-1.166,1.187s-1.17-0.52-1.17-1.187
				c0-0.656,0.521-1.181,1.17-1.181H126.568z M126.563,9.271c-0.521,0-0.94,0.446-0.94,0.997c0,0.562,0.425,1.002,0.948,1.002
				c0.522,0.005,0.943-0.44,0.943-0.997s-0.421-1.002-0.943-1.002H126.563z M126.343,10.956h-0.21V9.638
				c0.11-0.016,0.215-0.031,0.372-0.031c0.2,0,0.331,0.042,0.41,0.1s0.121,0.147,0.121,0.273c0,0.173-0.116,0.278-0.259,0.32v0.01
				c0.115,0.021,0.193,0.126,0.222,0.32c0.03,0.205,0.063,0.283,0.084,0.326h-0.222c-0.03-0.042-0.063-0.163-0.088-0.336
				c-0.031-0.168-0.116-0.231-0.284-0.231h-0.146V10.956z M126.343,10.226h0.152c0.173,0,0.319-0.063,0.319-0.226
				c0-0.116-0.084-0.231-0.319-0.231c-0.068,0-0.115,0.005-0.152,0.01V10.226z"/>
		</g>
	</g>
</g>
<g id="Playstation" display="none">
	<g display="inline">
		<g>
			<path fill="#777777" d="M36.223,32.734c-0.017-0.006-0.033-0.027-0.045-0.063c-0.001-0.024-0.007-0.062-0.01-0.112l-0.009-0.188
				c-0.003-0.09-0.017-0.152-0.052-0.195c-0.022-0.025-0.052-0.055-0.086-0.072c0.045-0.031,0.083-0.063,0.11-0.104
				c0.04-0.063,0.059-0.137,0.059-0.227c0-0.176-0.075-0.297-0.217-0.358c-0.074-0.036-0.168-0.052-0.277-0.052h-0.65h-0.031v0.027
				v1.405v0.033h0.031h0.19h0.033v-0.033v-0.567h0.4c0.071,0,0.128,0.01,0.159,0.021c0.05,0.026,0.08,0.078,0.082,0.16l0.012,0.231
				c0.005,0.055,0.006,0.092,0.01,0.112c0.003,0.021,0.01,0.04,0.019,0.058l0.01,0.021h0.02h0.233h0.032v-0.033v-0.03v-0.021
				L36.223,32.734z M35.868,31.959c-0.047,0.029-0.111,0.045-0.194,0.045h-0.407v-0.416H35.7c0.059,0,0.104,0.008,0.142,0.025
				c0.063,0.031,0.09,0.088,0.09,0.176C35.931,31.871,35.911,31.926,35.868,31.959z"/>
			<path fill="#777777" d="M36.508,31.189c-0.249-0.254-0.582-0.394-0.934-0.394c-0.729,0-1.318,0.599-1.318,1.317
				c0,0.355,0.137,0.689,0.386,0.939c0.249,0.252,0.578,0.389,0.933,0.389c0.352,0,0.686-0.137,0.934-0.389
				c0.247-0.248,0.384-0.578,0.384-0.939C36.892,31.771,36.755,31.441,36.508,31.189z M35.574,33.219
				c-0.293,0-0.572-0.113-0.775-0.322c-0.209-0.205-0.321-0.479-0.321-0.771c0-0.292,0.112-0.563,0.321-0.771
				c0.204-0.211,0.482-0.322,0.775-0.322c0.294,0,0.568,0.111,0.771,0.322c0.211,0.207,0.322,0.479,0.322,0.771
				C36.669,32.729,36.177,33.219,35.574,33.219z"/>
			<g>
				<path fill="#777777" d="M8.749,28.365c0.835,0.273,2.347,0.197,3.376-0.174l2.79-1.012v2.932
					c-0.178,0.029-0.373,0.063-0.555,0.092c-2.791,0.455-5.768,0.266-8.693-0.7c-2.73-0.769-3.186-2.368-1.941-3.292
					c1.152-0.854,3.107-1.492,3.107-1.492l8.082-2.873v3.273l-5.816,2.083C8.07,27.57,7.915,28.094,8.749,28.365z"/>
				<path fill="#777777" d="M37.369,27.221c-0.677,0.854-2.332,1.463-2.332,1.463l-12.322,4.426v-3.262l9.067-3.234
					c1.03-0.362,1.188-0.889,0.353-1.157c-0.836-0.271-2.347-0.194-3.377,0.172l-6.043,2.132v-3.39l0.347-0.117
					c0,0,1.748-0.618,4.201-0.896c2.456-0.268,5.463,0.037,7.822,0.937C37.745,25.131,38.044,26.37,37.369,27.221z"/>
				<path fill="#777777" d="M23.888,21.665v-8.346c0-0.977-0.18-1.878-1.1-2.133c-0.705-0.23-1.14,0.427-1.14,1.404v20.898
					l-5.639-1.791V6.783c2.398,0.444,5.889,1.496,7.77,2.126c4.771,1.641,6.391,3.68,6.391,8.275
					C30.167,21.663,27.402,23.363,23.888,21.665z"/>
			</g>
		</g>
		<g>
			<g>
				<path fill="#777777" d="M126.082,26.051l-3.418-0.002h0.118c-0.064,0-0.118-0.054-0.118-0.115V14.858
					c0-1.702-1.178-2.26-2.831-1.239L99.995,25.803c-0.781,0.479-1.043,1.02-0.853,1.42c0.156,0.344,0.59,0.584,1.443,0.584
					l18.428,0.002c0.055,0.004,0.096,0.039,0.104,0.086v1.56c0,0.063,0.052,0.114,0.11,0.114h3.313c0.063,0,0.115-0.053,0.115-0.114
					V27.93c0-0.066,0.054-0.119,0.112-0.119h3.306c0.063,0,0.12-0.055,0.12-0.117V26.17
					C126.202,26.104,126.146,26.051,126.082,26.051z M119.125,25.926c0,0.068-0.055,0.119-0.116,0.119h-15.444
					c-0.125,0-0.188-0.031-0.209-0.076c-0.019-0.074,0.022-0.127,0.112-0.189l15.371-9.458c0.108-0.066,0.286-0.056,0.286,0.155
					V25.926z"/>
				<path fill="#777777" d="M68.752,21.958H54.877c-1.281,0-2.177,1.083-2.177,2.634v4.861c0,0.064-0.051,0.115-0.116,0.115h-3.298
					c-0.064,0-0.116-0.051-0.116-0.115l-0.001-4.861c0-2.506,1.693-4.393,3.94-4.393h14.475c1.551,0,2.286-1.116,2.286-2.666
					c0-1.55-0.738-2.666-2.286-2.666H49.286c-0.065,0-0.118-0.052-0.118-0.116v-1.529c0-0.063,0.052-0.114,0.116-0.114h19.468
					c3.121,0,4.646,1.924,4.646,4.428C73.398,20.04,71.873,21.958,68.752,21.958z"/>
				<path fill="#777777" d="M100.538,14.863h-9.59c-1.55,0-2.286,1.116-2.286,2.667v7.615c0,2.506-1.53,4.424-4.65,4.424H72.729
					c-0.063,0-0.111-0.051-0.111-0.11V27.93c0-0.064,0.052-0.113,0.109-0.113h10.115c1.553,0,2.287-1.114,2.287-2.666v-7.608
					c0-2.502,1.528-4.426,4.648-4.426l10.76-0.001c0.063,0,0.113,0.051,0.113,0.115v1.529
					C100.652,14.812,100.604,14.863,100.538,14.863z"/>
			</g>
			<g>
				<polygon fill="#777777" points="131.111,29.563 131.111,28.063 130.605,29.563 130.365,29.563 129.861,28.063 129.861,29.563 
					129.62,29.563 129.62,27.715 129.956,27.715 130.486,29.285 131.02,27.715 131.354,27.715 131.354,29.563 				"/>
				<polygon fill="#777777" points="128.779,27.923 128.779,29.563 128.545,29.563 128.545,27.923 127.936,27.923 127.936,27.715 
					129.384,27.715 129.384,27.923 				"/>
			</g>
		</g>
	</g>
</g>
<g id="Oculus">
	<path fill="#FFFFFF" d="M127.493,16.18c-0.445-0.093-0.911-0.13-1.367-0.078c-0.231,0.027-0.449,0.074-0.667,0.157
		c-0.166,0.063-0.318,0.145-0.46,0.258c-0.199,0.16-0.356,0.378-0.39,0.645c-0.027,0.226,0.047,0.434,0.187,0.607
		c0.166,0.206,0.404,0.344,0.638,0.446c0.221,0.095,0.444,0.164,0.678,0.224c0.269,0.071,0.535,0.129,0.809,0.189
		c0.617,0.136,1.229,0.279,1.813,0.511c1.046,0.41,2.037,1.107,2.441,2.246c0.18,0.492,0.221,1.014,0.147,1.529
		c-0.086,0.622-0.339,1.213-0.72,1.711c-0.302,0.387-0.662,0.699-1.08,0.949c-0.567,0.343-1.205,0.549-1.854,0.662
		c-0.509,0.088-1.012,0.117-1.522,0.1c-0.642-0.023-1.256-0.123-1.869-0.297c-1.113-0.316-2.116-0.857-3.006-1.596
		c0.494-0.664,0.992-1.328,1.489-1.994c0.556,0.427,1.128,0.77,1.785,1.014c0.431,0.16,0.861,0.266,1.317,0.321
		c0.404,0.05,0.837,0.062,1.244,0.01c0.295-0.037,0.593-0.108,0.858-0.241c0.205-0.102,0.396-0.238,0.536-0.422
		c0.121-0.154,0.199-0.334,0.221-0.531c0.021-0.211-0.031-0.416-0.141-0.598c-0.126-0.213-0.316-0.375-0.525-0.5
		c-0.266-0.158-0.566-0.266-0.865-0.35c-0.357-0.104-0.729-0.18-1.094-0.26c-1.051-0.229-2.269-0.501-3.142-1.263
		c-0.416-0.361-0.726-0.811-0.894-1.339c-0.185-0.576-0.18-1.185-0.021-1.762c0.128-0.467,0.354-0.899,0.657-1.274
		c0.427-0.523,0.969-0.895,1.583-1.152c0.466-0.194,0.938-0.313,1.438-0.378c0.637-0.084,1.285-0.073,1.922,0.023
		c1.142,0.172,2.2,0.607,3.139,1.281c-0.469,0.639-0.936,1.278-1.398,1.917C128.799,16.59,128.171,16.321,127.493,16.18
		 M104.498,7.877h-2.8V25.99h2.8V7.877z M118.953,25.99c0-3.909,0-7.82,0-11.73c-0.934,0-1.864,0-2.799,0
		c0,0.753,0,4.79-0.004,5.543c-0.002,0.324-0.002,0.646-0.024,0.97c-0.015,0.209-0.036,0.416-0.074,0.621
		c-0.073,0.387-0.2,0.756-0.413,1.092c-0.521,0.813-1.434,1.213-2.357,1.225c-0.941,0.012-1.844-0.375-2.348-1.219
		c-0.203-0.342-0.322-0.717-0.396-1.102c-0.103-0.521-0.123-1.063-0.14-1.586c-0.009-0.342-0.011-0.684-0.011-1.025
		c-0.006-0.582-0.006-1.164-0.006-1.746c0-0.924,0-1.849,0-2.771c-0.933,0-1.864,0-2.799,0c0,0.957,0,3.797,0.006,4.755
		c0.001,0.458,0.006,0.916,0.021,1.374c0.009,0.333,0.021,0.668,0.056,1.002c0.069,0.791,0.216,1.563,0.577,2.289
		c0.739,1.486,2.18,2.353,3.782,2.541c0.785,0.094,1.595,0.021,2.354-0.199c0.729-0.215,1.503-0.604,2.045-1.162
		c0.025,0.377,0.054,0.754,0.08,1.132C117.32,25.99,118.139,25.99,118.953,25.99z M85.302,24.48
		c-0.641-0.66-1.278-1.319-1.918-1.979c-0.495,0.463-1.104,0.774-1.762,0.922c-0.651,0.146-1.349,0.128-1.987-0.082
		c-0.646-0.212-1.199-0.606-1.595-1.165c-0.39-0.552-0.593-1.218-0.63-1.884c-0.035-0.66,0.092-1.354,0.402-1.946
		c0.324-0.623,0.813-1.055,1.451-1.332c0.271-0.118,0.555-0.198,0.848-0.247c0.378-0.064,0.744-0.071,1.125-0.025
		c0.68,0.083,1.298,0.329,1.869,0.694c0.563-0.714,1.125-1.428,1.688-2.142c-0.977-0.767-2.072-1.211-3.305-1.343
		c-1.191-0.127-2.438,0.057-3.525,0.574c-1.111,0.528-1.992,1.366-2.57,2.453c-0.566,1.065-0.813,2.297-0.754,3.493
		c0.062,1.201,0.418,2.394,1.113,3.39c0.708,1.008,1.699,1.723,2.854,2.119c1.143,0.39,2.396,0.455,3.568,0.207
		C83.363,25.938,84.457,25.367,85.302,24.48z M98.396,25.99c0-3.909,0-7.82,0-11.73c-0.937,0-1.865,0-2.801,0
		c0,0.753,0.004,4.79-0.006,5.543c-0.002,0.324-0.004,0.646-0.021,0.97c-0.018,0.209-0.037,0.416-0.076,0.621
		c-0.073,0.387-0.199,0.756-0.414,1.092c-0.521,0.813-1.433,1.213-2.359,1.225c-0.939,0.012-1.838-0.375-2.343-1.219
		c-0.205-0.342-0.323-0.717-0.396-1.102c-0.104-0.521-0.125-1.063-0.141-1.586c-0.007-0.342-0.009-0.684-0.011-1.025
		c-0.004-0.582-0.004-1.164-0.004-1.746c0-0.924,0-1.849,0-2.771c-0.935,0-1.864,0-2.797,0c0,0.957-0.003,3.797,0.003,4.755
		c0.002,0.458,0.008,0.916,0.021,1.374c0.013,0.333,0.026,0.668,0.059,1.002c0.068,0.791,0.221,1.563,0.579,2.289
		c0.737,1.486,2.18,2.353,3.778,2.541c0.788,0.094,1.597,0.021,2.354-0.199c0.729-0.215,1.503-0.604,2.047-1.162
		c0.025,0.377,0.053,0.754,0.078,1.132C96.766,25.99,97.58,25.99,98.396,25.99z M72.566,20.146c-0.006,1.616-0.598,3.206-1.75,4.37
		c-1.152,1.162-2.735,1.771-4.354,1.762c-1.619-0.006-3.198-0.621-4.343-1.791c-1.146-1.172-1.725-2.766-1.719-4.378
		c0.005-1.616,0.595-3.206,1.749-4.37c1.152-1.162,2.735-1.767,4.354-1.761c1.62,0.005,3.198,0.621,4.343,1.791
		C71.993,16.936,72.57,18.529,72.566,20.146z M69.816,20.136c0-0.238-0.021-0.476-0.063-0.709c-0.041-0.229-0.104-0.449-0.187-0.664
		c-0.08-0.204-0.18-0.4-0.297-0.584c-0.112-0.177-0.242-0.343-0.395-0.493c-0.146-0.149-0.313-0.283-0.479-0.399
		c-0.184-0.121-0.37-0.222-0.57-0.304c-0.208-0.085-0.424-0.149-0.646-0.192c-0.227-0.044-0.458-0.067-0.688-0.068
		c-0.23-0.001-0.462,0.02-0.688,0.063c-0.221,0.042-0.438,0.104-0.646,0.188c-0.2,0.081-0.395,0.18-0.573,0.299
		c-0.174,0.115-0.337,0.248-0.484,0.396c-0.147,0.149-0.279,0.314-0.395,0.49c-0.118,0.184-0.219,0.379-0.299,0.583
		c-0.085,0.214-0.148,0.438-0.19,0.662c-0.045,0.233-0.067,0.472-0.068,0.709c-0.001,0.237,0.021,0.475,0.063,0.709
		c0.041,0.227,0.104,0.449,0.187,0.662c0.079,0.205,0.178,0.396,0.296,0.586c0.113,0.177,0.244,0.343,0.391,0.492
		c0.146,0.146,0.308,0.283,0.482,0.396c0.179,0.12,0.37,0.226,0.568,0.308c0.208,0.086,0.425,0.146,0.646,0.188
		c0.228,0.044,0.458,0.063,0.688,0.063c0.23,0,0.462-0.021,0.689-0.063c0.221-0.042,0.438-0.104,0.646-0.188
		c0.2-0.08,0.394-0.185,0.572-0.299c0.175-0.115,0.337-0.248,0.484-0.396c0.146-0.148,0.276-0.313,0.395-0.49
		c0.119-0.184,0.222-0.379,0.302-0.582c0.084-0.213,0.146-0.436,0.188-0.66C69.793,20.611,69.816,20.374,69.816,20.136z
		 M48.806,19.921c0,4.153-1.886,8.081-5.125,10.683c-1.608,1.293-3.452,2.188-5.458,2.668c-1.147,0.276-2.299,0.399-3.476,0.438
		c-0.872,0.026-1.743,0.021-2.614,0.021c-4.13,0-8.261,0-12.391,0c-0.871,0-1.742,0.008-2.613-0.021
		c-1.177-0.038-2.325-0.161-3.474-0.438c-2.006-0.479-3.851-1.375-5.46-2.668c-3.239-2.602-5.126-6.521-5.126-10.681
		c0-4.155,1.886-8.081,5.125-10.681c1.609-1.293,3.453-2.186,5.458-2.668c1.147-0.277,2.299-0.4,3.476-0.438
		c0.871-0.028,1.742-0.021,2.614-0.021c4.13,0,8.261,0,12.391,0c0.871,0,1.742-0.008,2.613,0.021
		c1.176,0.039,2.325,0.161,3.474,0.438c2.006,0.482,3.851,1.375,5.459,2.668C46.919,11.841,48.806,15.766,48.806,19.921z
		 M39.592,19.924c0.001-1.49-0.734-2.872-1.958-3.716c-0.611-0.421-1.288-0.675-2.016-0.793c-0.729-0.119-1.451-0.095-2.18-0.095
		c-5.001,0-10.001,0-15.002,0c-0.728,0-1.451-0.023-2.178,0.095c-0.728,0.118-1.404,0.371-2.015,0.792
		c-1.225,0.842-1.96,2.224-1.961,3.713c-0.001,1.489,0.734,2.872,1.958,3.717c0.61,0.422,1.287,0.676,2.016,0.793
		c0.728,0.118,1.451,0.096,2.18,0.096c5.001,0,10.001,0,15.002,0c0.728,0,1.45,0.022,2.178-0.096
		c0.728-0.117,1.404-0.371,2.015-0.791C38.855,22.796,39.591,21.413,39.592,19.924z"/>
</g>
<g id="Nintendo" display="none">
	<path display="inline" fill="#777777" d="M7.278,14.819c0,1.404,1.138,2.542,2.541,2.542c1.402,0,2.542-1.138,2.542-2.542
		c0-1.403-1.14-2.541-2.542-2.541C8.416,12.278,7.278,13.416,7.278,14.819 M23.17,6.71h-4.182c-0.1,0-0.176,0.079-0.176,0.176
		v26.659c0,0.107,0.088,0.197,0.198,0.197h4.161c3.828,0,6.931-3.104,6.931-6.932V13.641C30.101,9.813,26.998,6.71,23.17,6.71
		 M24.16,24.311c-1.51,0-2.733-1.223-2.733-2.729c0-1.51,1.224-2.734,2.733-2.734c1.509,0,2.733,1.224,2.733,2.734
		C26.893,23.088,25.669,24.311,24.16,24.311 M15.909,6.71H10c-3.828,0-6.931,3.103-6.931,6.931v13.169
		c0,3.828,3.104,6.932,6.931,6.932h5.909c0.11,0,0.198-0.09,0.198-0.197V6.908C16.106,6.799,16.019,6.71,15.909,6.71 M13.928,31.563
		H10c-1.269,0-2.462-0.494-3.36-1.391c-0.896-0.898-1.392-2.092-1.392-3.359V13.643c0-1.27,0.494-2.463,1.392-3.36
		C7.538,9.383,8.731,8.889,10,8.889h3.928V31.563z M58.467,9.808l3.77,5.073h1.498V7.295h-1.541v4.983l-3.73-4.983H56.93v7.585
		h1.538L58.467,9.808L58.467,9.808z M42.937,24.379c-2.068-0.338-3.404-0.723-3.404-1.686c0-1.112,1.487-1.541,3.483-1.541
		c1.855,0,3.716,0.709,4.38,0.986l1.018-2.479c-0.721-0.285-3.008-1.103-5.543-1.103c-3.093,0-6.379,1.508-6.379,4.301
		c0,2.269,1.599,3.427,5.702,4.131c2.893,0.496,4.484,0.771,4.438,2.017c-0.025,0.688-0.555,1.835-3.813,1.835
		c-2.623,0-4.473-0.947-5.113-1.337l-1.355,2.446c0.722,0.379,3.145,1.517,6.262,1.517c4.554,0,6.96-1.575,6.96-4.563
		C49.573,27.176,48.989,25.373,42.937,24.379 M38.533,9.808l3.768,5.073h1.498V7.295h-1.54v4.983l-3.729-4.983h-1.532v7.585h1.538
		L38.533,9.808L38.533,9.808z M65.66,29.146l-3.032-10.385h-2.54l-3.016,10.346l-2.754-10.346h-3.115l4.05,14.313h3.44l2.668-9.43
		l2.649,9.43h3.453l4.072-14.313h-3.115L65.66,29.146z M51.207,7.295h-1.688v7.585h1.688V7.295z M75.096,33.074h3.186V18.761h-3.186
		V33.074z M122.507,7.04c-2.228,0-4.041,1.816-4.041,4.049s1.813,4.048,4.041,4.048c2.229,0,4.04-1.816,4.04-4.048
		S124.734,7.04,122.507,7.04 M122.507,13.45c-1.301,0-2.356-1.06-2.356-2.362c0-1.301,1.061-2.36,2.356-2.36
		c1.3,0,2.356,1.059,2.356,2.36C124.863,12.39,123.807,13.45,122.507,13.45 M123.023,24.4h-6.688v-5.64h-2.961v14.312h2.961v-5.709
		h6.688v5.709h2.963V18.761h-2.963V24.4z M130.811,31.111l-0.494,1.436l-0.49-1.436h-0.547v1.963h0.354v-1.506l0.516,1.488
		l0.007,0.018h0.338l0.007-0.018l0.513-1.488v1.506h0.352v-1.963H130.811z M109.659,7.295h-3.138v7.585h3.138
		c2.149,0,3.899-1.701,3.899-3.793C113.561,8.997,111.811,7.295,109.659,7.295 M109.736,13.287h-1.656V8.89h1.656
		c1.212,0,2.197,0.986,2.197,2.198C111.936,12.301,110.948,13.287,109.736,13.287 M127.24,31.488h0.604v1.586h0.383v-1.586h0.588
		v-0.377h-1.569L127.24,31.488L127.24,31.488z M103.848,21.475c1.616,0,3.123,0.863,3.932,2.223l2.328-2.02
		c-1.426-2.121-3.775-3.38-6.344-3.38c-4.212,0-7.64,3.431-7.64,7.644s3.428,7.639,7.64,7.639c2.563,0,4.918-1.258,6.344-3.379
		l-2.328-2.025c-0.809,1.361-2.313,2.225-3.932,2.225c-2.502,0-4.539-2-4.539-4.459S101.346,21.475,103.848,21.475 M87.016,13.476
		H82.66v-1.779h4.027v-1.373H82.66V8.688h4.355V7.295L81.12,7.297v7.583l5.896-0.002V13.476z M81.771,21.799h4.572v11.275h3.077
		V21.799h4.476v-3.038H81.771V21.799z M75.563,7.295h-6.427v1.61h2.425v5.976h1.631V8.905h2.371V7.295z M100.104,14.881V7.295
		h-1.539v4.983l-3.729-4.983h-1.531v7.585h1.537V9.808l3.771,5.073H100.104z"/>
</g>
<g id="Microsoft" display="none">
	<g id="Layer_1" display="inline">
		<rect x="8.64" y="5.843" fill="#777777" width="13.456" height="13.458"/>
		<rect x="23.494" y="5.843" fill="#777777" width="13.456" height="13.458"/>
		<rect x="8.64" y="20.682" fill="#777777" width="13.456" height="13.457"/>
		<rect x="23.494" y="20.682" fill="#777777" width="13.456" height="13.457"/>
		<path fill="#777777" d="M62.884,21.004c0-0.402,0.146-0.724,0.433-0.998c0.288-0.271,0.625-0.4,1.028-0.4
			c0.416,0,0.771,0.145,1.042,0.417c0.273,0.274,0.417,0.61,0.417,0.981c0,0.383-0.145,0.723-0.434,0.979
			c-0.288,0.272-0.625,0.4-1.042,0.4s-0.756-0.128-1.044-0.4C63.029,21.71,62.884,21.387,62.884,21.004 M65.534,34.139h-2.396
			V23.939h2.396V34.139z"/>
		<path fill="#777777" d="M72.824,32.387c0.354,0,0.755-0.08,1.188-0.24c0.436-0.158,0.817-0.385,1.188-0.658v2.234
			c-0.388,0.221-0.819,0.383-1.302,0.496c-0.481,0.112-1.028,0.176-1.605,0.176c-1.494,0-2.715-0.479-3.662-1.429
			c-0.946-0.946-1.412-2.168-1.412-3.629c0-1.638,0.482-2.987,1.444-4.045c0.964-1.062,2.313-1.591,4.079-1.591
			c0.449,0,0.9,0.064,1.363,0.175c0.465,0.112,0.816,0.259,1.095,0.403v2.295c-0.371-0.271-0.755-0.479-1.142-0.625
			c-0.39-0.146-0.787-0.227-1.188-0.227c-0.946,0-1.702,0.307-2.296,0.916c-0.578,0.604-0.867,1.439-0.867,2.484
			c0,1.023,0.271,1.831,0.835,2.406C71.105,32.113,71.859,32.387,72.824,32.387"/>
		<path fill="#777777" d="M82.025,23.781c0.188,0,0.367,0.015,0.513,0.029c0.146,0.028,0.291,0.063,0.388,0.098v2.424
			c-0.129-0.096-0.307-0.176-0.549-0.254c-0.238-0.08-0.527-0.129-0.883-0.129c-0.594,0-1.09,0.24-1.493,0.738
			c-0.399,0.496-0.608,1.252-0.608,2.293v5.156h-2.392V23.939h2.392v1.604h0.032c0.222-0.561,0.544-0.992,0.996-1.298
			C80.869,23.939,81.396,23.781,82.025,23.781"/>
		<path fill="#777777" d="M83.051,29.191c0-1.688,0.483-3.021,1.432-4.014c0.949-0.98,2.279-1.48,3.971-1.48
			c1.589,0,2.844,0.48,3.738,1.431c0.899,0.946,1.352,2.229,1.352,3.835c0,1.654-0.479,2.977-1.43,3.951
			c-0.946,0.979-2.252,1.462-3.891,1.462c-1.574,0-2.841-0.466-3.757-1.396C83.52,32.064,83.051,30.798,83.051,29.191
			 M85.557,29.111c0,1.062,0.241,1.879,0.729,2.438c0.479,0.563,1.169,0.838,2.065,0.838c0.866,0,1.541-0.273,1.991-0.838
			c0.447-0.563,0.689-1.396,0.689-2.505c0-1.091-0.242-1.926-0.705-2.485c-0.47-0.563-1.144-0.836-1.993-0.836
			c-0.884,0-1.559,0.291-2.053,0.883C85.798,27.199,85.557,28.02,85.557,29.111"/>
		<path fill="#777777" d="M97.104,26.622c0,0.339,0.112,0.61,0.318,0.804c0.227,0.193,0.71,0.434,1.448,0.737
			c0.964,0.388,1.637,0.817,2.021,1.304c0.389,0.48,0.58,1.059,0.58,1.732c0,0.964-0.371,1.734-1.107,2.313
			c-0.734,0.577-1.731,0.867-2.981,0.867c-0.419,0-0.883-0.048-1.396-0.16c-0.517-0.098-0.946-0.242-1.299-0.386v-2.36
			c0.432,0.305,0.896,0.547,1.407,0.723c0.497,0.18,0.968,0.271,1.364,0.271c0.548,0,0.945-0.08,1.206-0.223
			c0.258-0.146,0.387-0.4,0.387-0.771c0-0.336-0.129-0.611-0.397-0.836c-0.275-0.225-0.771-0.496-1.525-0.787
			c-0.885-0.365-1.51-0.785-1.88-1.25c-0.371-0.469-0.562-1.062-0.562-1.767c0-0.916,0.363-1.671,1.09-2.267s1.67-0.883,2.844-0.883
			c0.354,0,0.754,0.028,1.205,0.107c0.449,0.08,0.82,0.18,1.104,0.311v2.274c-0.314-0.208-0.688-0.383-1.104-0.545
			c-0.42-0.146-0.854-0.229-1.254-0.229c-0.447,0-0.818,0.101-1.063,0.272C97.232,26.063,97.104,26.318,97.104,26.622"/>
		<path fill="#777777" d="M102.527,29.191c0-1.688,0.48-3.021,1.434-4.014c0.948-0.98,2.279-1.48,3.966-1.48
			c1.589,0,2.845,0.48,3.742,1.431c0.899,0.946,1.349,2.229,1.349,3.835c0,1.654-0.479,2.977-1.429,3.951
			c-0.948,0.979-2.251,1.462-3.889,1.462c-1.573,0-2.841-0.466-3.757-1.396C102.997,32.064,102.527,30.798,102.527,29.191
			 M105.018,29.111c0,1.062,0.242,1.879,0.729,2.438c0.479,0.563,1.169,0.838,2.067,0.838c0.863,0,1.541-0.273,1.99-0.838
			c0.447-0.563,0.688-1.396,0.688-2.505c0-1.091-0.241-1.926-0.706-2.485c-0.467-0.563-1.145-0.836-1.992-0.836
			c-0.884,0-1.557,0.291-2.053,0.883C105.26,27.199,105.018,28.02,105.018,29.111"/>
		<path fill="#777777" d="M120.936,25.917v5.235c0,1.092,0.254,1.895,0.754,2.438c0.496,0.547,1.271,0.805,2.278,0.805
			c0.339,0,0.689-0.033,1.046-0.109c0.352-0.08,0.607-0.146,0.754-0.242v-1.984c-0.146,0.094-0.32,0.176-0.513,0.234
			c-0.194,0.063-0.372,0.1-0.5,0.1c-0.481,0-0.853-0.131-1.077-0.387c-0.223-0.258-0.335-0.708-0.335-1.335V25.9h2.44v-1.961h-2.424
			v-3.021l-2.409,0.735v2.297h-3.581v-1.23c0-0.611,0.128-1.076,0.398-1.398c0.271-0.318,0.66-0.465,1.153-0.465
			c0.263,0,0.479,0.033,0.688,0.098c0.191,0.064,0.341,0.128,0.421,0.176V19.06c-0.181-0.064-0.37-0.097-0.601-0.128
			c-0.223-0.032-0.479-0.048-0.771-0.048c-1.089,0-1.989,0.336-2.681,1.027c-0.691,0.69-1.045,1.56-1.045,2.635v1.411h-1.701v1.961
			h1.701v8.236h2.427v-8.236L120.936,25.917L120.936,25.917z"/>
		<polygon fill="#777777" points="60.828,19.91 60.828,34.139 58.356,34.139 58.356,22.993 58.324,22.993 53.907,34.139 
			52.269,34.139 47.741,22.993 47.709,22.993 47.709,34.139 45.428,34.139 45.428,19.91 48.961,19.91 53.056,30.46 53.121,30.46 
			57.44,19.91 		"/>
		<path fill="#777777" d="M51.916,13.761c-0.851,0.482-1.815,0.723-2.89,0.723c-0.818,0-1.542-0.177-2.184-0.546
			c-0.627-0.353-1.124-0.868-1.463-1.525c-0.336-0.658-0.512-1.397-0.512-2.216c0-0.867,0.192-1.654,0.561-2.328
			c0.369-0.675,0.899-1.221,1.589-1.605c0.692-0.386,1.462-0.579,2.33-0.579c0.436,0,0.867,0.048,1.301,0.129
			c0.434,0.08,0.787,0.193,1.059,0.321v1.284c-0.642-0.434-1.46-0.642-2.457-0.642c-0.593,0-1.124,0.144-1.605,0.434
			S46.793,7.9,46.538,8.397c-0.258,0.514-0.388,1.092-0.388,1.734c0,1.011,0.274,1.815,0.805,2.409
			c0.528,0.594,1.269,0.883,2.2,0.883c0.593,0,1.123-0.113,1.573-0.354V10.87h-1.815V9.81h3.003V13.761L51.916,13.761z"/>
		<path fill="#777777" d="M58.837,11.625h-4.208c0.016,0.61,0.209,1.076,0.531,1.413c0.336,0.321,0.77,0.498,1.316,0.498
			c0.722,0,1.349-0.209,1.896-0.626v1.027c-0.243,0.16-0.547,0.306-0.915,0.401c-0.369,0.097-0.754,0.145-1.143,0.145
			c-0.914,0-1.638-0.273-2.133-0.82c-0.498-0.545-0.757-1.316-0.757-2.312c0-0.61,0.129-1.172,0.37-1.654
			c0.242-0.497,0.595-0.883,1.028-1.155c0.434-0.273,0.932-0.417,1.463-0.417c0.787,0,1.411,0.256,1.861,0.771
			c0.449,0.513,0.675,1.22,0.675,2.136v0.594L58.837,11.625L58.837,11.625z M57.664,10.709c0-0.529-0.127-0.931-0.369-1.204
			c-0.24-0.273-0.576-0.417-1.026-0.417c-0.401,0-0.756,0.145-1.061,0.434s-0.482,0.69-0.579,1.188L57.664,10.709L57.664,10.709z"/>
		<path fill="#777777" d="M63.398,14.275c-0.112,0.063-0.259,0.112-0.466,0.144c-0.192,0.032-0.369,0.048-0.528,0.048
			c-1.124,0-1.688-0.626-1.688-1.862V9.232h-1.029V8.269h1.029V6.824l1.172-0.37v1.799h1.495v0.964h-1.495v3.178
			c0,0.401,0.064,0.691,0.193,0.851c0.129,0.162,0.354,0.241,0.689,0.241c0.227,0,0.434-0.063,0.612-0.192v0.98H63.398z"/>
		<path fill="#777777" d="M69.21,6.117c0,0.192-0.063,0.354-0.209,0.499c-0.144,0.146-0.319,0.208-0.528,0.208
			s-0.386-0.063-0.528-0.208c-0.146-0.129-0.209-0.306-0.209-0.515s0.08-0.385,0.225-0.513c0.146-0.129,0.32-0.208,0.515-0.208
			c0.191,0,0.368,0.063,0.519,0.208C69.146,5.748,69.21,5.908,69.21,6.117 M69.049,14.338h-1.172V8.269h1.172V14.338z"/>
		<path fill="#777777" d="M74.141,14.275c-0.109,0.063-0.258,0.112-0.466,0.144c-0.192,0.032-0.37,0.048-0.528,0.048
			c-1.125,0-1.688-0.626-1.688-1.862V9.232H70.43V8.269h1.029V6.824l1.172-0.37v1.799h1.492v0.964h-1.492v3.178
			c0,0.401,0.064,0.691,0.193,0.851c0.127,0.162,0.354,0.241,0.688,0.241c0.225,0,0.437-0.063,0.606-0.192v0.98H74.141z"/>
		<path fill="#777777" d="M81.816,6.342c-0.194-0.096-0.403-0.161-0.646-0.161c-0.662,0-0.979,0.401-0.979,1.205v0.867h1.382v0.964
			h-1.382v5.104H79.02v-5.09h-1.027V8.269h1.027V7.337c0-0.643,0.18-1.156,0.547-1.541c0.369-0.385,0.869-0.579,1.512-0.579
			c0.316,0,0.561,0.032,0.755,0.113v1.012H81.816z"/>
		<path fill="#777777" d="M86.137,9.44c-0.063-0.047-0.191-0.096-0.354-0.145c-0.161-0.032-0.303-0.064-0.415-0.064
			c-0.419,0-0.757,0.192-1.015,0.563c-0.26,0.369-0.391,0.851-0.391,1.445v3.099h-1.169V8.269h1.169v1.22h0.033
			c0.128-0.417,0.339-0.738,0.609-0.979c0.271-0.241,0.597-0.354,0.943-0.354c0.241,0,0.438,0.032,0.563,0.081V9.44H86.137z"/>
		<path fill="#777777" d="M92.833,11.272c0,0.979-0.291,1.766-0.853,2.344c-0.563,0.578-1.318,0.867-2.246,0.867
			c-0.916,0-1.657-0.29-2.202-0.851c-0.546-0.563-0.818-1.317-0.818-2.265c0-1.012,0.289-1.798,0.851-2.377
			c0.563-0.578,1.336-0.866,2.313-0.866c0.915,0,1.638,0.272,2.151,0.835C92.574,9.521,92.833,10.292,92.833,11.272 M91.626,11.304
			c0-0.723-0.161-1.269-0.464-1.638c-0.322-0.37-0.754-0.562-1.335-0.562c-0.576,0-1.04,0.192-1.379,0.594
			c-0.339,0.385-0.497,0.948-0.497,1.654c0,0.691,0.158,1.221,0.497,1.606s0.786,0.578,1.379,0.578c0.597,0,1.045-0.193,1.353-0.562
			C91.465,12.572,91.626,12.026,91.626,11.304"/>
		<path fill="#777777" d="M103.316,14.338h-1.17v-3.452c0-0.627-0.103-1.076-0.291-1.365c-0.193-0.29-0.528-0.418-0.996-0.418
			c-0.385,0-0.728,0.177-0.979,0.531c-0.271,0.353-0.401,0.786-0.401,1.269v3.436h-1.172v-3.564c0-1.108-0.435-1.67-1.283-1.67
			c-0.401,0-0.737,0.177-0.994,0.515c-0.262,0.336-0.387,0.771-0.387,1.3v3.437h-1.172V8.269h1.174v0.948h0.018
			c0.432-0.739,1.074-1.092,1.893-1.092c0.389,0,0.738,0.112,1.063,0.32c0.307,0.209,0.524,0.515,0.674,0.9
			c0.24-0.417,0.521-0.723,0.854-0.932c0.34-0.193,0.723-0.305,1.174-0.305c1.332,0,1.994,0.819,1.994,2.473v3.757H103.316z"/>
	</g>
</g>
<g id="Google_Play" display="none">
	<g display="inline">
		<g>
			<g>
				<path fill="#777777" d="M45.208,9.158c0,0.898-0.266,1.614-0.799,2.148c-0.605,0.634-1.396,0.952-2.363,0.952
					c-0.929,0-1.718-0.321-2.368-0.965c-0.648-0.644-0.975-1.442-0.975-2.395s0.325-1.751,0.975-2.395
					c0.65-0.644,1.439-0.966,2.368-0.966c0.46,0,0.901,0.09,1.32,0.27c0.419,0.18,0.755,0.419,1.006,0.719l-0.565,0.566
					c-0.426-0.509-1.013-0.764-1.761-0.764c-0.678,0-1.263,0.238-1.757,0.714s-0.741,1.095-0.741,1.855s0.247,1.379,0.741,1.855
					c0.494,0.477,1.08,0.714,1.757,0.714c0.718,0,1.317-0.239,1.797-0.718c0.313-0.312,0.491-0.746,0.539-1.303h-2.336V8.673h3.118
					C45.193,8.841,45.208,9.002,45.208,9.158z"/>
				<path fill="#777777" d="M50.15,6.471h-2.93v2.04h2.645v0.773H47.22v2.04h2.93v0.791h-3.755V5.681h3.755V6.471z"/>
				<path fill="#777777" d="M53.638,12.114H52.81V6.471h-1.797v-0.79h4.421v0.791h-1.797L53.638,12.114L53.638,12.114z"/>
				<path fill="#777777" d="M58.633,12.114V5.681h0.827v6.434L58.633,12.114L58.633,12.114z"/>
				<path fill="#777777" d="M63.127,12.114H62.3V6.471h-1.797v-0.79h4.421v0.791h-1.797V12.114L63.127,12.114z"/>
				<path fill="#777777" d="M73.293,11.283c-0.633,0.65-1.419,0.977-2.359,0.977c-0.938,0-1.727-0.325-2.354-0.977
					c-0.633-0.648-0.948-1.445-0.948-2.386s0.315-1.736,0.948-2.385c0.631-0.65,1.417-0.976,2.354-0.976
					c0.938,0,1.723,0.327,2.355,0.979c0.635,0.653,0.951,1.447,0.951,2.381C74.24,9.838,73.924,10.633,73.293,11.283z
					 M69.186,10.744c0.479,0.482,1.063,0.723,1.748,0.723c0.689,0,1.272-0.241,1.748-0.723c0.479-0.482,0.715-1.098,0.715-1.847
					S73.16,7.533,72.682,7.05c-0.476-0.482-1.059-0.723-1.748-0.723c-0.688,0-1.271,0.241-1.748,0.723
					c-0.475,0.48-0.713,1.098-0.713,1.847S68.711,10.262,69.186,10.744z"/>
				<path fill="#777777" d="M75.4,12.114V5.681h1.007l3.127,5.005h0.034l-0.034-1.24V5.681h0.827v6.434h-0.862l-3.271-5.247h-0.037
					l0.037,1.24v4.007L75.4,12.114L75.4,12.114z"/>
			</g>
			<path fill="#777777" d="M67.424,21.498c-2.523,0-4.578,1.918-4.578,4.563c0,2.625,2.055,4.563,4.578,4.563
				c2.521,0,4.578-1.938,4.578-4.563C72.002,23.416,69.945,21.498,67.424,21.498z M67.424,28.824c-1.381,0-2.574-1.141-2.574-2.766
				c0-1.646,1.193-2.768,2.574-2.768c1.383,0,2.574,1.122,2.574,2.768C69.998,27.684,68.807,28.824,67.424,28.824z M57.437,21.498
				c-2.521,0-4.578,1.918-4.578,4.563c0,2.625,2.057,4.563,4.578,4.563c2.523,0,4.579-1.938,4.579-4.563
				C62.015,23.416,59.959,21.498,57.437,21.498z M57.437,28.824c-1.382,0-2.574-1.141-2.574-2.766c0-1.646,1.189-2.768,2.574-2.768
				s2.574,1.122,2.574,2.768C60.011,27.684,58.819,28.824,57.437,28.824z M45.558,22.898v1.935h4.629
				c-0.138,1.089-0.501,1.883-1.054,2.437c-0.673,0.674-1.728,1.416-3.575,1.416c-2.851,0-5.08-2.297-5.08-5.146
				s2.229-5.148,5.08-5.148c1.537,0,2.66,0.604,3.489,1.382l1.365-1.365c-1.158-1.105-2.695-1.952-4.854-1.952
				c-3.905,0-7.188,3.179-7.188,7.083c0,3.901,3.283,7.083,7.188,7.083c2.107,0,3.696-0.688,4.94-1.984
				c1.278-1.277,1.676-3.074,1.676-4.525c0-0.447-0.035-0.861-0.104-1.209h-6.512V22.898z M94.143,24.4
				c-0.382-1.021-1.537-2.902-3.9-2.902c-2.354,0-4.307,1.85-4.307,4.563c0,2.561,1.938,4.563,4.526,4.563
				c2.09,0,3.299-1.276,3.802-2.021l-1.556-1.037c-0.519,0.761-1.228,1.264-2.246,1.264c-1.018,0-1.745-0.469-2.211-1.385
				l6.099-2.521L94.143,24.4z M87.922,25.922c-0.051-1.763,1.366-2.66,2.385-2.66c0.795,0,1.469,0.396,1.693,0.967L87.922,25.922z
				 M82.965,30.344h2.003V16.938h-2.003V30.344z M79.682,22.518h-0.064c-0.449-0.535-1.313-1.02-2.4-1.02
				c-2.277,0-4.371,2.005-4.371,4.579c0,2.558,2.094,4.543,4.371,4.543c1.088,0,1.951-0.483,2.4-1.036h0.064v0.656
				c0,1.746-0.933,2.678-2.436,2.678c-1.227,0-1.986-0.881-2.297-1.623l-1.745,0.725c0.501,1.209,1.831,2.695,4.042,2.695
				c2.35,0,4.336-1.383,4.336-4.752v-8.188h-1.9V22.518z M77.385,28.824c-1.383,0-2.539-1.158-2.539-2.747
				c0-1.606,1.156-2.781,2.539-2.781c1.364,0,2.438,1.175,2.438,2.781C79.82,27.666,78.749,28.824,77.385,28.824z M103.527,16.938
				h-4.793v13.406h2v-5.078h2.793c2.219,0,4.396-1.604,4.396-4.164C107.927,18.544,105.746,16.938,103.527,16.938z M103.58,23.398
				h-2.846v-4.594h2.846c1.496,0,2.345,1.238,2.345,2.297C105.925,22.141,105.076,23.398,103.58,23.398z M115.945,21.475
				c-1.448,0-2.948,0.639-3.569,2.053l1.774,0.74c0.381-0.74,1.088-0.979,1.83-0.979c1.031,0,2.086,0.621,2.104,1.729v0.137
				c-0.361-0.205-1.139-0.52-2.087-0.52c-1.914,0-3.863,1.055-3.863,3.021c0,1.793,1.569,2.949,3.329,2.949
				c1.346,0,2.087-0.604,2.553-1.313h0.068v1.032h1.932v-5.141C120.016,22.803,118.239,21.475,115.945,21.475z M115.704,28.82
				c-0.655,0-1.569-0.327-1.569-1.139c0-1.033,1.139-1.435,2.122-1.435c0.878,0,1.293,0.188,1.827,0.442
				C117.93,27.941,116.859,28.82,115.704,28.82z M127.052,21.768l-2.293,5.813h-0.069l-2.379-5.813h-2.154l3.568,8.123l-2.035,4.521
				h2.086l5.504-12.645H127.052L127.052,21.768z M109.029,30.344h2V16.938h-2V30.344z"/>
			<g>
				<path opacity="0.12" fill="#777777" enable-background="new    " d="M5.551,32.83c-0.312-0.33-0.497-0.842-0.497-1.506v0.156
					c0,0.664,0.187,1.176,0.497,1.506l0.08-0.08L5.551,32.83z"/>
			</g>
		</g>
		<g>
			<path fill="#777777" d="M5.26,6.722C5.254,6.734,5.248,6.747,5.242,6.761c-0.04,0.097-0.074,0.202-0.101,0.313
				c-0.012,0.05-0.026,0.098-0.036,0.151c-0.03,0.167-0.05,0.345-0.05,0.54l0,0v0.156v23.56c0,0.42,0.082,0.773,0.215,1.064
				l12.875-12.907L5.26,6.722z"/>
			<path fill="#777777" d="M29.814,19.619c0,0.001,0,0.001,0,0.002c0-0.561-0.375-1.123-1.125-1.548l-4.768-2.709l-4.264,4.274
				l4.243,4.254l4.788-2.727c0.308-0.174,0.536-0.375,0.717-0.586c0.041-0.047,0.093-0.09,0.127-0.138
				c0.014-0.02,0.019-0.042,0.032-0.063C29.723,20.135,29.813,19.879,29.814,19.619c-0.001,0.004-0.003,0.007-0.004,0.01
				C29.812,19.627,29.814,19.623,29.814,19.619z"/>
			<path fill="#777777" d="M18.902,18.879l4.054-4.064L7.78,6.191c-0.009-0.004-0.018-0.005-0.024-0.01
				c-0.198-0.11-0.389-0.19-0.575-0.247C7.135,5.92,7.093,5.917,7.048,5.906c-0.153-0.038-0.3-0.061-0.44-0.063
				c-0.03,0-0.058,0.004-0.087,0.005C6.363,5.854,6.216,5.882,6.079,5.931C6.07,5.934,6.062,5.937,6.054,5.94
				C6.041,5.945,6.031,5.957,6.017,5.963L18.902,18.879z"/>
			<path fill="#777777" d="M18.902,20.397L6.027,33.305c0.475,0.191,1.085,0.127,1.753-0.252l15.156-8.611L18.902,20.397z"/>
		</g>
	</g>
</g>
<g id="Apple" display="none">
	<g display="inline">
		<path fill="#777777" d="M30.128,19.784c-0.029-3.223,2.639-4.791,2.761-4.864c-1.511-2.203-3.853-2.504-4.676-2.528
			c-1.967-0.207-3.875,1.177-4.877,1.177c-1.022,0-2.565-1.157-4.228-1.123c-2.14,0.033-4.142,1.272-5.24,3.196
			c-2.266,3.923-0.576,9.688,1.595,12.859c1.086,1.554,2.355,3.287,4.016,3.226c1.625-0.063,2.232-1.035,4.193-1.035
			c1.943,0,2.513,1.035,4.207,0.996c1.744-0.021,2.842-1.56,3.89-3.127c1.255-1.773,1.759-3.533,1.779-3.623
			C33.508,24.924,30.162,23.646,30.128,19.784z"/>
		<path fill="#777777" d="M26.928,10.306c0.874-1.093,1.472-2.58,1.306-4.089c-1.265,0.056-2.847,0.875-3.758,1.944
			c-0.806,0.942-1.526,2.486-1.34,3.938C24.557,12.205,26.016,11.382,26.928,10.306z"/>
		<g>
			<path fill="#777777" d="M53.665,31.504h-2.271l-1.244-3.908h-4.324l-1.185,3.908H42.43l4.285-13.308h2.646L53.665,31.504z
				 M49.775,25.955L48.65,22.48c-0.119-0.355-0.343-1.191-0.671-2.507h-0.04c-0.132,0.566-0.343,1.402-0.632,2.507l-1.104,3.475
				H49.775z"/>
			<path fill="#777777" d="M64.663,26.588c0,1.633-0.443,2.922-1.33,3.869c-0.794,0.844-1.781,1.264-2.958,1.264
				c-1.271,0-2.185-0.453-2.74-1.361v5.035h-2.132V25.063c0-1.021-0.027-2.076-0.079-3.149h1.875l0.119,1.521h0.04
				c0.711-1.146,1.79-1.722,3.238-1.722c1.132,0,2.077,0.447,2.833,1.345C64.284,23.949,64.663,25.127,64.663,26.588z
				 M62.491,26.666c0-0.934-0.21-1.704-0.632-2.311c-0.461-0.631-1.08-0.947-1.856-0.947c-0.526,0-1.004,0.176-1.431,0.523
				c-0.428,0.35-0.708,0.807-0.839,1.373c-0.066,0.264-0.099,0.479-0.099,0.645v1.605c0,0.691,0.214,1.28,0.642,1.768
				c0.428,0.48,0.984,0.721,1.668,0.721c0.803,0,1.428-0.311,1.875-0.928C62.267,28.496,62.491,27.68,62.491,26.666z"/>
			<path fill="#777777" d="M75.7,26.588c0,1.633-0.443,2.922-1.33,3.869c-0.795,0.844-1.781,1.264-2.959,1.264
				c-1.271,0-2.185-0.453-2.74-1.361v5.035h-2.132V25.063c0-1.021-0.027-2.076-0.079-3.149h1.875l0.119,1.521h0.04
				c0.71-1.146,1.789-1.722,3.238-1.722c1.131,0,2.076,0.447,2.834,1.345C75.32,23.949,75.7,25.127,75.7,26.588z M73.527,26.666
				c0-0.934-0.211-1.704-0.633-2.311c-0.461-0.631-1.078-0.947-1.854-0.947c-0.526,0-1.004,0.176-1.433,0.523
				c-0.43,0.35-0.707,0.807-0.838,1.373c-0.065,0.264-0.104,0.479-0.104,0.645v1.605c0,0.691,0.215,1.28,0.646,1.768
				c0.429,0.479,0.979,0.721,1.67,0.721c0.805,0,1.43-0.311,1.875-0.928C73.303,28.496,73.527,27.68,73.527,26.666z"/>
			<path fill="#777777" d="M88.04,27.771c0,1.133-0.396,2.053-1.183,2.765c-0.866,0.776-2.075,1.165-3.625,1.165
				c-1.438,0-2.58-0.275-3.446-0.829l0.493-1.776c0.935,0.553,1.962,0.83,3.08,0.83c0.804,0,1.429-0.183,1.875-0.544
				c0.445-0.362,0.673-0.846,0.673-1.45c0-0.541-0.188-0.994-0.554-1.363c-0.369-0.362-0.979-0.711-1.836-1.021
				c-2.33-0.866-3.496-2.146-3.496-3.813c0-1.092,0.412-1.982,1.229-2.687C82.075,18.349,83.165,18,84.523,18
				c1.211,0,2.22,0.211,3.021,0.632l-0.535,1.738c-0.754-0.408-1.604-0.612-2.557-0.612c-0.752,0-1.343,0.185-1.765,0.553
				c-0.354,0.33-0.535,0.73-0.535,1.207c0,0.524,0.205,0.961,0.611,1.303c0.354,0.314,1,0.658,1.937,1.027
				c1.146,0.461,1.987,1,2.526,1.616C87.77,26.081,88.04,26.852,88.04,27.771z"/>
			<path fill="#777777" d="M95.107,23.508h-2.354v4.659c0,1.185,0.414,1.776,1.244,1.776c0.381,0,0.694-0.032,0.944-0.104
				l0.062,1.619c-0.42,0.155-0.973,0.231-1.653,0.231c-0.847,0-1.5-0.258-1.979-0.77c-0.479-0.516-0.711-1.375-0.711-2.588v-4.837
				h-1.396V21.9h1.396v-1.756l2.094-0.632V21.9h2.354V23.508L95.107,23.508z"/>
			<path fill="#777777" d="M105.689,26.627c0,1.475-0.422,2.686-1.27,3.633c-0.881,0.975-2.053,1.461-3.514,1.461
				c-1.41,0-2.531-0.467-3.367-1.4c-0.836-0.932-1.254-2.107-1.254-3.528c0-1.483,0.436-2.705,1.293-3.647
				c0.857-0.947,2.021-1.426,3.48-1.426c1.408,0,2.539,0.473,3.396,1.401C105.282,24.021,105.689,25.191,105.689,26.627z
				 M103.479,26.676c0-0.879-0.188-1.633-0.565-2.264c-0.447-0.762-1.091-1.143-1.916-1.143c-0.854,0-1.515,0.381-1.955,1.143
				c-0.386,0.631-0.572,1.398-0.572,2.304c0,0.88,0.188,1.636,0.572,2.265c0.461,0.768,1.104,1.146,1.938,1.146
				c0.813,0,1.453-0.393,1.916-1.162C103.282,28.316,103.479,27.557,103.479,26.676z"/>
			<path fill="#777777" d="M112.622,23.783c-0.211-0.039-0.437-0.059-0.672-0.059c-0.75,0-1.33,0.276-1.738,0.85
				c-0.354,0.5-0.532,1.132-0.532,1.895v5.035h-2.132V24.93c0-1.104-0.021-2.113-0.062-3.021h1.854l0.078,1.836h0.063
				c0.228-0.632,0.58-1.14,1.063-1.521c0.479-0.349,0.988-0.52,1.541-0.52c0.197,0,0.375,0.02,0.533,0.039L112.622,23.783
				L112.622,23.783z"/>
			<path fill="#777777" d="M122.157,26.252c0,0.383-0.025,0.704-0.078,0.967h-6.396c0.021,0.948,0.334,1.674,0.928,2.174
				c0.539,0.446,1.234,0.67,2.092,0.67c0.947,0,1.811-0.146,2.588-0.453l0.334,1.479c-0.908,0.396-1.98,0.593-3.217,0.593
				c-1.488,0-2.656-0.438-3.506-1.312c-0.85-0.875-1.273-2.052-1.273-3.524c0-1.445,0.395-2.65,1.186-3.611
				c0.828-1.021,1.947-1.539,3.355-1.539c1.383,0,2.43,0.518,3.141,1.539C121.874,24.047,122.157,25.055,122.157,26.252z
				 M120.124,25.699c0.015-0.633-0.125-1.178-0.414-1.639c-0.369-0.6-0.937-0.896-1.698-0.896c-0.697,0-1.265,0.289-1.697,0.869
				c-0.354,0.461-0.563,1.021-0.631,1.653L120.124,25.699L120.124,25.699z"/>
		</g>
		<g>
			<g>
				<path fill="#777777" d="M45.211,13.491c-0.593,0-1.106-0.029-1.533-0.078V6.979c0.553-0.087,1.154-0.136,1.805-0.136
					c2.445,0,3.571,1.203,3.571,3.164C49.054,12.269,47.724,13.491,45.211,13.491z M45.569,7.668c-0.33,0-0.611,0.02-0.844,0.068
					v4.891c0.126,0.02,0.368,0.029,0.708,0.029c1.602,0,2.514-0.912,2.514-2.62C47.947,8.513,47.122,7.668,45.569,7.668z"/>
				<path fill="#777777" d="M52.563,13.54c-1.378,0-2.271-1.029-2.271-2.426c0-1.456,0.912-2.494,2.349-2.494
					c1.358,0,2.271,0.98,2.271,2.417C54.912,12.511,53.971,13.54,52.563,13.54z M52.603,9.386c-0.757,0-1.242,0.708-1.242,1.698
					c0,0.971,0.495,1.679,1.23,1.679c0.737,0,1.232-0.757,1.232-1.699C53.825,10.104,53.34,9.386,52.603,9.386z"/>
				<path fill="#777777" d="M62.77,8.717l-1.475,4.716h-0.961l-0.611-2.048c-0.153-0.514-0.281-1.021-0.379-1.523h-0.02
					c-0.077,0.514-0.223,1.029-0.378,1.523l-0.65,2.048h-0.971l-1.388-4.716h1.077l0.534,2.242c0.126,0.534,0.232,1.038,0.32,1.514
					h0.02c0.077-0.397,0.203-0.893,0.388-1.504l0.67-2.251H59.8l0.641,2.203c0.155,0.534,0.281,1.058,0.379,1.553h0.026
					c0.068-0.485,0.175-1,0.32-1.553l0.573-2.203L62.77,8.717L62.77,8.717z"/>
				<path fill="#777777" d="M68.2,13.433h-1.048v-2.708c0-0.834-0.32-1.252-0.951-1.252c-0.621,0-1.048,0.534-1.048,1.155v2.805
					h-1.048v-3.368c0-0.417-0.01-0.864-0.039-1.349h0.922l0.049,0.728h0.029C65.348,8.94,65.92,8.62,66.561,8.62
					c0.99,0,1.64,0.757,1.64,1.989L68.2,13.433L68.2,13.433z"/>
				<path fill="#777777" d="M71.09,13.433h-1.049v-6.88h1.049V13.433z"/>
				<path fill="#777777" d="M74.911,13.54c-1.377,0-2.271-1.029-2.271-2.426c0-1.456,0.908-2.494,2.35-2.494
					c1.357,0,2.271,0.98,2.271,2.417C77.26,12.511,76.318,13.54,74.911,13.54z M74.95,9.386c-0.757,0-1.242,0.708-1.242,1.698
					c0,0.971,0.496,1.679,1.231,1.679c0.732,0,1.229-0.757,1.229-1.699C76.172,10.104,75.688,9.386,74.95,9.386z"/>
				<path fill="#777777" d="M81.391,13.433l-0.076-0.543H81.29c-0.319,0.437-0.787,0.65-1.379,0.65
					c-0.849,0-1.445-0.592-1.445-1.388c0-1.164,1.013-1.766,2.759-1.766v-0.087c0-0.621-0.328-0.932-0.979-0.932
					c-0.466,0-0.873,0.117-1.231,0.352L78.8,9.028c0.438-0.272,0.979-0.408,1.619-0.408c1.231,0,1.854,0.65,1.854,1.951v1.737
					c0,0.476,0.021,0.845,0.063,1.126L81.391,13.433L81.391,13.433z M81.247,11.084c-1.164,0-1.748,0.282-1.748,0.951
					c0,0.495,0.301,0.737,0.719,0.737c0.533,0,1.029-0.407,1.029-0.96V11.084z"/>
				<path fill="#777777" d="M87.357,13.433l-0.049-0.757h-0.029c-0.301,0.572-0.809,0.864-1.516,0.864c-1.141,0-1.979-1-1.979-2.407
					c0-1.477,0.873-2.514,2.064-2.514c0.631,0,1.077,0.213,1.329,0.641H87.2V6.553h1.049v5.609c0,0.456,0.011,0.883,0.039,1.271
					H87.357z M87.202,10.658c0-0.66-0.438-1.223-1.104-1.223c-0.775,0-1.252,0.689-1.252,1.659c0,0.951,0.493,1.602,1.231,1.602
					c0.659,0,1.125-0.573,1.125-1.252V10.658L87.202,10.658z"/>
				<path fill="#777777" d="M94.902,13.54c-1.377,0-2.271-1.029-2.271-2.426c0-1.456,0.912-2.494,2.35-2.494
					c1.357,0,2.271,0.98,2.271,2.417C97.252,12.511,96.311,13.54,94.902,13.54z M94.941,9.386c-0.756,0-1.241,0.708-1.241,1.698
					c0,0.971,0.495,1.679,1.229,1.679s1.229-0.757,1.229-1.699C96.165,10.104,95.68,9.386,94.941,9.386z"/>
				<path fill="#777777" d="M102.887,13.433h-1.049v-2.708c0-0.834-0.32-1.252-0.951-1.252c-0.621,0-1.047,0.534-1.047,1.155v2.805
					h-1.049v-3.368c0-0.417-0.01-0.864-0.039-1.349h0.922l0.049,0.728h0.029c0.281-0.504,0.854-0.825,1.494-0.825
					c0.99,0,1.641,0.757,1.641,1.989V13.433z"/>
				<path fill="#777777" d="M109.938,9.503h-1.147v2.29c0,0.583,0.198,0.874,0.604,0.874c0.188,0,0.342-0.02,0.467-0.049
					l0.027,0.796c-0.203,0.078-0.475,0.117-0.813,0.117c-0.826,0-1.32-0.456-1.32-1.65V9.503h-0.688V8.717h0.688V7.853l1.029-0.311
					v1.174h1.152V9.503L109.938,9.503z"/>
				<path fill="#777777" d="M115.486,13.433h-1.047v-2.688c0-0.844-0.319-1.271-0.951-1.271c-0.543,0-1.049,0.369-1.049,1.116v2.843
					h-1.047v-6.88h1.047v2.833h0.021c0.33-0.514,0.808-0.767,1.418-0.767c0.998,0,1.608,0.776,1.608,2.009V13.433L115.486,13.433z"
					/>
				<path fill="#777777" d="M121.17,11.327h-3.145c0.02,0.893,0.605,1.397,1.48,1.397c0.471,0,0.896-0.078,1.271-0.223l0.16,0.728
					c-0.442,0.194-0.971,0.291-1.582,0.291c-1.476,0-2.348-0.932-2.348-2.377c0-1.446,0.896-2.533,2.229-2.533
					c1.202,0,1.961,0.893,1.961,2.242C121.209,11.036,121.2,11.201,121.17,11.327z M120.209,10.58c0-0.728-0.367-1.242-1.037-1.242
					c-0.602,0-1.078,0.524-1.146,1.242H120.209z"/>
			</g>
		</g>
	</g>
</g>
<g id="Amazon" display="none">
	<g display="inline">
		<path fill="#777777" d="M37.713,31.047c-3.245,2.395-7.948,3.668-12,3.668c-5.676,0-10.788-2.1-14.656-5.592
			c-0.304-0.273-0.034-0.648,0.332-0.438c4.173,2.43,9.335,3.893,14.666,3.893c3.596,0,7.549-0.747,11.188-2.29
			C37.79,30.057,38.25,30.648,37.713,31.047"/>
		<path fill="#777777" d="M39.063,29.506c-0.415-0.531-2.743-0.252-3.79-0.127c-0.316,0.039-0.365-0.238-0.079-0.439
			c1.855-1.303,4.898-0.928,5.254-0.485c0.354,0.438-0.094,3.487-1.834,4.942c-0.27,0.229-0.523,0.104-0.403-0.188
			C38.603,32.229,39.478,30.038,39.063,29.506"/>
		<path fill="#777777" d="M35.348,19.725v-1.269c0.001-0.192,0.146-0.321,0.322-0.32l5.681-0.001c0.181,0,0.328,0.132,0.328,0.319
			v1.088c-0.002,0.183-0.156,0.42-0.429,0.798l-2.942,4.201c1.092-0.025,2.248,0.139,3.241,0.695
			c0.223,0.127,0.283,0.313,0.301,0.494v1.354c0,0.188-0.205,0.402-0.419,0.29c-1.748-0.915-4.066-1.017-6.002,0.011
			c-0.197,0.105-0.404-0.105-0.404-0.294v-1.284c0-0.207,0.004-0.559,0.211-0.871l3.411-4.892h-2.969
			C35.495,20.044,35.349,19.913,35.348,19.725"/>
		<path fill="#777777" d="M14.624,27.643h-1.728c-0.166-0.012-0.296-0.135-0.309-0.293l0.001-8.871c0-0.178,0.149-0.32,0.333-0.32
			h1.609c0.169,0.008,0.304,0.136,0.313,0.299v1.158h0.032c0.42-1.121,1.209-1.643,2.274-1.643c1.082,0,1.759,0.522,2.243,1.643
			c0.419-1.121,1.372-1.643,2.388-1.643c0.726,0,1.516,0.298,2,0.97c0.549,0.748,0.436,1.831,0.436,2.782l-0.001,5.598
			c0,0.182-0.15,0.32-0.334,0.32h-1.726c-0.174-0.012-0.313-0.146-0.313-0.314V22.62c0-0.373,0.032-1.308-0.049-1.661
			c-0.129-0.598-0.516-0.766-1.016-0.766c-0.419,0-0.855,0.28-1.033,0.728c-0.177,0.448-0.161,1.194-0.161,1.699v4.702
			c0,0.177-0.149,0.318-0.333,0.318h-1.726c-0.173-0.015-0.313-0.148-0.313-0.318l-0.001-4.702c0-0.989,0.161-2.444-1.063-2.444
			c-1.243,0-1.194,1.417-1.194,2.444l-0.001,4.702C14.958,27.499,14.809,27.643,14.624,27.643"/>
		<path fill="#777777" d="M46.57,17.973c2.563,0,3.951,2.203,3.951,5.001c0,2.707-1.532,4.854-3.951,4.854
			c-2.519,0-3.891-2.203-3.891-4.946C42.681,20.119,44.068,17.973,46.57,17.973 M46.585,19.782c-1.274,0-1.354,1.736-1.354,2.818
			c0,1.084-0.017,3.396,1.339,3.396c1.338,0,1.404-1.866,1.404-3.006c0-0.746-0.033-1.645-0.26-2.354
			C47.52,20.025,47.132,19.782,46.585,19.782z"/>
		<path fill="#777777" d="M53.847,27.643h-1.722c-0.173-0.012-0.309-0.146-0.309-0.314l-0.004-8.874
			c0.015-0.164,0.157-0.291,0.332-0.291h1.604c0.151,0.008,0.275,0.111,0.307,0.248v1.356h0.033c0.484-1.213,1.16-1.79,2.355-1.79
			c0.771,0,1.533,0.279,2.017,1.045c0.451,0.708,0.451,1.904,0.451,2.763v5.578c-0.019,0.154-0.16,0.277-0.332,0.277h-1.732
			c-0.161-0.011-0.29-0.127-0.307-0.277v-4.813c0-0.972,0.113-2.391-1.082-2.391c-0.419,0-0.806,0.28-1.001,0.71
			c-0.241,0.541-0.274,1.077-0.274,1.681v4.771C54.181,27.499,54.033,27.643,53.847,27.643"/>
		<path fill="#777777" d="M30.818,23.404c0,0.675,0.017,1.234-0.324,1.834c-0.274,0.486-0.711,0.787-1.196,0.787
			c-0.664,0-1.051-0.506-1.051-1.256c0-1.477,1.321-1.738,2.57-1.738L30.818,23.404 M32.561,27.619
			c-0.114,0.104-0.28,0.109-0.409,0.041c-0.573-0.479-0.677-0.698-0.99-1.152c-0.949,0.967-1.621,1.258-2.85,1.258
			c-1.456,0-2.587-0.896-2.587-2.695c0-1.397,0.76-2.354,1.843-2.82c0.938-0.411,2.248-0.48,3.25-0.604v-0.225
			c0-0.41,0.033-0.896-0.21-1.254c-0.21-0.316-0.614-0.448-0.971-0.448c-0.659,0-1.245,0.338-1.389,1.038
			c-0.03,0.156-0.144,0.311-0.3,0.316l-1.675-0.18c-0.142-0.033-0.299-0.146-0.258-0.363c0.388-2.031,2.222-2.645,3.865-2.645
			c0.842,0,1.939,0.223,2.603,0.86c0.841,0.786,0.759,1.834,0.759,2.975v2.692c0,0.812,0.337,1.166,0.653,1.603
			c0.111,0.156,0.135,0.344-0.005,0.459c-0.353,0.295-0.979,0.84-1.326,1.147L32.561,27.619z"/>
		<path fill="#777777" d="M8.162,23.404c0,0.675,0.017,1.234-0.324,1.834c-0.274,0.486-0.711,0.787-1.196,0.787
			c-0.662,0-1.051-0.506-1.051-1.256c0-1.477,1.321-1.738,2.571-1.738V23.404 M9.904,27.619c-0.114,0.104-0.28,0.109-0.409,0.041
			c-0.574-0.479-0.677-0.698-0.99-1.152c-0.949,0.967-1.621,1.258-2.85,1.258c-1.455,0-2.587-0.896-2.587-2.695
			c0-1.397,0.76-2.354,1.843-2.82c0.938-0.411,2.247-0.48,3.25-0.604v-0.225c0-0.41,0.033-0.896-0.209-1.254
			c-0.211-0.316-0.615-0.448-0.971-0.448c-0.659,0-1.246,0.338-1.389,1.038c-0.03,0.156-0.144,0.311-0.3,0.316l-1.676-0.18
			c-0.141-0.033-0.299-0.146-0.258-0.363c0.385-2.031,2.22-2.645,3.865-2.645c0.841,0,1.94,0.223,2.604,0.86
			c0.84,0.786,0.759,1.834,0.759,2.975v2.692c0,0.812,0.337,1.166,0.652,1.603c0.108,0.156,0.135,0.344-0.005,0.459
			c-0.353,0.295-0.981,0.84-1.326,1.147L9.904,27.619z"/>
		<path fill="#777777" d="M65.923,27.743c-0.844,0-1.525-0.253-2.048-0.759c-0.524-0.506-0.786-1.162-0.786-1.967
			c0-0.896,0.321-1.604,0.966-2.129c0.646-0.529,1.507-0.799,2.589-0.799c0.637,0,1.336,0.094,2.092,0.271v-1.061
			c0-0.613-0.133-1.042-0.396-1.283c-0.265-0.24-0.728-0.36-1.389-0.36c-0.397,0-0.837,0.039-1.318,0.117
			c-0.482,0.078-0.938,0.189-1.371,0.334c-0.121,0.034-0.223,0.053-0.307,0.053c-0.156,0-0.235-0.112-0.235-0.342v-0.669
			c0-0.168,0.025-0.288,0.073-0.36c0.048-0.071,0.174-0.149,0.38-0.234c0.938-0.361,1.978-0.541,3.122-0.541
			c1.18,0,2.047,0.24,2.605,0.722c0.563,0.481,0.842,1.232,0.842,2.255v6.083c0,0.264-0.135,0.396-0.396,0.396h-0.959
			c-0.264,0-0.412-0.121-0.449-0.361l-0.09-0.521c-0.423,0.359-0.889,0.646-1.396,0.85C66.936,27.643,66.427,27.743,65.923,27.743
			 M66.517,26.229c0.349,0,0.716-0.076,1.102-0.229c0.384-0.148,0.757-0.363,1.117-0.639v-1.732
			c-0.639-0.133-1.202-0.199-1.696-0.199c-1.251,0-1.875,0.487-1.875,1.463c0,0.42,0.12,0.748,0.36,0.981
			C65.765,26.109,66.097,26.229,66.517,26.229z"/>
		<path fill="#777777" d="M73.057,31.189c-0.267,0-0.396-0.133-0.396-0.396v-12.11c0-0.264,0.132-0.397,0.396-0.397h0.991
			c0.265,0,0.423,0.121,0.47,0.36l0.108,0.559c0.42-0.384,0.888-0.678,1.397-0.882c0.512-0.207,1.045-0.307,1.598-0.307
			c1.145,0,2.055,0.427,2.734,1.279c0.68,0.858,1.021,2.006,1.021,3.449c0,1-0.166,1.871-0.497,2.615
			c-0.331,0.746-0.792,1.318-1.381,1.715c-0.589,0.398-1.264,0.598-2.021,0.598c-0.506,0-0.99-0.087-1.461-0.263
			c-0.471-0.173-0.879-0.417-1.229-0.729v4.114c0,0.265-0.133,0.396-0.396,0.396H73.057 M76.938,25.992
			c0.771,0,1.342-0.262,1.713-0.786c0.373-0.522,0.563-1.319,0.563-2.392c0-1.063-0.186-1.844-0.55-2.354
			c-0.368-0.514-0.938-0.768-1.707-0.768c-0.78,0-1.504,0.229-2.166,0.686v4.909C75.462,25.757,76.178,25.992,76.938,25.992z"/>
		<path fill="#777777" d="M83.307,31.189c-0.266,0-0.396-0.133-0.396-0.396v-12.11c0-0.264,0.132-0.397,0.396-0.397h0.992
			c0.266,0,0.422,0.121,0.469,0.36l0.109,0.559c0.42-0.384,0.887-0.678,1.398-0.882c0.511-0.207,1.043-0.307,1.598-0.307
			c1.143,0,2.054,0.427,2.732,1.279c0.681,0.858,1.021,2.006,1.021,3.449c0,1-0.166,1.871-0.496,2.615
			c-0.332,0.746-0.792,1.318-1.382,1.715c-0.589,0.398-1.264,0.598-2.021,0.598c-0.506,0-0.99-0.087-1.463-0.263
			c-0.47-0.173-0.879-0.417-1.229-0.729v4.114c0,0.265-0.133,0.396-0.396,0.396H83.307 M87.188,25.992
			c0.771,0,1.344-0.262,1.717-0.786c0.372-0.522,0.562-1.319,0.562-2.392c0-1.063-0.187-1.844-0.551-2.354
			c-0.367-0.514-0.938-0.768-1.706-0.768c-0.781,0-1.504,0.229-2.166,0.686v4.909C85.713,25.757,86.43,25.992,87.188,25.992z"/>
		<path fill="#777777" d="M95.62,27.743c-0.95,0-1.828-0.156-2.636-0.47c-0.191-0.074-0.315-0.147-0.369-0.229
			c-0.055-0.073-0.081-0.205-0.081-0.388V26.01c0-0.24,0.084-0.361,0.253-0.361c0.084,0,0.253,0.037,0.505,0.108
			c0.854,0.24,1.624,0.36,2.312,0.36c0.604,0,1.041-0.094,1.315-0.278c0.276-0.188,0.416-0.474,0.416-0.858
			c0-0.266-0.084-0.479-0.252-0.641c-0.17-0.162-0.479-0.328-0.938-0.496l-1.498-0.576c-1.348-0.519-2.021-1.356-2.021-2.523
			c0-0.842,0.313-1.507,0.938-1.995c0.627-0.487,1.463-0.729,2.51-0.729c0.746,0,1.498,0.127,2.256,0.377
			c0.182,0.061,0.301,0.13,0.361,0.208c0.061,0.08,0.09,0.215,0.09,0.406v0.634c0,0.131-0.021,0.224-0.063,0.278
			C98.673,19.973,98.6,20,98.49,20c-0.063,0-0.211-0.03-0.451-0.091c-0.76-0.179-1.372-0.269-1.841-0.269
			c-0.554,0-0.96,0.079-1.22,0.242c-0.26,0.162-0.391,0.416-0.391,0.769c0,0.268,0.098,0.479,0.278,0.646
			c0.188,0.16,0.521,0.341,1.002,0.532l1.389,0.535c0.728,0.277,1.243,0.607,1.563,0.992c0.316,0.392,0.479,0.873,0.479,1.463
			c0,0.902-0.322,1.615-0.976,2.143C97.678,27.48,96.775,27.743,95.62,27.743"/>
		<path fill="#777777" d="M104.354,27.6c-0.947,0-1.649-0.223-2.105-0.668c-0.458-0.445-0.688-1.125-0.688-2.039V19.91h-1.153
			c-0.265,0-0.396-0.132-0.396-0.396V18.99c0-0.156,0.031-0.268,0.095-0.333c0.061-0.063,0.152-0.111,0.287-0.135l1.243-0.18
			l0.271-2.186c0.013-0.145,0.055-0.247,0.127-0.307c0.069-0.061,0.181-0.091,0.323-0.091h0.938c0.268,0,0.396,0.134,0.396,0.396
			v2.129h2.222c0.265,0,0.396,0.133,0.396,0.397v0.831c0,0.265-0.134,0.396-0.396,0.396h-2.222v4.872
			c0,0.41,0.102,0.701,0.298,0.875c0.198,0.176,0.532,0.263,1.002,0.263c0.276,0,0.5-0.019,0.668-0.054
			c0.17-0.037,0.308-0.055,0.414-0.055c0.204,0,0.308,0.115,0.308,0.344v0.648c0,0.189-0.031,0.324-0.099,0.402
			c-0.065,0.078-0.188,0.146-0.369,0.188C105.4,27.531,104.885,27.6,104.354,27.6"/>
		<path fill="#777777" d="M111.38,27.744c-1.396,0-2.485-0.432-3.267-1.292c-0.783-0.858-1.174-2.054-1.174-3.582
			c0-1.526,0.391-2.718,1.174-3.574c0.781-0.853,1.869-1.281,3.267-1.281c1.396,0,2.484,0.428,3.267,1.281
			c0.783,0.856,1.176,2.046,1.176,3.574s-0.393,2.724-1.176,3.582C113.864,27.313,112.775,27.744,111.38,27.744 M111.38,26.064
			c1.517,0,2.272-1.065,2.272-3.194c0-2.117-0.758-3.176-2.272-3.176c-1.517,0-2.274,1.059-2.274,3.176
			C109.105,24.999,109.863,26.064,111.38,26.064z"/>
		<path fill="#777777" d="M117.73,27.473c-0.27,0-0.396-0.133-0.396-0.396v-8.392c0-0.266,0.132-0.397,0.396-0.397h0.957
			c0.17,0,0.283,0.023,0.353,0.072c0.065,0.049,0.11,0.139,0.135,0.272l0.218,1.028c0.48-0.529,0.937-0.903,1.354-1.118
			c0.42-0.217,0.878-0.327,1.371-0.327h0.071c0.154,0,0.285,0.016,0.389,0.045c0.104,0.029,0.175,0.082,0.217,0.152
			c0.041,0.074,0.063,0.206,0.063,0.397v0.976c0,0.252-0.104,0.379-0.32,0.379c-0.071,0-0.174-0.006-0.301-0.019
			c-0.125-0.011-0.264-0.018-0.404-0.018c-0.893,0-1.68,0.229-2.363,0.688v6.266c0,0.268-0.132,0.396-0.396,0.396h-1.338"/>
		<path fill="#777777" d="M127.961,27.744c-1.518,0-2.665-0.409-3.447-1.229c-0.781-0.818-1.173-2.014-1.173-3.572
			c0-1.553,0.384-2.762,1.146-3.628c0.768-0.866,1.834-1.299,3.204-1.299c1.183,0,2.085,0.322,2.719,0.966
			c0.632,0.645,0.943,1.556,0.943,2.734c0,0.409-0.025,0.837-0.091,1.279c-0.021,0.157-0.065,0.262-0.136,0.317
			c-0.064,0.055-0.15,0.082-0.262,0.082h-5.562c0.034,0.912,0.294,1.584,0.771,2.012c0.475,0.427,1.206,0.641,2.191,0.641
			c0.722,0,1.479-0.113,2.271-0.343c0.096-0.024,0.168-0.042,0.217-0.056c0.051-0.012,0.092-0.021,0.127-0.021
			c0.184,0,0.271,0.12,0.271,0.359v0.646c0,0.182-0.026,0.313-0.08,0.389c-0.057,0.078-0.18,0.154-0.37,0.229
			C129.898,27.581,128.982,27.744,127.961,27.744 M129.479,21.969v-0.145c0-0.734-0.158-1.295-0.479-1.68
			c-0.318-0.386-0.785-0.577-1.398-0.577c-0.646,0-1.18,0.217-1.588,0.65s-0.646,1.017-0.703,1.75L129.479,21.969L129.479,21.969z"
			/>
		<path fill="#777777" d="M45.198,12.637c-0.446,0-0.803-0.125-1.07-0.381C43.86,12,43.727,11.66,43.727,11.232
			c0-0.458,0.164-0.826,0.49-1.098c0.327-0.275,0.767-0.41,1.32-0.41c0.352,0,0.748,0.053,1.188,0.159V9.261
			c0-0.339-0.078-0.579-0.231-0.716c-0.154-0.139-0.417-0.209-0.788-0.209c-0.433,0-0.857,0.063-1.272,0.189
			c-0.145,0.044-0.236,0.066-0.273,0.066c-0.076,0-0.114-0.057-0.114-0.17V8.167c0-0.082,0.013-0.142,0.038-0.179
			c0.025-0.037,0.076-0.072,0.151-0.104c0.193-0.088,0.44-0.159,0.74-0.212c0.299-0.053,0.596-0.081,0.892-0.081
			c0.597,0,1.037,0.125,1.32,0.373c0.283,0.249,0.424,0.627,0.424,1.135v3.225c0,0.126-0.063,0.189-0.188,0.189h-0.405
			c-0.12,0-0.188-0.061-0.208-0.18l-0.047-0.311c-0.226,0.194-0.477,0.346-0.75,0.452C45.739,12.583,45.468,12.637,45.198,12.637
			 M45.424,11.93c0.208,0,0.424-0.041,0.65-0.123c0.228-0.082,0.444-0.201,0.651-0.358v-0.961c-0.34-0.082-0.673-0.123-1-0.123
			c-0.71,0-1.065,0.274-1.065,0.821c0,0.239,0.066,0.423,0.198,0.55C44.99,11.866,45.179,11.93,45.424,11.93z"/>
		<path fill="#777777" d="M50.196,12.515c-0.088,0-0.153-0.013-0.194-0.039c-0.041-0.024-0.083-0.096-0.127-0.217l-1.669-4.188
			c-0.013-0.038-0.027-0.075-0.042-0.113c-0.016-0.038-0.024-0.072-0.024-0.104c0-0.081,0.047-0.122,0.143-0.122h0.557
			c0.094,0,0.161,0.012,0.199,0.037c0.038,0.026,0.079,0.098,0.123,0.217l1.292,3.678l1.292-3.678
			c0.043-0.119,0.085-0.191,0.123-0.217c0.038-0.025,0.103-0.037,0.197-0.037h0.519c0.095,0,0.143,0.041,0.143,0.122
			c0,0.032-0.009,0.066-0.025,0.104c-0.014,0.038-0.029,0.076-0.042,0.113L51,12.259c-0.044,0.121-0.087,0.192-0.127,0.217
			c-0.042,0.026-0.105,0.039-0.193,0.039H50.196"/>
		<path fill="#777777" d="M54.571,12.637c-0.446,0-0.802-0.125-1.07-0.381C53.233,12,53.1,11.66,53.1,11.232
			c0-0.458,0.164-0.826,0.491-1.098c0.326-0.275,0.766-0.41,1.32-0.41c0.352,0,0.747,0.053,1.187,0.159V9.261
			c0-0.339-0.077-0.579-0.229-0.716c-0.154-0.139-0.416-0.209-0.786-0.209c-0.434,0-0.858,0.063-1.273,0.189
			c-0.145,0.044-0.235,0.066-0.273,0.066c-0.076,0-0.112-0.057-0.112-0.17V8.167c0-0.082,0.012-0.142,0.037-0.179
			c0.026-0.038,0.076-0.072,0.151-0.104c0.192-0.088,0.44-0.159,0.739-0.212c0.299-0.053,0.598-0.081,0.892-0.081
			c0.598,0,1.038,0.125,1.32,0.373c0.284,0.249,0.425,0.627,0.425,1.135v3.225c0,0.126-0.063,0.189-0.189,0.189H56.39
			c-0.119,0-0.188-0.061-0.207-0.18l-0.047-0.311c-0.227,0.194-0.477,0.346-0.749,0.452C55.112,12.583,54.841,12.637,54.571,12.637
			 M54.797,11.93c0.208,0,0.425-0.041,0.651-0.123c0.226-0.082,0.443-0.201,0.647-0.358v-0.961
			c-0.338-0.082-0.671-0.123-0.999-0.123c-0.71,0-1.064,0.274-1.064,0.821c0,0.239,0.064,0.423,0.198,0.55
			C54.363,11.866,54.552,11.93,54.797,11.93z"/>
		<path fill="#777777" d="M58.738,6.885c-0.184,0-0.326-0.051-0.429-0.155c-0.104-0.104-0.156-0.241-0.156-0.411
			s0.052-0.307,0.156-0.411c0.103-0.103,0.247-0.155,0.429-0.155c0.182,0,0.326,0.052,0.43,0.155
			c0.103,0.104,0.154,0.241,0.154,0.411s-0.051,0.306-0.154,0.411C59.064,6.834,58.921,6.885,58.738,6.885 M58.455,12.515
			c-0.125,0-0.188-0.063-0.188-0.189V7.922c0-0.125,0.063-0.188,0.188-0.188h0.557c0.127,0,0.189,0.063,0.189,0.188v4.403
			c0,0.126-0.063,0.189-0.189,0.189L58.455,12.515L58.455,12.515z"/>
		<path fill="#777777" d="M61.52,12.562c-0.333,0-0.587-0.096-0.763-0.288c-0.176-0.191-0.264-0.467-0.264-0.826V5.726
			c0-0.126,0.063-0.189,0.188-0.189h0.559c0.125,0,0.188,0.063,0.188,0.189v5.666c0,0.146,0.029,0.252,0.09,0.317
			c0.058,0.065,0.157,0.098,0.296,0.098c0.037,0,0.078-0.003,0.119-0.009c0.041-0.006,0.076-0.009,0.107-0.009
			c0.062,0,0.104,0.016,0.127,0.047c0.021,0.03,0.033,0.078,0.033,0.141v0.302c0,0.063-0.015,0.111-0.043,0.146
			c-0.028,0.035-0.077,0.061-0.146,0.08C61.854,12.542,61.69,12.562,61.52,12.562"/>
		<path fill="#777777" d="M64.207,12.637c-0.446,0-0.802-0.125-1.069-0.381C62.87,12,62.738,11.66,62.738,11.232
			c0-0.458,0.163-0.826,0.49-1.098c0.328-0.275,0.768-0.41,1.32-0.41c0.352,0,0.749,0.053,1.189,0.159V9.261
			c0-0.339-0.078-0.579-0.232-0.716c-0.155-0.139-0.417-0.209-0.787-0.209c-0.434,0-0.855,0.063-1.271,0.189
			c-0.146,0.044-0.235,0.066-0.274,0.066c-0.075,0-0.113-0.057-0.113-0.17V8.167c0-0.082,0.013-0.142,0.038-0.179
			c0.025-0.037,0.075-0.072,0.15-0.104c0.195-0.088,0.442-0.159,0.741-0.212c0.298-0.053,0.596-0.081,0.891-0.081
			c0.597,0,1.037,0.125,1.32,0.373c0.285,0.249,0.425,0.627,0.425,1.135v3.225c0,0.126-0.063,0.189-0.188,0.189h-0.406
			c-0.12,0-0.188-0.061-0.208-0.18l-0.047-0.311c-0.227,0.194-0.478,0.346-0.749,0.452C64.749,12.583,64.477,12.637,64.207,12.637
			 M64.434,11.93c0.207,0,0.423-0.041,0.651-0.123c0.226-0.082,0.442-0.201,0.65-0.358v-0.961c-0.339-0.082-0.673-0.123-1-0.123
			c-0.71,0-1.065,0.274-1.065,0.821c0,0.239,0.066,0.423,0.197,0.55C64,11.866,64.188,11.93,64.434,11.93z"/>
		<path fill="#777777" d="M70.261,12.619c-0.577,0-1.084-0.202-1.519-0.604l-0.065,0.311c-0.02,0.126-0.092,0.189-0.217,0.189
			h-0.405c-0.125,0-0.188-0.063-0.188-0.189v-6.6c0-0.126,0.063-0.189,0.188-0.189h0.559c0.125,0,0.188,0.063,0.188,0.189v2.46
			c0.473-0.396,0.979-0.594,1.527-0.594c0.609,0,1.091,0.22,1.441,0.66c0.352,0.44,0.524,1.044,0.524,1.81
			c0,0.773-0.188,1.393-0.557,1.858C71.371,12.386,70.877,12.619,70.261,12.619 M70.044,11.864c0.868,0,1.302-0.585,1.302-1.753
			c0-0.598-0.104-1.042-0.314-1.33c-0.211-0.29-0.529-0.434-0.967-0.434c-0.443,0-0.867,0.145-1.265,0.434v2.63
			C69.195,11.713,69.609,11.864,70.044,11.864z"/>
		<path fill="#777777" d="M74.334,12.562c-0.332,0-0.588-0.096-0.764-0.288c-0.176-0.191-0.266-0.467-0.266-0.826V5.726
			c0-0.126,0.063-0.189,0.188-0.189h0.557c0.127,0,0.188,0.063,0.188,0.189v5.666c0,0.146,0.029,0.252,0.09,0.317
			c0.062,0.065,0.157,0.098,0.297,0.098c0.038,0,0.077-0.003,0.118-0.009c0.041-0.006,0.078-0.009,0.106-0.009
			c0.063,0,0.104,0.016,0.127,0.047c0.021,0.03,0.03,0.078,0.03,0.141v0.302c0,0.063-0.014,0.111-0.039,0.146
			c-0.028,0.035-0.077,0.061-0.146,0.08C74.667,12.542,74.503,12.562,74.334,12.562"/>
		<path fill="#777777" d="M77.955,12.656c-0.773,0-1.357-0.215-1.754-0.642c-0.396-0.428-0.594-1.059-0.594-1.896
			c0-0.798,0.195-1.418,0.594-1.861c0.396-0.444,0.949-0.666,1.66-0.666c0.598,0,1.056,0.168,1.377,0.505
			c0.32,0.336,0.479,0.813,0.479,1.428c0,0.201-0.016,0.405-0.048,0.613c-0.013,0.075-0.03,0.126-0.062,0.15
			c-0.027,0.026-0.072,0.039-0.139,0.039h-2.96c0.013,0.54,0.146,0.939,0.401,1.197c0.253,0.258,0.646,0.387,1.183,0.387
			c0.188,0,0.368-0.013,0.541-0.039c0.175-0.024,0.395-0.078,0.656-0.16c0.044-0.012,0.081-0.022,0.111-0.033
			c0.03-0.011,0.062-0.014,0.087-0.014c0.081,0,0.119,0.056,0.119,0.17V12.1c0,0.082-0.013,0.14-0.034,0.175
			c-0.025,0.034-0.08,0.071-0.161,0.108c-0.188,0.082-0.413,0.146-0.675,0.198C78.48,12.631,78.219,12.656,77.955,12.656
			 M78.859,9.705c0.008-0.05,0.011-0.132,0.011-0.245c0-0.385-0.089-0.673-0.271-0.868C78.422,8.397,78.16,8.3,77.813,8.3
			c-0.396,0-0.701,0.117-0.924,0.354c-0.22,0.235-0.346,0.585-0.377,1.051H78.859z"/>
		<path fill="#777777" d="M84.195,12.637c-0.446,0-0.801-0.125-1.068-0.381c-0.268-0.256-0.4-0.596-0.4-1.023
			c0-0.458,0.162-0.826,0.489-1.098c0.327-0.275,0.767-0.41,1.32-0.41c0.353,0,0.748,0.053,1.188,0.159V9.261
			c0-0.339-0.076-0.579-0.23-0.716c-0.154-0.139-0.416-0.209-0.787-0.209c-0.436,0-0.857,0.063-1.271,0.189
			C83.29,8.569,83.2,8.591,83.163,8.591c-0.076,0-0.114-0.057-0.114-0.17V8.167c0-0.082,0.014-0.142,0.038-0.179
			c0.022-0.038,0.076-0.072,0.149-0.104c0.193-0.088,0.438-0.159,0.74-0.212c0.299-0.053,0.598-0.081,0.893-0.081
			c0.597,0,1.035,0.125,1.318,0.373c0.279,0.249,0.426,0.627,0.426,1.135v3.225c0,0.126-0.063,0.189-0.188,0.189H86.02
			c-0.121,0-0.188-0.061-0.209-0.18l-0.047-0.311c-0.226,0.194-0.477,0.346-0.748,0.452C84.739,12.583,84.468,12.637,84.195,12.637
			 M84.424,11.93c0.206,0,0.424-0.041,0.649-0.123c0.228-0.082,0.444-0.201,0.647-0.358v-0.961c-0.34-0.082-0.674-0.123-0.996-0.123
			c-0.713,0-1.065,0.274-1.065,0.821c0,0.239,0.065,0.423,0.198,0.55C83.989,11.866,84.178,11.93,84.424,11.93z"/>
		<path fill="#777777" d="M89.497,12.581c-0.894,0-1.339-0.446-1.339-1.339V8.47h-0.68c-0.127,0-0.189-0.063-0.189-0.188V8.045
			c0-0.063,0.016-0.11,0.043-0.141c0.029-0.032,0.084-0.054,0.166-0.066l0.688-0.085l0.123-1.169
			c0.018-0.126,0.078-0.189,0.197-0.189h0.396c0.125,0,0.187,0.063,0.187,0.189v1.15h1.228c0.125,0,0.188,0.063,0.188,0.188v0.359
			c0,0.125-0.063,0.188-0.188,0.188H89.09v2.725c0,0.232,0.055,0.396,0.157,0.49c0.103,0.094,0.28,0.142,0.53,0.142
			c0.121,0,0.269-0.015,0.441-0.047c0.098-0.019,0.157-0.027,0.188-0.027c0.05,0,0.084,0.014,0.104,0.043
			c0.021,0.027,0.026,0.072,0.026,0.136v0.255c0,0.081-0.018,0.143-0.038,0.183c-0.025,0.041-0.075,0.074-0.15,0.101
			C90.109,12.542,89.824,12.581,89.497,12.581"/>
	</g>
</g>
</svg>
